{"glyphs":{"0":{"ha":532,"x_min":76,"x_max":511,"o":"m 315 394 q 245 379 276 394 q 192 338 214 364 q 158 277 169 313 q 146 200 146 242 q 180 84 146 125 q 276 43 214 43 q 394 95 347 43 q 442 239 442 147 q 411 350 442 306 q 315 394 381 394 m 229 0 q 119 39 163 0 q 76 144 76 78 q 99 248 76 196 q 159 342 121 300 q 249 409 197 383 q 358 435 300 435 q 469 395 428 435 q 511 292 511 356 q 488 183 511 235 q 425 90 464 131 q 335 24 386 49 q 229 0 285 0 z "},"1":{"ha":283,"x_min":54,"x_max":346,"o":"m 72 -8 q 57 4 54 -8 q 93 96 74 49 q 134 190 113 143 q 176 282 156 238 q 215 365 197 326 q 153 350 182 357 q 101 343 125 343 q 96 351 94 344 q 106 363 97 358 q 163 374 132 365 q 223 394 193 382 q 281 423 253 407 q 329 456 308 439 q 341 456 336 458 q 346 446 346 453 q 281 346 311 400 q 224 235 250 292 q 180 123 199 179 q 149 18 161 67 q 119 -1 142 7 q 72 -8 96 -8 z "},"2":{"ha":406,"x_min":-1,"x_max":397,"o":"m 279 435 q 369 405 342 435 q 397 336 397 375 q 380 265 397 296 q 329 206 363 233 q 247 149 296 178 q 133 82 197 119 q 201 65 163 72 q 288 58 240 58 q 336 67 319 58 q 361 92 353 76 q 372 92 368 97 q 374 78 376 88 q 319 21 350 42 q 239 0 288 0 q 171 8 200 0 q 119 22 142 15 q 77 31 96 29 q 40 22 58 33 q 21 10 29 15 q 6 0 13 4 q -1 9 -1 0 q 6 25 -1 18 q 122 96 65 64 q 223 160 179 128 q 293 228 267 192 q 319 313 319 264 q 298 371 319 349 q 239 393 276 393 q 165 363 194 393 q 125 288 135 332 q 115 288 121 283 q 110 299 110 292 q 129 348 115 324 q 165 392 143 372 q 215 423 186 411 q 279 435 244 435 z "},"3":{"ha":369,"x_min":-79,"x_max":376,"o":"m 258 435 q 347 406 317 435 q 376 339 376 376 q 332 247 376 283 q 200 176 288 211 q 255 174 229 182 q 299 147 281 165 q 329 102 318 129 q 340 42 340 75 q 313 -64 340 -15 q 239 -149 285 -112 q 133 -205 193 -185 q 7 -225 72 -225 q -58 -199 -37 -225 q -79 -131 -79 -174 q -72 -124 -78 -126 q -64 -126 -67 -122 q -22 -172 -54 -153 q 69 -190 11 -190 q 207 -142 153 -190 q 261 -4 261 -94 q 230 102 261 65 q 139 139 199 139 q 81 121 107 139 q 70 127 74 121 q 72 140 67 133 q 180 186 136 167 q 251 225 224 206 q 290 266 278 244 q 301 318 301 288 q 282 377 301 351 q 224 403 263 403 q 162 388 188 403 q 119 344 136 372 q 110 344 117 340 q 106 356 103 349 q 160 410 121 385 q 258 435 199 435 z "},"4":{"ha":517,"x_min":53,"x_max":646,"o":"m 643 682 q 609 642 624 661 q 581 604 594 624 q 556 564 568 585 q 531 518 544 543 q 467 388 499 460 q 406 236 435 317 l 424 236 q 501 249 472 236 q 543 285 531 261 q 551 284 546 288 q 554 274 556 281 q 491 203 528 225 q 385 179 454 181 q 340 28 358 103 q 327 15 338 21 q 305 3 317 8 q 281 -5 293 -1 q 261 -8 268 -8 q 246 0 247 -8 q 276 90 261 44 q 310 183 292 136 q 226 194 264 188 q 160 206 189 201 q 112 213 132 211 q 81 206 92 214 q 69 196 75 201 q 58 196 64 193 q 56 206 53 199 q 186 349 115 279 q 331 481 257 418 q 481 599 406 544 q 628 699 557 654 q 640 694 635 700 q 643 682 646 689 m 332 239 q 413 424 371 335 q 499 586 456 514 q 305 435 393 511 q 136 268 217 360 q 224 249 175 257 q 332 239 274 242 z "},"5":{"ha":347,"x_min":-97,"x_max":415,"o":"m 174 226 q 274 151 236 200 q 311 47 311 103 q 288 -50 311 -3 q 224 -134 265 -97 q 124 -192 182 -171 q -7 -214 65 -214 q -97 -131 -97 -214 q -90 -122 -96 -124 q -81 -125 -83 -121 q -28 -162 -67 -149 q 61 -176 11 -176 q 190 -124 144 -176 q 235 13 235 -71 q 205 107 235 65 q 122 164 175 149 q 101 185 104 171 q 106 228 99 200 q 139 327 118 274 q 181 424 160 381 q 203 431 188 431 q 263 433 231 432 q 328 435 294 433 q 401 463 390 439 q 410 465 404 468 q 415 456 415 463 q 385 392 403 410 q 322 371 367 374 q 295 370 311 371 q 263 368 279 369 q 230 366 246 367 q 204 365 214 365 q 169 347 175 364 q 158 319 163 333 q 147 285 153 304 q 147 249 140 261 q 174 226 153 236 z "},"6":{"ha":454,"x_min":69,"x_max":635,"o":"m 543 693 q 613 665 592 693 q 628 594 635 638 q 621 590 625 590 q 614 592 617 589 q 569 633 597 619 q 496 646 540 646 q 307 563 382 646 q 175 321 232 479 q 244 382 200 358 q 335 406 288 406 q 382 395 361 406 q 417 367 403 385 q 440 326 432 349 q 447 279 447 304 q 422 180 447 229 q 358 90 397 131 q 272 25 319 50 q 178 0 224 0 q 98 38 126 0 q 69 149 69 76 q 88 261 69 200 q 140 383 107 322 q 217 499 172 443 q 315 599 263 556 q 426 667 368 642 q 543 693 485 693 m 283 360 q 232 345 257 360 q 187 306 207 331 q 155 247 167 281 q 143 174 143 213 q 165 72 143 101 q 232 43 188 43 q 280 56 256 43 q 324 95 304 69 q 357 159 344 121 q 369 249 369 197 q 349 328 369 297 q 283 360 328 360 z "},"7":{"ha":453,"x_min":-15,"x_max":521,"o":"m 271 435 q 363 428 318 435 q 457 414 407 422 q 492 425 476 410 q 507 446 504 439 q 517 444 513 449 q 518 429 521 439 q 395 232 451 313 q 288 85 339 151 q 191 -46 238 18 q 97 -193 144 -110 q 80 -204 92 -199 q 53 -215 68 -210 q 24 -222 39 -219 q -1 -225 10 -225 q -11 -222 -7 -225 q -12 -211 -15 -218 q 97 -69 43 -129 q 205 49 150 -10 q 317 175 260 107 q 440 342 375 243 q 397 347 417 344 q 356 351 376 350 q 310 353 335 353 q 253 354 285 354 q 153 330 185 354 q 104 247 122 306 q 94 247 100 242 q 89 258 88 251 q 117 336 100 294 q 149 406 133 378 q 165 418 156 413 q 188 427 174 424 q 222 433 201 431 q 271 435 242 435 z "},"8":{"ha":467,"x_min":56,"x_max":558,"o":"m 558 557 q 392 376 558 444 q 444 308 421 344 q 468 214 468 271 q 448 135 468 174 q 392 66 428 96 q 310 18 357 36 q 210 0 264 0 q 95 35 135 0 q 56 131 56 71 q 115 269 56 206 q 293 368 175 333 q 247 431 267 399 q 226 511 226 464 q 240 565 226 538 q 280 613 254 592 q 343 648 306 635 q 428 661 381 661 q 522 631 486 661 q 558 557 558 600 m 263 39 q 358 74 322 39 q 393 171 393 108 q 367 275 393 235 q 310 350 342 315 q 174 274 213 322 q 135 164 135 226 q 167 73 135 107 q 263 39 199 39 m 376 392 q 488 529 488 439 q 460 602 488 576 q 389 628 433 628 q 324 604 349 628 q 300 543 300 581 q 323 458 300 492 q 376 392 346 424 z "},"9":{"ha":465,"x_min":-42,"x_max":457,"o":"m 44 -210 q -20 -190 1 -210 q -42 -137 -42 -171 q -36 -131 -40 -133 q -29 -131 -32 -128 q 7 -158 -18 -147 q 72 -168 32 -168 q 168 -151 126 -168 q 242 -100 210 -135 q 299 -10 274 -65 q 346 122 324 44 q 278 56 318 82 q 185 29 238 29 q 91 59 119 29 q 63 150 63 89 q 83 251 63 200 q 139 342 104 301 q 220 409 174 383 q 318 435 267 435 q 421 397 385 435 q 457 306 457 360 q 420 111 457 204 q 325 -53 383 18 q 193 -167 267 -125 q 44 -210 119 -210 m 232 74 q 287 91 261 74 q 333 138 313 108 q 365 203 353 167 q 376 278 376 240 q 353 363 376 329 q 278 396 331 396 q 176 342 213 396 q 139 179 139 288 q 232 74 139 74 z "}," ":{"ha":208,"x_min":0,"x_max":0,"o":""},"À":{"ha":1410,"x_min":56,"x_max":1422,"o":"m 1383 929 q 1383 922 1386 926 q 1372 917 1379 917 q 1332 929 1356 921 q 1285 947 1308 938 q 1239 967 1261 957 q 1201 985 1217 976 q 1199 990 1199 986 q 1201 996 1199 993 q 1235 1013 1215 1007 q 1257 1015 1254 1018 q 1313 973 1281 996 q 1383 929 1346 950 m 1418 813 q 1422 805 1422 810 q 1414 792 1422 800 q 1332 677 1368 742 q 1271 536 1296 613 q 1232 375 1246 460 q 1218 201 1218 290 q 1234 98 1218 135 q 1290 61 1250 61 q 1396 139 1346 61 q 1404 139 1400 142 q 1407 131 1408 136 q 1327 36 1371 72 q 1246 0 1283 0 q 1162 43 1190 0 q 1133 165 1133 86 q 1158 392 1133 276 q 1030 390 1093 392 q 907 386 967 389 q 819 294 861 338 q 736 215 776 251 q 508 57 625 114 q 250 0 390 0 q 130 33 175 0 q 70 118 85 67 q 71 231 56 169 q 132 349 86 292 q 142 348 136 351 q 146 335 147 344 q 110 255 114 300 q 130 170 107 210 q 201 103 153 131 q 324 76 250 76 q 545 125 442 76 q 740 257 649 174 q 804 317 772 285 q 871 383 836 349 q 779 377 822 381 q 699 368 736 374 q 696 375 692 369 q 708 387 700 381 q 728 398 717 393 q 751 404 740 403 q 808 406 769 406 q 894 408 846 407 q 1067 583 972 489 q 1293 779 1163 676 q 1101 830 1200 810 q 910 850 1001 850 q 739 792 806 850 q 657 611 672 735 q 649 606 654 604 q 643 614 644 607 q 744 822 660 750 q 964 894 829 894 q 1083 887 1021 894 q 1206 867 1146 879 q 1322 841 1267 856 q 1418 813 1376 826 m 1163 410 q 1225 604 1185 510 q 1324 778 1265 699 q 1106 586 1201 679 q 929 408 1010 493 q 1060 410 996 410 q 1163 410 1125 410 z "},"Å":{"ha":1410,"x_min":56,"x_max":1436,"o":"m 1374 1046 q 1340 1031 1351 1046 q 1328 992 1328 1017 q 1338 960 1328 972 q 1369 947 1347 947 q 1402 963 1390 947 q 1414 1003 1414 978 q 1374 1046 1414 1046 m 1351 931 q 1317 945 1329 931 q 1306 981 1306 960 q 1330 1038 1306 1013 q 1390 1063 1354 1063 q 1425 1049 1414 1063 q 1436 1014 1436 1035 q 1413 956 1436 982 q 1351 931 1389 931 m 1418 813 q 1422 805 1422 810 q 1414 792 1422 800 q 1332 677 1368 742 q 1271 536 1296 613 q 1232 375 1246 460 q 1218 201 1218 290 q 1234 98 1218 135 q 1290 61 1250 61 q 1396 139 1346 61 q 1404 139 1400 142 q 1407 131 1408 136 q 1327 36 1371 72 q 1246 0 1283 0 q 1162 43 1190 0 q 1133 165 1133 86 q 1158 392 1133 276 q 1030 390 1093 392 q 907 386 967 389 q 819 294 861 338 q 736 215 776 251 q 508 57 625 114 q 250 0 390 0 q 130 33 175 0 q 70 118 85 67 q 71 231 56 169 q 132 349 86 292 q 142 348 136 351 q 146 335 147 344 q 110 255 114 300 q 130 170 107 210 q 201 103 153 131 q 324 76 250 76 q 545 125 442 76 q 740 257 649 174 q 804 317 772 285 q 871 383 836 349 q 779 377 822 381 q 699 368 736 374 q 696 375 692 369 q 708 387 700 381 q 728 398 717 393 q 751 404 740 403 q 808 406 769 406 q 894 408 846 407 q 1067 583 972 489 q 1293 779 1163 676 q 1101 830 1200 810 q 910 850 1001 850 q 739 792 806 850 q 657 611 672 735 q 649 606 654 604 q 643 614 644 607 q 744 822 660 750 q 964 894 829 894 q 1083 887 1021 894 q 1206 867 1146 879 q 1322 841 1267 856 q 1418 813 1376 826 m 1163 410 q 1225 604 1185 510 q 1324 778 1265 699 q 1106 586 1201 679 q 929 408 1010 493 q 1060 410 996 410 q 1163 410 1125 410 z "},"Ã":{"ha":1410,"x_min":56,"x_max":1511,"o":"m 1208 935 q 1249 978 1224 957 q 1299 999 1275 999 q 1328 991 1315 999 q 1356 974 1342 983 q 1388 958 1371 965 q 1428 950 1406 950 q 1469 966 1453 950 q 1499 1011 1485 982 q 1506 1012 1501 1014 q 1510 1006 1511 1010 q 1469 946 1493 968 q 1404 924 1446 924 q 1369 931 1385 924 q 1338 947 1353 938 q 1310 963 1324 956 q 1282 969 1296 969 q 1249 958 1264 969 q 1218 926 1233 946 q 1209 927 1213 924 q 1208 935 1206 931 m 1418 813 q 1422 805 1422 810 q 1414 792 1422 800 q 1332 677 1368 742 q 1271 536 1296 613 q 1232 375 1246 460 q 1218 201 1218 290 q 1234 98 1218 135 q 1290 61 1250 61 q 1396 139 1346 61 q 1404 139 1400 142 q 1407 131 1408 136 q 1327 36 1371 72 q 1246 0 1283 0 q 1162 43 1190 0 q 1133 165 1133 86 q 1158 392 1133 276 q 1030 390 1093 392 q 907 386 967 389 q 819 294 861 338 q 736 215 776 251 q 508 57 625 114 q 250 0 390 0 q 130 33 175 0 q 70 118 85 67 q 71 231 56 169 q 132 349 86 292 q 142 348 136 351 q 146 335 147 344 q 110 255 114 300 q 130 170 107 210 q 201 103 153 131 q 324 76 250 76 q 545 125 442 76 q 740 257 649 174 q 804 317 772 285 q 871 383 836 349 q 779 377 822 381 q 699 368 736 374 q 696 375 692 369 q 708 387 700 381 q 728 398 717 393 q 751 404 740 403 q 808 406 769 406 q 894 408 846 407 q 1067 583 972 489 q 1293 779 1163 676 q 1101 830 1200 810 q 910 850 1001 850 q 739 792 806 850 q 657 611 672 735 q 649 606 654 604 q 643 614 644 607 q 744 822 660 750 q 964 894 829 894 q 1083 887 1021 894 q 1206 867 1146 879 q 1322 841 1267 856 q 1418 813 1376 826 m 1163 410 q 1225 604 1185 510 q 1324 778 1265 699 q 1106 586 1201 679 q 929 408 1010 493 q 1060 410 996 410 q 1163 410 1125 410 z "},"C":{"ha":801,"x_min":96,"x_max":903,"o":"m 674 894 q 765 890 724 894 q 838 875 807 885 q 885 852 868 865 q 903 822 903 839 q 897 792 903 811 q 884 753 892 774 q 867 714 876 733 q 849 683 857 694 q 838 684 844 681 q 835 694 832 688 q 847 774 864 746 q 771 829 829 803 q 626 856 713 856 q 437 822 518 856 q 301 728 356 789 q 220 579 247 667 q 193 383 193 492 q 214 240 193 306 q 275 126 235 174 q 374 51 315 78 q 507 24 432 24 q 674 85 607 24 q 768 250 740 147 q 778 256 771 257 q 785 247 785 254 q 769 183 779 218 q 746 116 758 147 q 721 62 733 85 q 700 36 708 39 q 601 10 656 19 q 485 0 546 0 q 193 90 290 0 q 96 340 96 181 q 138 560 96 458 q 258 736 181 663 q 440 852 335 810 q 674 894 546 894 z "},"Ç":{"ha":803,"x_min":96,"x_max":904,"o":"m 675 894 q 767 890 725 894 q 839 875 808 885 q 887 852 869 865 q 904 822 904 839 q 899 792 904 811 q 885 753 893 774 q 868 715 878 733 q 850 685 858 696 q 840 685 846 682 q 836 694 833 689 q 849 774 865 746 q 772 830 831 803 q 626 857 713 857 q 437 824 518 857 q 301 728 356 790 q 221 579 247 667 q 194 383 194 492 q 215 240 194 306 q 276 127 236 175 q 374 52 315 79 q 507 25 432 25 q 674 86 607 25 q 768 251 740 147 q 779 256 772 257 q 786 247 786 254 q 769 183 781 218 q 746 117 758 149 q 722 63 733 85 q 701 36 710 40 q 610 12 661 21 q 501 0 558 3 q 490 -21 492 -8 q 492 -44 488 -33 q 485 -111 504 -76 q 417 -165 465 -146 q 412 -159 413 -164 q 414 -151 411 -154 q 458 -115 450 -135 q 456 -68 465 -96 q 454 -33 450 -50 q 478 0 458 -15 q 191 92 286 3 q 96 342 96 182 q 139 561 96 460 q 258 736 182 663 q 441 852 335 810 q 675 894 547 894 z "},"E":{"ha":713,"x_min":83,"x_max":785,"o":"m 400 726 q 433 644 400 678 q 546 586 467 610 q 545 576 550 583 q 532 559 540 568 q 514 543 524 550 q 499 535 504 536 q 260 469 344 542 q 176 253 176 396 q 191 163 176 204 q 233 90 206 121 q 298 42 260 60 q 385 25 336 25 q 571 78 499 25 q 675 249 643 131 q 684 253 679 256 q 690 242 689 250 q 651 113 674 164 q 608 53 628 61 q 490 13 550 26 q 350 0 431 0 q 151 58 219 0 q 83 219 83 115 q 110 342 83 286 q 183 443 136 399 q 293 518 229 488 q 433 563 357 549 q 349 622 381 585 q 317 708 317 660 q 335 780 317 746 q 390 839 354 814 q 479 879 426 864 q 600 894 532 894 q 671 888 638 894 q 730 869 704 881 q 770 844 756 858 q 785 815 785 829 q 780 788 785 804 q 767 754 775 771 q 752 723 760 738 q 740 703 744 708 q 732 703 736 700 q 729 711 728 706 q 740 744 738 726 q 735 782 743 763 q 673 841 718 817 q 567 865 628 865 q 442 827 483 865 q 400 726 400 789 z "},"É":{"ha":713,"x_min":83,"x_max":785,"o":"m 600 1019 q 626 1017 607 1024 q 657 1006 644 1011 q 661 999 660 1003 q 658 993 663 996 q 623 972 644 983 q 577 951 601 961 q 527 931 553 940 q 481 914 501 921 q 475 919 475 914 q 479 929 475 925 q 540 969 507 946 q 600 1019 574 992 m 400 726 q 433 644 400 678 q 546 586 467 610 q 545 576 550 583 q 532 559 540 568 q 514 543 524 550 q 499 535 504 536 q 260 469 344 542 q 176 253 176 396 q 191 163 176 204 q 233 90 206 121 q 298 42 260 60 q 385 25 336 25 q 571 78 499 25 q 675 249 643 131 q 684 253 679 256 q 690 242 689 250 q 651 113 674 164 q 608 53 628 61 q 490 13 550 26 q 350 0 431 0 q 151 58 219 0 q 83 219 83 115 q 110 342 83 286 q 183 443 136 399 q 293 518 229 488 q 433 563 357 549 q 349 622 381 585 q 317 708 317 660 q 335 780 317 746 q 390 839 354 814 q 479 879 426 864 q 600 894 532 894 q 671 888 638 894 q 730 869 704 881 q 770 844 756 858 q 785 815 785 829 q 780 788 785 804 q 767 754 775 771 q 752 723 760 738 q 740 703 744 708 q 732 703 736 700 q 729 711 728 706 q 740 744 738 726 q 735 782 743 763 q 673 841 718 817 q 567 865 628 865 q 442 827 483 865 q 400 726 400 789 z "},"Ê":{"ha":713,"x_min":83,"x_max":785,"o":"m 543 1036 q 560 1035 550 1043 q 606 987 578 1011 q 663 950 635 963 q 656 936 669 943 q 626 932 643 929 q 578 959 600 943 q 535 993 557 975 q 513 978 526 986 q 484 960 499 969 q 455 943 469 951 q 431 931 440 935 q 424 943 417 931 q 484 983 447 957 q 543 1036 521 1010 m 400 726 q 433 644 400 678 q 546 586 467 610 q 545 576 550 583 q 532 559 540 568 q 514 543 524 550 q 499 535 504 536 q 260 469 344 542 q 176 253 176 396 q 191 163 176 204 q 233 90 206 121 q 298 42 260 60 q 385 25 336 25 q 571 78 499 25 q 675 249 643 131 q 684 253 679 256 q 690 242 689 250 q 651 113 674 164 q 608 53 628 61 q 490 13 550 26 q 350 0 431 0 q 151 58 219 0 q 83 219 83 115 q 110 342 83 286 q 183 443 136 399 q 293 518 229 488 q 433 563 357 549 q 349 622 381 585 q 317 708 317 660 q 335 780 317 746 q 390 839 354 814 q 479 879 426 864 q 600 894 532 894 q 671 888 638 894 q 730 869 704 881 q 770 844 756 858 q 785 815 785 829 q 780 788 785 804 q 767 754 775 771 q 752 723 760 738 q 740 703 744 708 q 732 703 736 700 q 729 711 728 706 q 740 744 738 726 q 735 782 743 763 q 673 841 718 817 q 567 865 628 865 q 442 827 483 865 q 400 726 400 789 z "},"Ë":{"ha":713,"x_min":83,"x_max":785,"o":"m 501 926 q 486 950 486 926 q 500 983 486 964 q 536 1001 514 1001 q 549 983 549 1001 q 535 945 549 964 q 501 926 521 926 m 608 926 q 592 950 592 926 q 606 983 592 964 q 640 1001 619 1001 q 653 983 653 1001 q 639 945 653 964 q 608 926 625 926 m 400 726 q 433 644 400 678 q 546 586 467 610 q 545 576 550 583 q 532 559 540 568 q 514 543 524 550 q 499 535 504 536 q 260 469 344 542 q 176 253 176 396 q 191 163 176 204 q 233 90 206 121 q 298 42 260 60 q 385 25 336 25 q 571 78 499 25 q 675 249 643 131 q 684 253 679 256 q 690 242 689 250 q 651 113 674 164 q 608 53 628 61 q 490 13 550 26 q 350 0 431 0 q 151 58 219 0 q 83 219 83 115 q 110 342 83 286 q 183 443 136 399 q 293 518 229 488 q 433 563 357 549 q 349 622 381 585 q 317 708 317 660 q 335 780 317 746 q 390 839 354 814 q 479 879 426 864 q 600 894 532 894 q 671 888 638 894 q 730 869 704 881 q 770 844 756 858 q 785 815 785 829 q 780 788 785 804 q 767 754 775 771 q 752 723 760 738 q 740 703 744 708 q 732 703 736 700 q 729 711 728 706 q 740 744 738 726 q 735 782 743 763 q 673 841 718 817 q 567 865 628 865 q 442 827 483 865 q 400 726 400 789 z "},"È":{"ha":713,"x_min":83,"x_max":785,"o":"m 651 929 q 651 922 654 926 q 640 917 647 917 q 600 929 624 921 q 553 947 576 938 q 507 967 529 957 q 469 985 485 976 q 467 990 467 986 q 469 996 467 993 q 503 1013 483 1007 q 525 1015 522 1018 q 581 973 549 996 q 651 929 614 950 m 400 726 q 433 644 400 678 q 546 586 467 610 q 545 576 550 583 q 532 559 540 568 q 514 543 524 550 q 499 535 504 536 q 260 469 344 542 q 176 253 176 396 q 191 163 176 204 q 233 90 206 121 q 298 42 260 60 q 385 25 336 25 q 571 78 499 25 q 675 249 643 131 q 684 253 679 256 q 690 242 689 250 q 651 113 674 164 q 608 53 628 61 q 490 13 550 26 q 350 0 431 0 q 151 58 219 0 q 83 219 83 115 q 110 342 83 286 q 183 443 136 399 q 293 518 229 488 q 433 563 357 549 q 349 622 381 585 q 317 708 317 660 q 335 780 317 746 q 390 839 354 814 q 479 879 426 864 q 600 894 532 894 q 671 888 638 894 q 730 869 704 881 q 770 844 756 858 q 785 815 785 829 q 780 788 785 804 q 767 754 775 771 q 752 723 760 738 q 740 703 744 708 q 732 703 736 700 q 729 711 728 706 q 740 744 738 726 q 735 782 743 763 q 673 841 718 817 q 567 865 628 865 q 442 827 483 865 q 400 726 400 789 z "},"F":{"ha":896,"x_min":69,"x_max":1189,"o":"m 1183 847 q 1185 834 1189 843 q 1172 816 1181 825 q 1150 800 1163 807 q 1128 793 1138 793 q 1060 800 1094 796 q 993 810 1026 804 q 942 785 964 801 q 903 743 921 769 q 872 677 886 717 q 842 581 857 638 q 824 518 832 549 q 804 460 815 488 l 947 460 q 952 453 954 457 q 939 447 950 450 q 868 445 903 446 q 799 443 833 444 q 587 107 715 214 q 279 0 458 0 q 124 47 179 0 q 69 178 69 94 q 98 268 69 226 q 179 333 126 310 q 188 328 185 333 q 188 319 190 324 q 151 277 163 300 q 139 214 139 254 q 151 148 139 178 q 190 95 164 118 q 258 60 217 72 q 358 47 300 47 q 476 64 425 47 q 568 124 526 81 q 646 244 610 168 q 719 440 682 321 q 582 432 649 438 q 451 417 515 426 q 453 423 447 418 q 469 433 458 428 q 492 444 479 439 q 511 450 504 449 q 725 458 615 456 q 739 504 732 481 q 753 553 746 528 q 831 726 783 665 q 960 815 878 786 q 816 835 885 826 q 685 844 747 844 q 513 805 581 844 q 413 669 444 765 q 404 668 408 665 q 400 678 400 671 q 520 836 431 776 q 742 896 610 896 q 845 890 793 896 q 951 877 897 885 q 1063 861 1006 869 q 1183 847 1121 853 z "},"G":{"ha":847,"x_min":-51,"x_max":1010,"o":"m 799 840 q 626 801 704 840 q 491 692 547 761 q 403 531 435 624 q 372 332 372 439 q 406 189 372 238 q 511 140 440 140 q 653 185 593 140 q 736 314 713 231 q 754 333 739 325 q 786 343 769 340 q 817 344 803 346 q 831 333 831 342 q 725 64 786 176 q 588 -120 664 -49 q 421 -225 511 -192 q 229 -258 331 -258 q 20 -201 92 -258 q -51 -47 -51 -144 q -15 61 -51 11 q 96 139 21 111 q 104 134 103 142 q 100 121 106 126 q 51 70 67 101 q 35 -14 35 39 q 95 -176 35 -118 q 265 -233 156 -233 q 404 -210 340 -233 q 522 -137 468 -187 q 621 -3 576 -86 q 703 199 665 79 q 605 138 660 163 q 483 114 550 114 q 278 300 278 114 q 299 433 278 364 q 360 567 321 501 q 453 692 399 633 q 572 796 507 751 q 710 867 636 840 q 863 893 783 893 q 969 864 929 893 q 1010 790 1010 835 q 1000 754 1010 775 q 976 712 990 733 q 946 670 961 690 q 921 635 931 650 q 911 635 917 632 q 907 644 906 639 q 935 699 926 675 q 944 750 944 722 q 909 815 944 789 q 799 840 874 840 z "},"H":{"ha":1256,"x_min":69,"x_max":1631,"o":"m 1568 946 q 1631 885 1631 946 q 1624 840 1631 865 q 1610 799 1617 814 q 1599 804 1601 796 q 1591 859 1610 836 q 1514 882 1572 882 q 1403 853 1453 882 q 1310 758 1354 824 q 1224 588 1265 693 q 1139 329 1182 482 q 1175 319 1158 324 q 1208 310 1192 314 q 1205 301 1211 307 q 1188 290 1199 296 q 1161 281 1176 285 q 1132 278 1146 276 q 1125 281 1131 278 q 1117 252 1121 265 q 1110 224 1114 239 q 1128 61 1067 61 q 1232 139 1182 61 q 1240 140 1236 143 q 1243 131 1244 138 q 1209 84 1228 107 q 1169 42 1190 61 q 1126 12 1149 24 q 1085 0 1104 0 q 1013 42 1033 0 q 1015 176 992 83 q 1032 241 1024 210 q 1051 303 1040 272 q 874 344 969 326 q 681 371 779 363 q 489 87 603 174 q 240 0 375 0 q 111 37 153 0 q 69 128 69 74 q 102 231 69 181 q 199 319 135 281 q 358 381 263 357 q 579 404 454 404 l 615 404 q 626 443 621 424 q 639 485 632 463 q 685 623 661 567 q 732 717 708 679 q 781 776 756 754 q 832 813 806 799 q 746 835 796 825 q 639 846 696 846 q 530 828 574 846 q 461 778 486 810 q 430 705 436 747 q 433 615 424 663 q 428 607 432 608 q 419 611 424 606 q 419 722 407 669 q 467 813 432 774 q 562 874 503 851 q 703 896 621 896 q 815 883 761 896 q 913 851 869 869 q 912 836 918 843 q 885 821 906 829 q 838 790 857 810 q 801 738 818 771 q 769 656 785 704 q 735 538 753 607 q 715 467 725 501 q 692 400 704 432 q 880 379 783 393 q 1065 346 976 365 q 1173 599 1113 488 q 1299 788 1233 711 q 1433 906 1364 865 q 1568 946 1501 946 m 279 33 q 388 51 340 33 q 473 108 435 68 q 543 213 511 147 q 607 376 575 279 q 568 378 588 378 q 529 378 549 378 q 351 360 425 378 q 230 313 276 343 q 161 243 183 283 q 139 156 139 203 q 176 65 139 96 q 279 33 213 33 z "},"I":{"ha":824,"x_min":69,"x_max":1085,"o":"m 1079 896 q 1083 885 1085 893 q 1074 869 1081 878 q 1058 851 1067 860 q 1040 839 1049 843 q 988 815 1010 831 q 947 769 965 799 q 911 694 928 740 q 876 575 894 647 q 736 257 828 388 q 770 265 754 260 q 793 275 786 271 q 799 273 797 276 q 797 265 800 269 q 767 251 786 258 q 726 242 747 244 q 525 62 639 124 q 279 0 411 0 q 124 36 178 0 q 69 129 69 72 q 108 222 69 178 q 231 286 147 265 q 238 281 238 285 q 236 274 239 276 q 151 168 151 246 q 197 75 151 110 q 325 40 243 40 q 519 85 433 40 q 671 238 606 131 q 563 292 600 242 q 525 421 525 342 q 571 592 525 507 q 693 744 617 676 q 870 854 769 813 q 1079 896 971 896 m 790 544 q 824 651 806 607 q 864 728 842 696 q 915 785 886 761 q 981 829 943 808 q 804 778 885 818 q 665 681 724 738 q 575 558 607 625 q 543 426 543 492 q 579 299 543 343 q 678 251 615 256 q 790 544 743 363 z "},"Í":{"ha":824,"x_min":69,"x_max":1085,"o":"m 876 1019 q 902 1017 883 1024 q 933 1006 921 1011 q 938 999 936 1003 q 935 993 939 996 q 899 972 921 983 q 853 951 878 961 q 803 931 829 940 q 757 914 778 921 q 751 919 751 914 q 756 929 751 925 q 817 969 783 946 q 876 1019 850 992 m 1079 896 q 1083 885 1085 893 q 1074 869 1081 878 q 1058 851 1067 860 q 1040 839 1049 843 q 988 815 1010 831 q 947 769 965 799 q 911 694 928 740 q 876 575 894 647 q 736 257 828 388 q 770 265 754 260 q 793 275 786 271 q 799 273 797 276 q 797 265 800 269 q 767 251 786 258 q 726 242 747 244 q 525 62 639 124 q 279 0 411 0 q 124 36 178 0 q 69 129 69 72 q 108 222 69 178 q 231 286 147 265 q 238 281 238 285 q 236 274 239 276 q 151 168 151 246 q 197 75 151 110 q 325 40 243 40 q 519 85 433 40 q 671 238 606 131 q 563 292 600 242 q 525 421 525 342 q 571 592 525 507 q 693 744 617 676 q 870 854 769 813 q 1079 896 971 896 m 790 544 q 824 651 806 607 q 864 728 842 696 q 915 785 886 761 q 981 829 943 808 q 804 778 885 818 q 665 681 724 738 q 575 558 607 625 q 543 426 543 492 q 579 299 543 343 q 678 251 615 256 q 790 544 743 363 z "},"Î":{"ha":824,"x_min":69,"x_max":1085,"o":"m 818 1036 q 835 1035 825 1043 q 881 987 853 1011 q 938 950 910 963 q 931 936 944 943 q 901 932 918 929 q 853 959 875 943 q 810 993 832 975 q 788 978 801 986 q 759 960 774 969 q 730 943 744 951 q 706 931 715 935 q 699 943 692 931 q 759 983 722 957 q 818 1036 796 1010 m 1079 896 q 1083 885 1085 893 q 1074 869 1081 878 q 1058 851 1067 860 q 1040 839 1049 843 q 988 815 1010 831 q 947 769 965 799 q 911 694 928 740 q 876 575 894 647 q 736 257 828 388 q 770 265 754 260 q 793 275 786 271 q 799 273 797 276 q 797 265 800 269 q 767 251 786 258 q 726 242 747 244 q 525 62 639 124 q 279 0 411 0 q 124 36 178 0 q 69 129 69 72 q 108 222 69 178 q 231 286 147 265 q 238 281 238 285 q 236 274 239 276 q 151 168 151 246 q 197 75 151 110 q 325 40 243 40 q 519 85 433 40 q 671 238 606 131 q 563 292 600 242 q 525 421 525 342 q 571 592 525 507 q 693 744 617 676 q 870 854 769 813 q 1079 896 971 896 m 790 544 q 824 651 806 607 q 864 728 842 696 q 915 785 886 761 q 981 829 943 808 q 804 778 885 818 q 665 681 724 738 q 575 558 607 625 q 543 426 543 492 q 579 299 543 343 q 678 251 615 256 q 790 544 743 363 z "},"Ï":{"ha":824,"x_min":69,"x_max":1085,"o":"m 757 926 q 742 950 742 926 q 756 983 742 964 q 792 1001 769 1001 q 804 983 804 1001 q 790 945 804 964 q 757 926 776 926 m 864 926 q 847 950 847 926 q 861 983 847 964 q 896 1001 875 1001 q 908 983 908 1001 q 894 945 908 964 q 864 926 881 926 m 1079 896 q 1083 885 1085 893 q 1074 869 1081 878 q 1058 851 1067 860 q 1040 839 1049 843 q 988 815 1010 831 q 947 769 965 799 q 911 694 928 740 q 876 575 894 647 q 736 257 828 388 q 770 265 754 260 q 793 275 786 271 q 799 273 797 276 q 797 265 800 269 q 767 251 786 258 q 726 242 747 244 q 525 62 639 124 q 279 0 411 0 q 124 36 178 0 q 69 129 69 72 q 108 222 69 178 q 231 286 147 265 q 238 281 238 285 q 236 274 239 276 q 151 168 151 246 q 197 75 151 110 q 325 40 243 40 q 519 85 433 40 q 671 238 606 131 q 563 292 600 242 q 525 421 525 342 q 571 592 525 507 q 693 744 617 676 q 870 854 769 813 q 1079 896 971 896 m 790 544 q 824 651 806 607 q 864 728 842 696 q 915 785 886 761 q 981 829 943 808 q 804 778 885 818 q 665 681 724 738 q 575 558 607 625 q 543 426 543 492 q 579 299 543 343 q 678 251 615 256 q 790 544 743 363 z "},"Ì":{"ha":824,"x_min":69,"x_max":1085,"o":"m 854 929 q 853 922 857 926 q 843 917 850 917 q 803 929 826 921 q 756 947 779 938 q 710 967 732 957 q 672 985 688 976 q 669 990 669 986 q 672 996 669 993 q 706 1013 686 1007 q 728 1015 725 1018 q 784 973 751 996 q 854 929 817 950 m 1079 896 q 1083 885 1085 893 q 1074 869 1081 878 q 1058 851 1067 860 q 1040 839 1049 843 q 988 815 1010 831 q 947 769 965 799 q 911 694 928 740 q 876 575 894 647 q 736 257 828 388 q 770 265 754 260 q 793 275 786 271 q 799 273 797 276 q 797 265 800 269 q 767 251 786 258 q 726 242 747 244 q 525 62 639 124 q 279 0 411 0 q 124 36 178 0 q 69 129 69 72 q 108 222 69 178 q 231 286 147 265 q 238 281 238 285 q 236 274 239 276 q 151 168 151 246 q 197 75 151 110 q 325 40 243 40 q 519 85 433 40 q 671 238 606 131 q 563 292 600 242 q 525 421 525 342 q 571 592 525 507 q 693 744 617 676 q 870 854 769 813 q 1079 896 971 896 m 790 544 q 824 651 806 607 q 864 728 842 696 q 915 785 886 761 q 981 829 943 808 q 804 778 885 818 q 665 681 724 738 q 575 558 607 625 q 543 426 543 492 q 579 299 543 343 q 678 251 615 256 q 790 544 743 363 z "},"J":{"ha":936,"x_min":0,"x_max":1203,"o":"m 1196 894 q 1199 882 1203 890 q 1188 865 1196 874 q 1171 848 1181 856 q 1157 838 1161 840 q 1106 814 1128 829 q 1065 769 1083 799 q 1028 693 1046 740 q 993 574 1011 646 q 881 257 947 396 q 908 265 896 261 q 925 274 919 269 q 932 270 931 274 q 931 264 933 267 q 906 251 921 257 q 874 242 892 246 q 735 20 811 114 q 575 -135 660 -74 q 399 -227 490 -197 q 215 -257 307 -257 q 55 -215 110 -257 q 0 -85 0 -172 q 25 15 0 -37 q 101 115 50 68 q 230 201 153 163 q 411 257 307 239 q 418 251 418 257 q 411 243 418 246 q 160 132 243 211 q 76 -47 76 53 q 124 -175 76 -132 q 263 -218 171 -218 q 420 -193 344 -218 q 564 -114 496 -168 q 692 26 632 -60 q 806 235 753 113 q 688 287 733 238 q 642 419 642 336 q 688 590 642 506 q 810 743 733 675 q 987 853 886 811 q 1196 894 1088 894 m 907 543 q 989 729 938 663 q 1097 828 1040 796 q 921 776 1001 817 q 782 680 840 736 q 692 557 724 624 q 660 425 660 490 q 700 299 660 344 q 811 249 740 253 q 907 543 863 375 z "},"K":{"ha":1347,"x_min":69,"x_max":1413,"o":"m 793 482 q 726 275 772 365 q 613 124 679 185 q 465 31 547 63 q 289 0 382 0 q 126 44 183 0 q 69 160 69 89 q 108 265 69 217 q 213 336 146 314 q 222 333 219 338 q 222 322 225 329 q 166 268 186 303 q 146 189 146 233 q 192 81 146 122 q 325 39 239 39 q 471 60 408 39 q 578 128 533 82 q 652 251 622 175 q 701 435 682 326 q 739 595 718 531 q 783 703 760 660 q 834 771 807 746 q 892 811 861 796 q 807 834 856 825 q 700 843 758 843 q 550 815 614 843 q 448 735 486 786 q 397 616 410 685 q 401 467 385 547 q 394 458 400 460 q 386 461 389 456 q 383 626 367 547 q 448 765 400 706 q 575 860 496 825 q 761 896 654 896 q 872 883 818 896 q 969 851 926 869 q 969 836 975 843 q 942 821 964 829 q 891 786 913 808 q 853 725 869 764 q 822 626 836 686 q 793 482 808 567 m 904 536 q 965 340 935 428 q 1031 191 994 253 q 1113 97 1068 129 q 1217 64 1157 64 q 1274 80 1249 64 q 1314 121 1299 96 q 1323 120 1318 125 q 1325 108 1328 115 q 1256 31 1300 61 q 1158 0 1213 0 q 1046 38 1094 0 q 959 142 997 76 q 892 293 921 207 q 840 475 864 379 q 840 488 839 482 q 847 501 840 494 q 977 654 910 582 q 1111 780 1044 726 q 1240 865 1178 833 q 1354 896 1301 896 q 1397 875 1382 896 q 1413 825 1413 854 q 1408 779 1413 806 q 1396 733 1403 753 q 1382 738 1385 726 q 1372 795 1389 771 q 1310 819 1356 819 q 1115 744 1221 819 q 904 536 1010 669 z "},"L":{"ha":938,"x_min":42,"x_max":1035,"o":"m 939 896 q 1008 866 982 896 q 1035 793 1035 836 q 1022 728 1035 765 q 996 668 1010 692 q 984 667 990 664 q 979 676 978 669 q 986 726 988 701 q 972 772 985 751 q 934 806 960 793 q 869 819 908 819 q 778 801 817 819 q 708 735 740 782 q 649 611 676 689 q 592 417 621 533 q 457 129 543 231 q 588 87 519 106 q 740 68 657 68 q 846 93 810 68 q 906 165 882 118 q 916 166 911 169 q 919 154 921 163 q 831 40 886 79 q 682 0 775 0 q 533 24 600 0 q 401 76 465 49 q 153 0 300 0 q 69 19 97 0 q 42 68 42 39 q 55 107 42 86 q 92 146 68 128 q 148 176 115 164 q 221 189 181 189 q 322 176 272 189 q 422 143 371 163 q 468 240 446 182 q 513 383 490 299 q 589 598 544 503 q 688 759 633 693 q 806 860 743 825 q 939 896 869 896 m 215 36 q 305 47 265 36 q 376 88 344 57 q 272 126 325 110 q 160 143 219 143 q 96 100 96 143 q 127 54 96 72 q 215 36 158 36 z "},"M":{"ha":1774,"x_min":69,"x_max":1879,"o":"m 1867 913 q 1876 905 1874 913 q 1875 892 1879 897 q 1749 737 1804 822 q 1657 561 1694 651 q 1601 383 1619 471 q 1582 221 1582 294 q 1600 103 1582 146 q 1650 61 1618 61 q 1703 82 1678 61 q 1754 140 1729 103 q 1763 140 1758 143 q 1767 131 1768 138 q 1732 84 1751 107 q 1690 42 1713 61 q 1643 12 1667 24 q 1597 0 1619 0 q 1521 47 1546 0 q 1496 174 1496 94 q 1511 319 1496 239 q 1556 482 1526 399 q 1628 645 1586 565 q 1725 789 1671 725 q 1553 639 1642 726 q 1381 452 1464 551 q 1227 247 1299 353 q 1108 42 1156 142 q 1097 28 1106 36 q 1078 15 1089 21 q 1056 4 1067 8 q 1036 0 1044 0 q 1028 10 1025 0 q 1103 393 1054 225 q 1219 703 1153 561 q 1002 405 1108 536 q 788 184 896 274 q 569 47 681 94 q 340 0 458 0 q 140 65 210 0 q 69 238 69 131 q 110 365 69 308 q 221 447 150 421 q 228 444 226 450 q 228 435 231 439 q 167 371 185 407 q 150 276 150 335 q 165 190 150 231 q 210 117 181 149 q 283 68 239 86 q 386 50 328 50 q 617 106 507 50 q 833 258 728 161 q 1038 485 938 354 q 1239 765 1139 615 q 1035 822 1142 799 q 831 844 929 844 q 657 781 718 844 q 582 611 596 718 q 574 606 579 604 q 568 614 569 607 q 668 824 583 751 q 889 896 753 896 q 1007 888 944 896 q 1130 868 1069 881 q 1245 841 1190 856 q 1342 813 1300 826 q 1356 817 1347 814 q 1363 810 1361 815 q 1361 800 1364 804 q 1328 770 1342 789 q 1300 724 1315 751 q 1190 431 1231 583 q 1122 124 1149 279 q 1273 355 1186 239 q 1458 575 1360 471 q 1662 767 1557 679 q 1867 913 1767 854 z "},"N":{"ha":1379,"x_min":60,"x_max":1778,"o":"m 1693 894 q 1758 859 1738 894 q 1778 753 1778 824 q 1769 743 1776 744 q 1760 750 1763 742 q 1739 793 1757 772 q 1679 814 1721 814 q 1589 779 1635 814 q 1499 686 1543 744 q 1417 549 1456 628 q 1349 383 1379 471 q 1301 203 1319 296 q 1281 25 1283 111 q 1278 5 1281 10 q 1268 0 1275 0 q 1258 6 1261 0 q 1253 21 1256 13 q 1101 426 1190 250 q 900 707 1013 603 q 813 404 869 536 q 681 183 757 272 q 513 47 606 93 q 318 0 421 0 q 204 16 253 0 q 124 60 156 32 q 76 125 92 88 q 60 207 60 163 q 87 316 60 263 q 165 403 114 369 q 175 400 172 406 q 175 388 178 394 q 135 331 150 363 q 121 265 121 300 q 179 125 121 178 q 354 72 238 72 q 689 237 554 72 q 872 732 824 401 q 744 809 810 782 q 608 836 679 836 q 498 806 542 836 q 435 739 454 775 q 426 736 431 735 q 419 744 421 738 q 456 798 432 771 q 510 847 479 825 q 580 881 542 868 q 660 894 618 894 q 774 874 718 894 q 883 817 831 854 q 892 835 886 825 q 903 854 897 846 q 915 866 910 863 q 921 864 919 869 q 918 828 919 846 q 914 794 917 811 q 1030 678 975 746 q 1131 532 1085 611 q 1215 365 1178 453 q 1279 186 1253 276 q 1313 344 1290 263 q 1367 505 1335 426 q 1437 654 1399 583 q 1517 778 1475 725 q 1604 863 1560 832 q 1693 894 1649 894 z "},"Ñ":{"ha":1379,"x_min":60,"x_max":1778,"o":"m 1074 935 q 1115 978 1089 957 q 1164 999 1140 999 q 1194 991 1181 999 q 1222 974 1207 983 q 1253 958 1236 965 q 1293 950 1271 950 q 1334 966 1318 950 q 1364 1011 1350 982 q 1372 1012 1367 1014 q 1375 1006 1376 1010 q 1335 946 1358 968 q 1269 924 1311 924 q 1234 931 1250 924 q 1203 947 1218 938 q 1175 963 1189 956 q 1147 969 1161 969 q 1114 958 1129 969 q 1083 926 1099 946 q 1074 927 1078 924 q 1074 935 1071 931 m 1693 894 q 1758 859 1738 894 q 1778 753 1778 824 q 1769 743 1776 744 q 1760 750 1763 742 q 1739 793 1757 772 q 1679 814 1721 814 q 1589 779 1635 814 q 1499 686 1543 744 q 1417 549 1456 628 q 1349 383 1379 471 q 1301 203 1319 296 q 1281 25 1283 111 q 1278 5 1281 10 q 1268 0 1275 0 q 1258 6 1261 0 q 1253 21 1256 13 q 1101 426 1190 250 q 900 707 1013 603 q 813 404 869 536 q 681 183 757 272 q 513 47 606 93 q 318 0 421 0 q 204 16 253 0 q 124 60 156 32 q 76 125 92 88 q 60 207 60 163 q 87 316 60 263 q 165 403 114 369 q 175 400 172 406 q 175 388 178 394 q 135 331 150 363 q 121 265 121 300 q 179 125 121 178 q 354 72 238 72 q 689 237 554 72 q 872 732 824 401 q 744 809 810 782 q 608 836 679 836 q 498 806 542 836 q 435 739 454 775 q 426 736 431 735 q 419 744 421 738 q 456 798 432 771 q 510 847 479 825 q 580 881 542 868 q 660 894 618 894 q 774 874 718 894 q 883 817 831 854 q 892 835 886 825 q 903 854 897 846 q 915 866 910 863 q 921 864 919 869 q 918 828 919 846 q 914 794 917 811 q 1030 678 975 746 q 1131 532 1085 611 q 1215 365 1178 453 q 1279 186 1253 276 q 1313 344 1290 263 q 1367 505 1335 426 q 1437 654 1399 583 q 1517 778 1475 725 q 1604 863 1560 832 q 1693 894 1649 894 z "},"O":{"ha":897,"x_min":97,"x_max":960,"o":"m 647 894 q 780 870 722 894 q 878 802 838 846 q 939 697 918 758 q 960 564 960 636 q 915 349 960 451 q 794 169 869 247 q 623 46 719 92 q 424 0 526 0 q 284 24 344 0 q 182 92 224 49 q 119 194 140 136 q 97 322 97 253 q 142 531 97 428 q 263 715 188 633 q 438 845 339 796 q 647 894 538 894 m 500 50 q 640 84 572 50 q 760 180 707 118 q 844 328 813 242 q 876 522 876 415 q 859 647 876 589 q 806 749 842 706 q 715 817 769 792 q 586 842 661 842 q 419 805 493 842 q 292 704 344 768 q 212 554 240 640 q 183 368 183 468 q 204 238 183 296 q 265 138 225 179 q 365 73 306 96 q 500 50 424 50 z "},"Ó":{"ha":897,"x_min":97,"x_max":960,"o":"m 650 1019 q 676 1017 657 1024 q 707 1006 694 1011 q 711 999 710 1003 q 708 993 713 996 q 673 972 694 983 q 627 951 651 961 q 577 931 603 940 q 531 914 551 921 q 525 919 525 914 q 529 929 525 925 q 590 969 557 946 q 650 1019 624 992 m 647 894 q 780 870 722 894 q 878 802 838 846 q 939 697 918 758 q 960 564 960 636 q 915 349 960 451 q 794 169 869 247 q 623 46 719 92 q 424 0 526 0 q 284 24 344 0 q 182 92 224 49 q 119 194 140 136 q 97 322 97 253 q 142 531 97 428 q 263 715 188 633 q 438 845 339 796 q 647 894 538 894 m 500 50 q 640 84 572 50 q 760 180 707 118 q 844 328 813 242 q 876 522 876 415 q 859 647 876 589 q 806 749 842 706 q 715 817 769 792 q 586 842 661 842 q 419 805 493 842 q 292 704 344 768 q 212 554 240 640 q 183 368 183 468 q 204 238 183 296 q 265 138 225 179 q 365 73 306 96 q 500 50 424 50 z "},"Ô":{"ha":897,"x_min":97,"x_max":960,"o":"m 625 1036 q 642 1035 632 1043 q 688 987 660 1011 q 744 950 717 963 q 738 936 751 943 q 708 932 725 929 q 660 959 682 943 q 617 993 639 975 q 594 978 608 986 q 566 960 581 969 q 537 943 551 951 q 513 931 522 935 q 506 943 499 931 q 566 983 529 957 q 625 1036 603 1010 m 647 894 q 780 870 722 894 q 878 802 838 846 q 939 697 918 758 q 960 564 960 636 q 915 349 960 451 q 794 169 869 247 q 623 46 719 92 q 424 0 526 0 q 284 24 344 0 q 182 92 224 49 q 119 194 140 136 q 97 322 97 253 q 142 531 97 428 q 263 715 188 633 q 438 845 339 796 q 647 894 538 894 m 500 50 q 640 84 572 50 q 760 180 707 118 q 844 328 813 242 q 876 522 876 415 q 859 647 876 589 q 806 749 842 706 q 715 817 769 792 q 586 842 661 842 q 419 805 493 842 q 292 704 344 768 q 212 554 240 640 q 183 368 183 468 q 204 238 183 296 q 265 138 225 179 q 365 73 306 96 q 500 50 424 50 z "},"Ö":{"ha":897,"x_min":97,"x_max":960,"o":"m 564 926 q 549 950 549 926 q 563 983 549 964 q 599 1001 576 1001 q 611 983 611 1001 q 597 945 611 964 q 564 926 583 926 m 671 926 q 654 950 654 926 q 668 983 654 964 q 703 1001 682 1001 q 715 983 715 1001 q 701 945 715 964 q 671 926 688 926 m 647 894 q 780 870 722 894 q 878 802 838 846 q 939 697 918 758 q 960 564 960 636 q 915 349 960 451 q 794 169 869 247 q 623 46 719 92 q 424 0 526 0 q 284 24 344 0 q 182 92 224 49 q 119 194 140 136 q 97 322 97 253 q 142 531 97 428 q 263 715 188 633 q 438 845 339 796 q 647 894 538 894 m 500 50 q 640 84 572 50 q 760 180 707 118 q 844 328 813 242 q 876 522 876 415 q 859 647 876 589 q 806 749 842 706 q 715 817 769 792 q 586 842 661 842 q 419 805 493 842 q 292 704 344 768 q 212 554 240 640 q 183 368 183 468 q 204 238 183 296 q 265 138 225 179 q 365 73 306 96 q 500 50 424 50 z "},"Ò":{"ha":897,"x_min":97,"x_max":960,"o":"m 686 929 q 685 922 689 926 q 675 917 682 917 q 635 929 658 921 q 588 947 611 938 q 542 967 564 957 q 504 985 519 976 q 501 990 501 986 q 504 996 501 993 q 538 1013 518 1007 q 560 1015 557 1018 q 616 973 583 996 q 686 929 649 950 m 647 894 q 780 870 722 894 q 878 802 838 846 q 939 697 918 758 q 960 564 960 636 q 915 349 960 451 q 794 169 869 247 q 623 46 719 92 q 424 0 526 0 q 284 24 344 0 q 182 92 224 49 q 119 194 140 136 q 97 322 97 253 q 142 531 97 428 q 263 715 188 633 q 438 845 339 796 q 647 894 538 894 m 500 50 q 640 84 572 50 q 760 180 707 118 q 844 328 813 242 q 876 522 876 415 q 859 647 876 589 q 806 749 842 706 q 715 817 769 792 q 586 842 661 842 q 419 805 493 842 q 292 704 344 768 q 212 554 240 640 q 183 368 183 468 q 204 238 183 296 q 265 138 225 179 q 365 73 306 96 q 500 50 424 50 z "},"Ø":{"ha":896,"x_min":97,"x_max":958,"o":"m 810 856 q 920 740 882 815 q 958 564 958 664 q 913 349 958 451 q 794 169 868 247 q 623 46 719 92 q 424 0 526 0 q 314 14 363 0 q 226 54 265 28 q 197 12 210 31 q 172 -22 183 -7 q 153 -28 165 -31 q 144 -18 142 -25 q 172 22 157 0 q 206 69 188 44 q 125 178 153 114 q 97 322 97 243 q 117 463 97 393 q 174 597 138 533 q 263 715 211 660 q 375 809 314 769 q 505 872 436 849 q 647 894 574 894 q 786 867 724 894 q 819 913 804 892 q 840 917 828 919 q 847 906 851 914 q 810 856 831 882 m 183 368 q 258 143 183 229 q 374 303 311 217 q 500 478 436 389 q 626 651 564 567 q 739 804 688 735 q 586 840 675 840 q 418 803 493 840 q 291 703 343 767 q 211 553 239 639 q 183 368 183 467 m 500 49 q 640 83 572 49 q 759 178 707 117 q 843 328 811 240 q 875 522 875 415 q 847 677 875 607 q 761 789 819 747 q 647 636 710 721 q 519 462 585 551 q 390 285 453 372 q 276 125 328 197 q 372 69 317 89 q 500 49 428 49 z "},"Õ":{"ha":897,"x_min":97,"x_max":960,"o":"m 479 935 q 520 978 494 957 q 569 999 546 999 q 599 991 586 999 q 627 974 613 983 q 659 958 642 965 q 699 950 676 950 q 740 966 724 950 q 769 1011 756 982 q 777 1012 772 1014 q 781 1006 782 1010 q 740 946 764 968 q 675 924 717 924 q 640 931 656 924 q 609 947 624 938 q 581 963 594 956 q 553 969 567 969 q 519 958 535 969 q 489 926 504 946 q 480 927 483 924 q 479 935 476 931 m 647 894 q 780 870 722 894 q 878 802 838 846 q 939 697 918 758 q 960 564 960 636 q 915 349 960 451 q 794 169 869 247 q 623 46 719 92 q 424 0 526 0 q 284 24 344 0 q 182 92 224 49 q 119 194 140 136 q 97 322 97 253 q 142 531 97 428 q 263 715 188 633 q 438 845 339 796 q 647 894 538 894 m 500 50 q 640 84 572 50 q 760 180 707 118 q 844 328 813 242 q 876 522 876 415 q 859 647 876 589 q 806 749 842 706 q 715 817 769 792 q 586 842 661 842 q 419 805 493 842 q 292 704 344 768 q 212 554 240 640 q 183 368 183 468 q 204 238 183 296 q 265 138 225 179 q 365 73 306 96 q 500 50 424 50 z "},"P":{"ha":1140,"x_min":69,"x_max":1265,"o":"m 989 892 q 1104 860 1053 883 q 1191 801 1156 836 q 1246 720 1226 765 q 1265 625 1265 675 q 1240 503 1265 560 q 1167 404 1214 446 q 1054 338 1121 363 q 904 314 988 314 q 754 358 814 314 q 549 85 667 171 q 294 0 431 0 q 124 58 179 0 q 69 203 69 115 q 78 256 69 229 q 104 308 88 283 q 145 351 121 332 q 200 383 169 371 q 208 383 204 386 q 208 374 211 381 q 147 314 167 351 q 128 233 128 276 q 140 162 128 196 q 180 103 153 128 q 249 63 207 78 q 349 49 290 49 q 465 65 415 49 q 556 124 515 82 q 631 237 597 165 q 700 418 665 308 q 665 506 675 458 q 671 514 667 511 q 678 513 675 517 q 707 440 688 472 q 717 478 713 458 q 728 517 722 497 q 804 722 763 640 q 899 854 846 804 q 878 856 892 856 q 631 788 731 856 q 490 582 531 721 q 481 581 486 578 q 476 594 476 585 q 634 814 524 733 q 925 894 744 894 l 947 894 q 1065 946 1000 929 q 1072 940 1072 946 q 1065 931 1072 933 q 989 892 1024 918 m 919 342 q 1025 361 978 342 q 1106 415 1072 381 q 1158 496 1140 450 q 1176 594 1176 542 q 1117 762 1176 693 q 949 850 1058 831 q 833 583 879 763 q 801 476 818 526 q 764 381 783 425 q 919 342 821 342 z "},"Q":{"ha":836,"x_min":99,"x_max":1082,"o":"m 592 896 q 726 872 668 896 q 823 808 783 849 q 883 714 863 768 q 903 599 903 660 q 854 394 903 490 q 724 222 806 297 q 534 97 642 147 q 310 32 426 47 q 389 -1 346 19 q 479 -44 432 -21 q 576 -90 526 -67 q 676 -133 626 -114 q 774 -164 731 -154 q 871 -174 818 -174 q 988 -155 942 -174 q 1068 -100 1035 -136 q 1076 -100 1071 -97 q 1079 -110 1082 -103 q 976 -201 1042 -162 q 828 -239 910 -239 q 774 -236 799 -239 q 726 -227 750 -233 q 676 -212 701 -221 q 622 -189 651 -203 q 481 -119 553 -157 q 341 -49 408 -82 q 213 5 274 -17 q 106 25 151 26 q 99 34 99 28 q 111 51 99 40 q 143 67 122 60 q 175 75 164 75 q 217 64 193 75 q 263 53 242 53 q 469 90 369 53 q 644 197 568 128 q 765 360 719 265 q 811 569 811 454 q 796 688 811 633 q 750 783 781 743 q 676 846 719 824 q 574 868 632 868 q 431 835 496 868 q 319 744 367 803 q 247 605 272 686 q 221 425 221 524 q 253 295 221 350 q 350 231 286 240 q 419 240 399 222 q 427 239 424 243 q 428 228 431 235 q 390 203 417 213 q 332 193 364 193 q 196 247 247 193 q 144 404 144 301 q 181 592 144 503 q 278 749 217 681 q 420 856 339 817 q 592 896 501 896 z "},"R":{"ha":1208,"x_min":69,"x_max":1224,"o":"m 1208 106 q 1217 108 1211 108 q 1221 101 1224 108 q 1153 27 1192 54 q 1069 0 1114 0 q 965 35 1008 0 q 891 130 922 71 q 839 267 860 189 q 800 429 818 344 q 806 440 800 439 q 831 449 813 444 q 865 460 850 454 q 878 459 869 461 q 901 455 888 457 q 932 452 914 453 q 974 457 950 451 q 1067 519 1033 471 q 1100 649 1100 567 q 1087 725 1100 689 q 1048 788 1074 761 q 984 833 1022 815 q 894 854 946 850 q 830 740 858 808 q 778 583 801 672 q 681 320 736 431 q 560 139 626 210 q 415 34 493 68 q 253 0 338 0 q 113 44 157 0 q 69 158 69 88 q 106 271 69 222 q 196 339 143 319 q 204 329 210 344 q 124 201 124 286 q 167 92 124 133 q 296 51 210 51 q 417 67 365 51 q 513 133 469 83 q 594 274 556 182 q 674 517 632 365 q 847 854 736 747 q 626 805 718 850 q 467 664 533 760 q 457 664 461 661 q 456 674 453 667 q 631 828 521 769 q 896 894 740 888 q 1010 946 947 929 q 1017 941 1017 946 q 1010 933 1017 936 q 936 894 972 924 q 1040 876 994 894 q 1118 828 1086 858 q 1167 758 1150 797 q 1183 678 1183 719 q 1162 572 1183 619 q 1101 492 1140 525 q 1005 442 1061 458 q 879 433 949 426 q 925 252 900 325 q 980 136 950 179 q 1047 75 1010 93 q 1126 57 1083 57 q 1208 106 1174 57 z "},"S":{"ha":713,"x_min":69,"x_max":792,"o":"m 69 182 q 101 283 69 242 q 186 347 132 325 q 196 343 193 350 q 194 331 199 336 q 155 288 169 317 q 140 217 140 258 q 203 83 140 132 q 365 35 265 35 q 552 86 496 35 q 608 221 608 138 q 576 358 608 299 q 506 469 544 417 q 436 574 468 521 q 404 693 404 626 q 422 768 404 732 q 470 833 439 804 q 544 878 501 861 q 639 894 588 894 q 751 865 710 894 q 792 793 792 835 q 772 735 792 769 q 731 676 751 701 q 721 678 725 674 q 718 688 717 682 q 730 715 725 699 q 735 750 735 731 q 725 792 735 772 q 697 827 715 813 q 656 851 679 842 q 606 860 632 860 q 504 826 536 860 q 472 740 472 793 q 488 662 472 699 q 528 588 504 625 q 578 515 551 551 q 629 438 606 478 q 669 355 653 399 q 685 260 685 311 q 658 158 685 206 q 583 76 631 111 q 474 20 536 40 q 339 0 411 0 q 138 51 207 0 q 69 182 69 103 z "},"Š":{"ha":713,"x_min":69,"x_max":792,"o":"m 600 932 q 583 933 592 926 q 537 982 565 957 q 482 1018 508 1007 q 488 1032 475 1025 q 518 1036 500 1039 q 565 1009 543 1025 q 608 975 588 993 q 631 991 617 982 q 659 1009 644 1000 q 688 1026 674 1018 q 713 1039 703 1033 q 721 1035 719 1039 q 719 1025 722 1031 q 659 985 696 1011 q 600 932 622 960 m 69 182 q 101 283 69 242 q 186 347 132 325 q 196 343 193 350 q 194 331 199 336 q 155 288 169 317 q 140 217 140 258 q 203 83 140 132 q 365 35 265 35 q 552 86 496 35 q 608 221 608 138 q 576 358 608 299 q 506 469 544 417 q 436 574 468 521 q 404 693 404 626 q 422 768 404 732 q 470 833 439 804 q 544 878 501 861 q 639 894 588 894 q 751 865 710 894 q 792 793 792 835 q 772 735 792 769 q 731 676 751 701 q 721 678 725 674 q 718 688 717 682 q 730 715 725 699 q 735 750 735 731 q 725 792 735 772 q 697 827 715 813 q 656 851 679 842 q 606 860 632 860 q 504 826 536 860 q 472 740 472 793 q 488 662 472 699 q 528 588 504 625 q 578 515 551 551 q 629 438 606 478 q 669 355 653 399 q 685 260 685 311 q 658 158 685 206 q 583 76 631 111 q 474 20 536 40 q 339 0 411 0 q 138 51 207 0 q 69 182 69 103 z "},"T":{"ha":824,"x_min":69,"x_max":1157,"o":"m 1147 815 q 1146 794 1157 808 q 1115 766 1133 776 q 1085 758 1096 756 q 1058 767 1071 763 q 1029 775 1044 771 q 963 753 994 772 q 901 698 931 735 q 846 605 872 661 q 794 469 819 549 q 592 117 722 235 q 281 0 463 0 q 125 43 181 0 q 69 154 69 86 q 101 244 69 203 q 176 304 132 285 q 184 299 182 304 q 183 289 186 293 q 150 249 160 271 q 140 197 140 226 q 194 88 140 126 q 344 49 247 49 q 462 66 411 49 q 553 126 513 83 q 627 242 593 169 q 697 426 661 315 q 819 674 747 583 q 986 786 892 765 q 796 824 894 810 q 596 838 697 838 q 460 813 518 838 q 364 748 401 789 q 310 651 326 707 q 301 533 293 596 q 286 531 294 519 q 297 665 278 600 q 363 782 317 731 q 481 864 408 833 q 656 894 554 894 q 925 870 803 894 q 1147 815 1047 846 z "},"U":{"ha":1063,"x_min":81,"x_max":1194,"o":"m 593 804 q 503 829 557 818 q 390 840 449 840 q 251 806 310 840 q 156 716 192 772 q 110 588 121 660 q 115 439 100 515 q 108 431 114 433 q 100 433 103 428 q 97 603 81 521 q 159 751 113 686 q 280 855 206 815 q 453 894 354 894 q 565 882 511 894 q 663 850 619 869 q 658 833 669 844 q 528 702 585 775 q 433 548 472 629 q 373 381 393 467 q 353 213 353 296 q 383 96 353 133 q 474 58 413 58 q 615 106 546 58 q 756 251 683 153 q 908 502 828 350 q 1083 864 989 654 q 1115 885 1089 875 q 1172 894 1142 894 q 1194 885 1194 894 q 1139 802 1169 856 q 1078 681 1108 749 q 1019 538 1047 614 q 968 388 990 461 q 933 251 946 315 q 919 140 919 186 q 972 61 919 61 q 1075 139 1024 61 q 1084 140 1079 143 q 1088 129 1089 136 q 1008 35 1050 69 q 926 0 965 0 q 861 27 886 0 q 836 108 836 54 q 857 274 836 178 q 922 481 878 369 q 672 122 796 243 q 425 0 547 0 q 306 47 349 0 q 264 174 264 94 q 286 331 264 249 q 350 496 308 414 q 453 656 392 578 q 593 804 514 735 z "},"Ú":{"ha":1063,"x_min":81,"x_max":1194,"o":"m 899 1019 q 924 1017 906 1024 q 956 1006 943 1011 q 960 999 958 1003 q 957 993 961 996 q 922 972 943 983 q 876 951 900 961 q 826 931 851 940 q 779 914 800 921 q 774 919 774 914 q 778 929 774 925 q 839 969 806 946 q 899 1019 872 992 m 593 804 q 503 829 557 818 q 390 840 449 840 q 251 806 310 840 q 156 716 192 772 q 110 588 121 660 q 115 439 100 515 q 108 431 114 433 q 100 433 103 428 q 97 603 81 521 q 159 751 113 686 q 280 855 206 815 q 453 894 354 894 q 565 882 511 894 q 663 850 619 869 q 658 833 669 844 q 528 702 585 775 q 433 548 472 629 q 373 381 393 467 q 353 213 353 296 q 383 96 353 133 q 474 58 413 58 q 615 106 546 58 q 756 251 683 153 q 908 502 828 350 q 1083 864 989 654 q 1115 885 1089 875 q 1172 894 1142 894 q 1194 885 1194 894 q 1139 802 1169 856 q 1078 681 1108 749 q 1019 538 1047 614 q 968 388 990 461 q 933 251 946 315 q 919 140 919 186 q 972 61 919 61 q 1075 139 1024 61 q 1084 140 1079 143 q 1088 129 1089 136 q 1008 35 1050 69 q 926 0 965 0 q 861 27 886 0 q 836 108 836 54 q 857 274 836 178 q 922 481 878 369 q 672 122 796 243 q 425 0 547 0 q 306 47 349 0 q 264 174 264 94 q 286 331 264 249 q 350 496 308 414 q 453 656 392 578 q 593 804 514 735 z "},"Û":{"ha":1063,"x_min":81,"x_max":1194,"o":"m 838 1036 q 854 1035 844 1043 q 901 987 872 1011 q 957 950 929 963 q 951 936 964 943 q 921 932 938 929 q 873 959 894 943 q 829 993 851 975 q 807 978 821 986 q 778 960 793 969 q 749 943 764 951 q 725 931 735 935 q 718 943 711 931 q 778 983 742 957 q 838 1036 815 1010 m 593 804 q 503 829 557 818 q 390 840 449 840 q 251 806 310 840 q 156 716 192 772 q 110 588 121 660 q 115 439 100 515 q 108 431 114 433 q 100 433 103 428 q 97 603 81 521 q 159 751 113 686 q 280 855 206 815 q 453 894 354 894 q 565 882 511 894 q 663 850 619 869 q 658 833 669 844 q 528 702 585 775 q 433 548 472 629 q 373 381 393 467 q 353 213 353 296 q 383 96 353 133 q 474 58 413 58 q 615 106 546 58 q 756 251 683 153 q 908 502 828 350 q 1083 864 989 654 q 1115 885 1089 875 q 1172 894 1142 894 q 1194 885 1194 894 q 1139 802 1169 856 q 1078 681 1108 749 q 1019 538 1047 614 q 968 388 990 461 q 933 251 946 315 q 919 140 919 186 q 972 61 919 61 q 1075 139 1024 61 q 1084 140 1079 143 q 1088 129 1089 136 q 1008 35 1050 69 q 926 0 965 0 q 861 27 886 0 q 836 108 836 54 q 857 274 836 178 q 922 481 878 369 q 672 122 796 243 q 425 0 547 0 q 306 47 349 0 q 264 174 264 94 q 286 331 264 249 q 350 496 308 414 q 453 656 392 578 q 593 804 514 735 z "},"Ü":{"ha":1063,"x_min":81,"x_max":1194,"o":"m 796 926 q 781 950 781 926 q 794 983 781 964 q 831 1001 808 1001 q 843 983 843 1001 q 829 945 843 964 q 796 926 815 926 m 903 926 q 886 950 886 926 q 900 983 886 964 q 935 1001 914 1001 q 947 983 947 1001 q 933 945 947 964 q 903 926 919 926 m 593 804 q 503 829 557 818 q 390 840 449 840 q 251 806 310 840 q 156 716 192 772 q 110 588 121 660 q 115 439 100 515 q 108 431 114 433 q 100 433 103 428 q 97 603 81 521 q 159 751 113 686 q 280 855 206 815 q 453 894 354 894 q 565 882 511 894 q 663 850 619 869 q 658 833 669 844 q 528 702 585 775 q 433 548 472 629 q 373 381 393 467 q 353 213 353 296 q 383 96 353 133 q 474 58 413 58 q 615 106 546 58 q 756 251 683 153 q 908 502 828 350 q 1083 864 989 654 q 1115 885 1089 875 q 1172 894 1142 894 q 1194 885 1194 894 q 1139 802 1169 856 q 1078 681 1108 749 q 1019 538 1047 614 q 968 388 990 461 q 933 251 946 315 q 919 140 919 186 q 972 61 919 61 q 1075 139 1024 61 q 1084 140 1079 143 q 1088 129 1089 136 q 1008 35 1050 69 q 926 0 965 0 q 861 27 886 0 q 836 108 836 54 q 857 274 836 178 q 922 481 878 369 q 672 122 796 243 q 425 0 547 0 q 306 47 349 0 q 264 174 264 94 q 286 331 264 249 q 350 496 308 414 q 453 656 392 578 q 593 804 514 735 z "},"Ù":{"ha":1063,"x_min":81,"x_max":1194,"o":"m 961 929 q 960 922 964 926 q 950 917 957 917 q 910 929 933 921 q 863 947 886 938 q 817 967 839 957 q 779 985 794 976 q 776 990 776 986 q 779 996 776 993 q 813 1013 793 1007 q 835 1015 832 1018 q 891 973 858 996 q 961 929 924 950 m 593 804 q 503 829 557 818 q 390 840 449 840 q 251 806 310 840 q 156 716 192 772 q 110 588 121 660 q 115 439 100 515 q 108 431 114 433 q 100 433 103 428 q 97 603 81 521 q 159 751 113 686 q 280 855 206 815 q 453 894 354 894 q 565 882 511 894 q 663 850 619 869 q 658 833 669 844 q 528 702 585 775 q 433 548 472 629 q 373 381 393 467 q 353 213 353 296 q 383 96 353 133 q 474 58 413 58 q 615 106 546 58 q 756 251 683 153 q 908 502 828 350 q 1083 864 989 654 q 1115 885 1089 875 q 1172 894 1142 894 q 1194 885 1194 894 q 1139 802 1169 856 q 1078 681 1108 749 q 1019 538 1047 614 q 968 388 990 461 q 933 251 946 315 q 919 140 919 186 q 972 61 919 61 q 1075 139 1024 61 q 1084 140 1079 143 q 1088 129 1089 136 q 1008 35 1050 69 q 926 0 965 0 q 861 27 886 0 q 836 108 836 54 q 857 274 836 178 q 922 481 878 369 q 672 122 796 243 q 425 0 547 0 q 306 47 349 0 q 264 174 264 94 q 286 331 264 249 q 350 496 308 414 q 453 656 392 578 q 593 804 514 735 z "},"V":{"ha":964,"x_min":97,"x_max":1096,"o":"m 1096 731 q 1047 533 1096 624 q 917 356 997 442 q 738 184 838 271 q 536 -1 638 97 q 524 42 511 -1 q 567 213 550 122 q 588 392 583 303 q 582 561 592 481 q 547 703 572 642 q 476 802 521 765 q 367 839 432 839 q 211 765 272 839 q 111 538 150 690 q 103 533 108 532 q 97 540 97 535 q 142 683 115 618 q 208 795 169 749 q 297 868 246 842 q 415 894 349 894 q 525 863 479 894 q 601 775 571 831 q 646 644 632 719 q 660 480 660 568 q 645 295 660 392 q 604 101 631 199 q 779 253 701 182 q 910 392 857 324 q 991 532 963 461 q 1019 683 1019 603 q 992 789 1019 749 q 924 829 964 829 q 884 817 899 829 q 858 781 869 806 q 844 790 844 775 q 865 828 851 810 q 892 862 878 847 q 922 885 907 876 q 950 894 938 894 q 1010 881 983 894 q 1056 844 1038 867 q 1085 791 1075 821 q 1096 731 1096 761 z "},"W":{"ha":1174,"x_min":96,"x_max":1349,"o":"m 800 47 q 798 219 806 128 q 783 395 790 310 q 776 551 776 481 q 799 661 776 621 q 710 533 751 596 q 631 401 669 469 q 555 258 592 333 q 479 93 518 182 q 452 22 458 44 q 433 0 446 0 q 419 10 422 0 q 426 47 415 21 q 489 242 465 144 q 519 426 513 339 q 518 589 526 514 q 485 719 510 664 q 422 806 461 775 q 328 838 382 838 q 235 815 275 838 q 169 756 196 793 q 128 672 142 719 q 114 571 114 624 q 105 561 111 563 q 99 567 99 560 q 115 694 96 633 q 171 800 135 754 q 260 873 207 846 q 381 900 314 900 q 516 846 467 900 q 581 699 565 792 q 581 485 597 607 q 517 226 564 363 q 600 389 554 306 q 698 551 646 472 q 807 702 750 631 q 922 828 864 774 q 933 817 929 831 q 932 794 938 803 q 893 764 910 785 q 860 687 869 733 q 851 584 851 640 q 856 466 850 528 q 867 342 861 404 q 875 222 872 281 q 872 115 878 164 q 950 211 907 165 q 1038 303 993 257 q 1124 395 1082 349 q 1198 494 1165 442 q 1251 605 1231 546 q 1271 733 1271 664 q 1258 806 1271 779 q 1221 832 1244 832 q 1192 815 1204 832 q 1169 778 1181 799 q 1161 778 1165 775 q 1157 788 1157 781 q 1201 861 1172 829 q 1257 893 1229 893 q 1326 857 1303 893 q 1349 768 1349 821 q 1323 622 1349 688 q 1256 498 1297 556 q 1160 388 1214 440 q 1051 281 1107 335 q 942 167 996 226 q 847 36 889 107 q 827 10 836 19 q 807 0 818 0 q 798 4 800 0 q 796 15 796 8 q 798 31 796 22 q 800 47 800 39 z "},"X":{"ha":1129,"x_min":69,"x_max":1182,"o":"m 1129 894 q 1167 876 1153 894 q 1182 819 1182 857 q 1167 742 1182 786 q 1131 665 1153 697 q 1120 665 1125 661 q 1115 675 1115 668 q 1129 739 1129 708 q 1114 794 1129 775 q 1061 813 1099 813 q 965 789 1014 813 q 870 723 917 765 q 781 622 824 681 q 701 492 738 563 q 753 317 724 394 q 820 185 783 239 q 901 101 857 131 q 1000 72 946 72 q 1067 96 1040 72 q 1111 160 1094 119 q 1120 160 1115 164 q 1125 147 1125 157 q 1050 32 1088 64 q 964 0 1013 0 q 854 31 904 0 q 763 117 804 63 q 692 242 722 171 q 644 394 663 314 q 421 99 540 197 q 182 0 301 0 q 99 22 129 0 q 69 81 69 44 q 76 117 69 94 q 93 167 82 140 q 119 221 104 193 q 154 272 135 249 q 165 274 158 278 q 169 263 172 271 q 140 201 147 231 q 136 143 132 172 q 166 93 140 111 q 240 75 192 75 q 352 99 299 75 q 454 169 406 124 q 549 281 503 215 q 638 428 594 346 q 608 589 618 518 q 588 709 597 660 q 565 785 578 758 q 529 811 553 811 q 476 781 501 811 q 431 713 450 751 q 418 709 424 706 q 414 722 413 713 q 450 786 429 756 q 493 841 471 817 q 536 880 515 865 q 574 894 557 894 q 628 862 610 894 q 656 777 646 829 q 674 658 667 725 q 694 524 681 592 q 783 674 733 606 q 890 791 833 742 q 1008 867 947 840 q 1129 894 1068 894 z "},"Y":{"ha":972,"x_min":10,"x_max":1269,"o":"m 617 894 q 656 882 640 894 q 676 841 672 869 q 674 766 681 813 q 644 651 667 719 q 594 497 617 565 q 561 358 572 428 q 569 268 553 299 q 640 238 586 238 q 892 398 761 238 q 1179 872 1022 558 q 1215 890 1194 886 q 1253 894 1235 894 q 1267 881 1269 894 q 998 372 1124 575 q 754 46 872 168 q 521 -127 636 -76 q 282 -178 406 -178 q 81 -111 151 -178 q 10 61 10 -44 q 31 164 10 114 q 94 255 53 214 q 194 324 135 296 q 332 360 254 351 q 338 353 339 358 q 331 340 338 347 q 222 311 267 332 q 147 258 176 290 q 105 185 118 226 q 92 99 92 144 q 156 -67 92 -7 q 340 -128 219 -128 q 509 -97 429 -128 q 665 5 589 -67 q 819 194 742 76 q 983 488 897 313 q 898 369 944 424 q 801 273 851 314 q 697 209 750 232 q 593 186 644 186 q 497 222 526 186 q 476 322 468 257 q 510 475 488 399 q 556 622 533 551 q 587 734 578 692 q 594 800 596 776 q 583 831 593 824 q 556 839 572 839 q 495 815 524 839 q 451 765 467 790 q 441 765 446 761 q 438 776 436 769 q 470 820 450 799 q 514 858 490 842 q 564 885 538 875 q 617 894 590 894 z "},"Ý":{"ha":972,"x_min":10,"x_max":1269,"o":"m 968 1019 q 994 1017 975 1024 q 1025 1006 1013 1011 q 1029 999 1028 1003 q 1026 993 1031 996 q 991 972 1013 983 q 945 951 969 961 q 895 931 921 940 q 849 914 869 921 q 843 919 843 914 q 847 929 843 925 q 908 969 875 946 q 968 1019 942 992 m 617 894 q 656 882 640 894 q 676 841 672 869 q 674 766 681 813 q 644 651 667 719 q 594 497 617 565 q 561 358 572 428 q 569 268 553 299 q 640 238 586 238 q 892 398 761 238 q 1179 872 1022 558 q 1215 890 1194 886 q 1253 894 1235 894 q 1267 881 1269 894 q 998 372 1124 575 q 754 46 872 168 q 521 -127 636 -76 q 282 -178 406 -178 q 81 -111 151 -178 q 10 61 10 -44 q 31 164 10 114 q 94 255 53 214 q 194 324 135 296 q 332 360 254 351 q 338 353 339 358 q 331 340 338 347 q 222 311 267 332 q 147 258 176 290 q 105 185 118 226 q 92 99 92 144 q 156 -67 92 -7 q 340 -128 219 -128 q 509 -97 429 -128 q 665 5 589 -67 q 819 194 742 76 q 983 488 897 313 q 898 369 944 424 q 801 273 851 314 q 697 209 750 232 q 593 186 644 186 q 497 222 526 186 q 476 322 468 257 q 510 475 488 399 q 556 622 533 551 q 587 734 578 692 q 594 800 596 776 q 583 831 593 824 q 556 839 572 839 q 495 815 524 839 q 451 765 467 790 q 441 765 446 761 q 438 776 436 769 q 470 820 450 799 q 514 858 490 842 q 564 885 538 875 q 617 894 590 894 z "},"Ÿ":{"ha":972,"x_min":10,"x_max":1269,"o":"m 860 926 q 844 950 844 926 q 858 983 844 964 q 894 1001 872 1001 q 907 983 907 1001 q 893 945 907 964 q 860 926 879 926 m 967 926 q 950 950 950 926 q 964 983 950 964 q 999 1001 978 1001 q 1011 983 1011 1001 q 997 945 1011 964 q 967 926 983 926 m 617 894 q 656 882 640 894 q 676 841 672 869 q 674 766 681 813 q 644 651 667 719 q 594 497 617 565 q 561 358 572 428 q 569 268 553 299 q 640 238 586 238 q 892 398 761 238 q 1179 872 1022 558 q 1215 890 1194 886 q 1253 894 1235 894 q 1267 881 1269 894 q 998 372 1124 575 q 754 46 872 168 q 521 -127 636 -76 q 282 -178 406 -178 q 81 -111 151 -178 q 10 61 10 -44 q 31 164 10 114 q 94 255 53 214 q 194 324 135 296 q 332 360 254 351 q 338 353 339 358 q 331 340 338 347 q 222 311 267 332 q 147 258 176 290 q 105 185 118 226 q 92 99 92 144 q 156 -67 92 -7 q 340 -128 219 -128 q 509 -97 429 -128 q 665 5 589 -67 q 819 194 742 76 q 983 488 897 313 q 898 369 944 424 q 801 273 851 314 q 697 209 750 232 q 593 186 644 186 q 497 222 526 186 q 476 322 468 257 q 510 475 488 399 q 556 622 533 551 q 587 734 578 692 q 594 800 596 776 q 583 831 593 824 q 556 839 572 839 q 495 815 524 839 q 451 765 467 790 q 441 765 446 761 q 438 776 436 769 q 470 820 450 799 q 514 858 490 842 q 564 885 538 875 q 617 894 590 894 z "},"Z":{"ha":868,"x_min":68,"x_max":996,"o":"m 606 894 q 733 881 675 894 q 863 846 792 868 q 914 835 897 835 q 950 853 931 836 q 983 860 957 860 q 992 850 996 860 q 809 680 904 768 q 616 499 714 592 q 419 314 518 407 q 228 132 321 221 q 295 126 261 135 q 372 105 329 117 q 472 83 415 93 q 607 72 529 72 q 757 113 703 72 q 846 233 811 153 q 858 232 850 236 q 863 221 865 228 q 804 119 835 163 q 735 47 774 76 q 648 4 697 18 q 536 -10 599 -10 q 446 -5 486 -10 q 372 8 406 0 q 306 27 338 17 q 239 47 274 38 q 167 50 196 60 q 99 0 138 40 q 79 5 90 -3 q 72 19 68 13 q 285 222 190 131 q 469 398 381 313 q 649 569 558 483 q 850 758 740 656 q 708 800 785 781 q 551 819 631 819 q 428 776 468 819 q 375 650 389 733 q 365 645 371 643 q 357 654 358 647 q 385 751 367 707 q 432 828 403 796 q 503 877 461 860 q 606 894 546 894 z "},"Ž":{"ha":822,"x_min":22,"x_max":950,"o":"m 696 932 q 679 933 688 926 q 633 982 661 957 q 578 1018 604 1007 q 583 1032 571 1025 q 614 1036 596 1039 q 661 1009 639 1025 q 704 975 683 993 q 726 991 713 982 q 755 1009 740 1000 q 784 1026 769 1018 q 808 1039 799 1033 q 817 1035 815 1039 q 815 1025 818 1031 q 755 985 792 1011 q 696 932 718 960 m 560 894 q 688 881 629 894 q 817 846 746 868 q 868 835 851 835 q 904 853 885 836 q 938 860 911 860 q 946 850 950 860 q 763 680 858 768 q 570 499 668 592 q 374 314 472 407 q 182 132 275 221 q 249 126 215 135 q 326 105 283 117 q 426 83 369 93 q 561 72 483 72 q 711 113 657 72 q 800 233 765 153 q 812 232 804 236 q 817 221 819 228 q 758 119 789 163 q 690 47 728 76 q 602 4 651 18 q 490 -10 553 -10 q 400 -5 440 -10 q 326 8 360 0 q 260 27 292 17 q 193 47 228 38 q 121 50 150 60 q 53 0 92 40 q 33 5 44 -3 q 26 19 22 13 q 240 222 144 131 q 424 398 335 313 q 603 569 513 483 q 804 758 694 656 q 662 800 739 781 q 506 819 585 819 q 383 776 422 819 q 329 650 343 733 q 319 645 325 643 q 311 654 313 647 q 339 751 321 707 q 386 828 357 796 q 458 877 415 860 q 560 894 500 894 z "},"a":{"ha":454,"x_min":43,"x_max":453,"o":"m 422 88 q 429 88 425 90 q 432 79 433 85 q 376 22 407 43 q 318 0 346 0 q 277 45 286 0 q 286 153 268 90 q 205 51 249 93 q 113 0 161 8 q 61 31 79 0 q 43 101 43 61 q 65 192 43 147 q 124 274 88 238 q 206 333 161 310 q 297 356 251 356 q 374 332 346 356 q 409 349 388 342 q 447 356 431 356 q 453 349 453 356 q 398 263 421 310 q 363 174 375 217 q 347 99 350 132 q 353 53 344 65 q 376 48 360 44 q 422 88 393 51 m 156 51 q 197 72 172 51 q 247 128 221 93 q 299 206 274 163 q 344 293 325 249 q 319 322 339 311 q 272 333 299 333 q 213 317 240 333 q 165 273 185 301 q 133 205 144 244 q 121 118 121 165 q 131 69 121 88 q 156 51 142 51 z "},"á":{"ha":454,"x_min":43,"x_max":453,"o":"m 422 88 q 429 88 425 90 q 432 79 433 85 q 376 22 407 43 q 318 0 346 0 q 277 45 286 0 q 286 153 268 90 q 205 51 249 93 q 113 0 161 8 q 61 31 79 0 q 43 101 43 61 q 65 192 43 147 q 124 274 88 238 q 206 333 161 310 q 297 356 251 356 q 374 332 346 356 q 409 349 388 342 q 447 356 431 356 q 453 349 453 356 q 398 263 421 310 q 363 174 375 217 q 347 99 350 132 q 353 53 344 65 q 376 48 360 44 q 422 88 393 51 m 156 51 q 197 72 172 51 q 247 128 221 93 q 299 206 274 163 q 344 293 325 249 q 319 322 339 311 q 272 333 299 333 q 213 317 240 333 q 165 273 185 301 q 133 205 144 244 q 121 118 121 165 q 131 69 121 88 q 156 51 142 51 m 335 532 q 365 530 344 538 q 404 514 385 522 q 409 508 408 513 q 407 501 410 504 q 373 483 393 492 q 331 465 353 474 q 286 449 308 457 q 246 436 264 442 q 240 442 240 436 q 244 451 240 447 q 290 486 264 464 q 335 532 315 508 z "},"â":{"ha":454,"x_min":43,"x_max":453,"o":"m 422 88 q 429 88 425 90 q 432 79 433 85 q 376 22 407 43 q 318 0 346 0 q 277 45 286 0 q 286 153 268 90 q 205 51 249 93 q 113 0 161 8 q 61 31 79 0 q 43 101 43 61 q 65 192 43 147 q 124 274 88 238 q 206 333 161 310 q 297 356 251 356 q 374 332 346 356 q 409 349 388 342 q 447 356 431 356 q 453 349 453 356 q 398 263 421 310 q 363 174 375 217 q 347 99 350 132 q 353 53 344 65 q 376 48 360 44 q 422 88 393 51 m 156 51 q 197 72 172 51 q 247 128 221 93 q 299 206 274 163 q 344 293 325 249 q 319 322 339 311 q 272 333 299 333 q 213 317 240 333 q 165 273 185 301 q 133 205 144 244 q 121 118 121 165 q 131 69 121 88 q 156 51 142 51 m 297 549 q 314 547 304 556 q 355 506 331 524 q 406 475 379 488 q 398 458 413 468 q 365 451 383 449 q 322 471 342 461 q 282 493 301 481 q 203 446 249 469 q 195 450 197 446 q 196 460 193 454 q 247 497 219 474 q 297 549 275 521 z "},"´":{"ha":218,"x_min":28,"x_max":197,"o":"m 122 532 q 152 530 132 538 q 192 514 172 522 q 197 508 196 513 q 194 501 197 504 q 160 483 181 492 q 118 465 140 474 q 74 449 96 457 q 33 436 51 442 q 28 442 28 436 q 32 451 28 447 q 77 486 51 464 q 122 532 103 508 z "},"ä":{"ha":454,"x_min":43,"x_max":453,"o":"m 422 88 q 429 88 425 90 q 432 79 433 85 q 376 22 407 43 q 318 0 346 0 q 277 45 286 0 q 286 153 268 90 q 205 51 249 93 q 113 0 161 8 q 61 31 79 0 q 43 101 43 61 q 65 192 43 147 q 124 274 88 238 q 206 333 161 310 q 297 356 251 356 q 374 332 346 356 q 409 349 388 342 q 447 356 431 356 q 453 349 453 356 q 398 263 421 310 q 363 174 375 217 q 347 99 350 132 q 353 53 344 65 q 376 48 360 44 q 422 88 393 51 m 156 51 q 197 72 172 51 q 247 128 221 93 q 299 206 274 163 q 344 293 325 249 q 319 322 339 311 q 272 333 299 333 q 213 317 240 333 q 165 273 185 301 q 133 205 144 244 q 121 118 121 165 q 131 69 121 88 q 156 51 142 51 m 219 439 q 203 448 210 439 q 196 469 196 457 q 201 488 196 478 q 213 508 206 499 q 231 525 221 518 q 254 532 242 532 q 267 524 261 532 q 274 507 274 515 q 269 484 274 496 q 256 463 264 472 q 239 446 249 453 q 219 439 229 439 m 346 439 q 329 448 336 439 q 322 469 322 457 q 327 488 322 478 q 340 508 332 499 q 359 525 349 518 q 382 532 369 532 q 395 524 389 532 q 401 507 401 515 q 397 484 401 496 q 383 463 392 472 q 365 446 375 453 q 346 439 356 439 z "},"æ":{"ha":582,"x_min":43,"x_max":582,"o":"m 582 286 q 372 176 582 207 q 371 149 371 164 q 371 119 371 135 q 387 65 371 85 q 439 46 403 46 q 493 61 465 46 q 539 100 521 76 q 547 98 544 103 q 547 88 550 93 q 477 26 519 51 q 386 0 435 0 q 316 24 338 0 q 294 93 294 49 q 318 197 294 143 q 219 63 269 118 q 111 0 169 7 q 61 31 79 0 q 43 101 43 61 q 65 192 43 147 q 124 274 88 238 q 206 333 161 310 q 297 356 251 356 q 340 349 322 356 q 374 332 358 343 q 408 358 386 343 q 446 372 429 372 q 453 365 456 372 q 422 326 436 346 q 500 356 460 356 q 559 333 536 356 q 582 286 582 311 m 506 269 q 493 305 506 290 q 461 319 481 319 q 407 290 429 319 q 375 197 385 260 q 474 223 442 204 q 506 269 506 242 m 156 51 q 195 72 171 51 q 247 128 219 93 q 299 206 274 163 q 344 293 325 249 q 319 322 339 311 q 272 333 299 333 q 213 317 240 333 q 165 273 185 301 q 133 205 144 244 q 121 118 121 165 q 131 69 121 88 q 156 51 142 51 z "},"à":{"ha":454,"x_min":43,"x_max":453,"o":"m 422 88 q 429 88 425 90 q 432 79 433 85 q 376 22 407 43 q 318 0 346 0 q 277 45 286 0 q 286 153 268 90 q 205 51 249 93 q 113 0 161 8 q 61 31 79 0 q 43 101 43 61 q 65 192 43 147 q 124 274 88 238 q 206 333 161 310 q 297 356 251 356 q 374 332 346 356 q 409 349 388 342 q 447 356 431 356 q 453 349 453 356 q 398 263 421 310 q 363 174 375 217 q 347 99 350 132 q 353 53 344 65 q 376 48 360 44 q 422 88 393 51 m 156 51 q 197 72 172 51 q 247 128 221 93 q 299 206 274 163 q 344 293 325 249 q 319 322 339 311 q 272 333 299 333 q 213 317 240 333 q 165 273 185 301 q 133 205 144 244 q 121 118 121 165 q 131 69 121 88 q 156 51 142 51 m 381 451 q 381 444 383 449 q 371 439 378 439 q 293 465 335 449 q 224 500 251 482 q 221 505 221 501 q 224 511 221 508 q 263 533 242 526 q 289 536 285 540 q 331 493 306 517 q 381 451 356 469 z "},"&":{"ha":728,"x_min":28,"x_max":721,"o":"m 647 356 q 701 330 682 356 q 721 272 721 304 q 715 262 721 265 q 704 265 710 258 q 674 290 693 281 q 629 300 656 300 q 571 284 596 300 q 523 243 546 268 q 479 187 500 218 q 433 125 458 156 q 515 74 469 93 q 614 56 561 56 q 660 66 642 56 q 692 92 679 76 q 703 96 696 99 q 704 81 711 93 q 651 22 686 44 q 563 0 617 0 q 465 19 510 0 q 383 71 419 38 q 303 19 349 39 q 194 0 258 0 q 73 38 118 0 q 28 142 28 75 q 46 219 28 188 q 93 276 64 251 q 159 318 122 300 q 233 356 196 336 q 225 413 228 385 q 222 468 222 442 q 235 536 222 501 q 269 598 247 571 q 319 642 290 625 q 378 660 347 660 q 440 635 419 660 q 460 574 460 611 q 446 503 460 533 q 409 449 432 474 q 356 406 386 425 q 296 368 326 386 q 342 242 311 301 q 418 138 374 182 q 471 210 446 172 q 522 281 496 249 q 578 335 549 314 q 647 356 608 356 m 278 510 q 290 388 278 450 q 365 453 335 415 q 394 554 394 492 q 382 603 394 583 q 342 624 369 624 q 294 598 310 624 q 278 510 278 572 m 106 172 q 140 75 106 110 q 244 40 174 40 q 312 53 282 40 q 368 86 342 65 q 287 200 319 135 q 238 336 254 265 q 187 304 211 321 q 144 268 163 288 q 116 225 126 249 q 106 172 106 201 z "},"å":{"ha":454,"x_min":43,"x_max":453,"o":"m 422 88 q 429 88 425 90 q 432 79 433 85 q 376 22 407 43 q 318 0 346 0 q 277 45 286 0 q 286 153 268 90 q 205 51 249 93 q 113 0 161 8 q 61 31 79 0 q 43 101 43 61 q 65 192 43 147 q 124 274 88 238 q 206 333 161 310 q 297 356 251 356 q 374 332 346 356 q 409 349 388 342 q 447 356 431 356 q 453 349 453 356 q 398 263 421 310 q 363 174 375 217 q 347 99 350 132 q 353 53 344 65 q 376 48 360 44 q 422 88 393 51 m 156 51 q 197 72 172 51 q 247 128 221 93 q 299 206 274 163 q 344 293 325 249 q 319 322 339 311 q 272 333 299 333 q 213 317 240 333 q 165 273 185 301 q 133 205 144 244 q 121 118 121 165 q 131 69 121 88 q 156 51 142 51 m 296 521 q 269 510 279 521 q 260 479 260 499 q 269 456 260 465 q 292 446 278 446 q 317 457 307 446 q 326 488 326 468 q 319 510 326 500 q 296 521 311 521 m 275 426 q 246 438 256 426 q 236 467 236 450 q 259 517 236 494 q 313 540 282 540 q 340 528 331 540 q 350 500 350 517 q 328 449 350 472 q 275 426 306 426 z "},"@":{"ha":713,"x_min":69,"x_max":657,"o":"m 482 104 q 574 145 538 104 q 611 265 611 186 q 597 343 611 306 q 553 409 582 381 q 483 454 525 438 q 383 471 440 471 q 278 453 325 471 q 196 399 231 435 q 142 310 161 364 q 124 186 124 257 q 140 88 124 133 q 189 10 157 43 q 267 -41 221 -22 q 375 -60 314 -60 q 503 -33 454 -60 q 581 43 553 -6 q 588 42 585 47 q 590 31 592 38 q 489 -69 556 -32 q 336 -106 422 -106 q 142 -37 214 -106 q 69 161 69 32 q 94 292 69 229 q 166 401 119 354 q 279 477 213 449 q 429 506 346 506 q 521 488 479 506 q 593 442 563 471 q 640 374 624 413 q 657 294 657 336 q 637 206 657 249 q 585 129 617 163 q 515 76 554 96 q 438 57 476 57 q 389 119 389 57 q 404 190 389 151 q 340 109 374 143 q 271 68 307 75 q 229 88 246 68 q 213 149 213 108 q 230 223 213 186 q 276 289 247 260 q 340 336 304 318 q 413 354 375 354 q 448 349 433 354 q 475 336 463 344 q 500 347 482 342 q 528 351 518 351 q 532 346 535 351 q 497 295 513 322 q 471 241 482 268 q 454 190 460 214 q 449 149 449 165 q 482 104 449 104 m 301 113 q 333 129 314 113 q 371 172 351 146 q 410 230 390 197 q 444 296 429 263 q 426 322 439 311 q 392 332 413 332 q 348 320 369 332 q 310 287 326 308 q 283 235 293 265 q 274 168 274 206 q 282 128 274 144 q 301 113 290 113 z "},"ã":{"ha":454,"x_min":43,"x_max":453,"o":"m 422 88 q 429 88 425 90 q 432 79 433 85 q 376 22 407 43 q 318 0 346 0 q 277 45 286 0 q 286 153 268 90 q 205 51 249 93 q 113 0 161 8 q 61 31 79 0 q 43 101 43 61 q 65 192 43 147 q 124 274 88 238 q 206 333 161 310 q 297 356 251 356 q 374 332 346 356 q 409 349 388 342 q 447 356 431 356 q 453 349 453 356 q 398 263 421 310 q 363 174 375 217 q 347 99 350 132 q 353 53 344 65 q 376 48 360 44 q 422 88 393 51 m 156 51 q 197 72 172 51 q 247 128 221 93 q 299 206 274 163 q 344 293 325 249 q 319 322 339 311 q 272 333 299 333 q 213 317 240 333 q 165 273 185 301 q 133 205 144 244 q 121 118 121 165 q 131 69 121 88 q 156 51 142 51 m 167 461 q 206 498 183 481 q 243 519 228 515 q 262 517 253 522 q 282 506 271 513 q 307 494 293 500 q 342 488 321 488 q 377 497 363 488 q 403 524 392 506 q 413 524 407 526 q 417 518 418 522 q 380 473 401 493 q 319 453 358 453 q 288 458 301 453 q 263 470 274 464 q 244 481 253 476 q 226 486 235 486 q 204 476 215 485 q 178 453 193 468 q 167 461 164 450 z "},"b":{"ha":443,"x_min":101,"x_max":815,"o":"m 731 1050 q 775 1038 757 1050 q 803 1007 793 1026 q 814 963 813 988 q 810 913 815 939 q 797 914 801 907 q 768 962 793 942 q 694 982 743 982 q 550 943 617 982 q 424 817 483 904 q 312 592 365 731 q 207 256 258 454 q 234 288 217 271 q 274 321 251 306 q 320 346 296 336 q 368 356 344 356 q 415 329 397 356 q 433 267 433 303 q 407 166 433 214 q 340 81 381 118 q 253 22 300 44 q 164 0 206 0 q 115 17 129 0 q 101 64 101 33 q 112 156 101 103 q 140 270 122 210 q 184 397 158 331 q 239 526 210 463 q 478 915 357 781 q 731 1050 600 1050 m 321 310 q 276 297 300 310 q 232 256 253 283 q 197 189 211 229 q 178 96 182 149 q 185 53 175 65 q 217 40 196 40 q 269 58 243 40 q 317 103 296 75 q 352 167 339 132 q 365 236 365 201 q 353 293 365 276 q 321 310 340 310 z "},"[":{"ha":460,"x_min":110,"x_max":621,"o":"m 344 850 q 367 865 347 865 q 428 865 400 865 q 485 865 457 865 q 542 865 513 865 q 608 863 572 864 q 614 850 621 860 q 590 839 607 840 q 513 842 557 842 q 428 842 468 842 q 301 340 360 583 q 204 -110 243 97 q 245 -110 228 -110 q 278 -111 263 -111 q 312 -110 294 -111 q 354 -110 329 -110 q 360 -123 363 -114 q 333 -133 357 -132 q 281 -133 303 -133 q 238 -133 260 -133 q 190 -131 215 -132 q 125 -131 164 -131 q 110 -117 110 -131 q 234 376 172 126 q 344 850 296 626 z "},"]":{"ha":489,"x_min":13,"x_max":524,"o":"m 289 -119 q 282 -131 286 -128 q 267 -133 278 -133 q 205 -133 233 -133 q 149 -133 176 -133 q 90 -133 121 -133 q 25 -132 60 -132 q 19 -119 13 -129 q 43 -107 26 -108 q 121 -110 76 -110 q 206 -110 165 -111 q 333 391 274 149 q 429 840 392 633 q 388 842 406 842 q 356 843 371 843 q 323 842 340 843 q 281 842 306 842 q 274 853 271 844 q 300 865 276 863 q 352 865 331 865 q 396 864 374 864 q 444 863 418 864 q 508 861 469 863 q 524 849 524 861 q 461 603 493 728 q 399 356 429 479 q 341 112 369 232 q 289 -119 313 -8 z "},"c":{"ha":318,"x_min":42,"x_max":325,"o":"m 275 231 q 267 238 267 228 q 263 289 276 267 q 215 311 250 311 q 144 256 171 311 q 117 111 117 200 q 168 46 117 46 q 220 63 192 46 q 272 108 249 81 q 282 107 278 111 q 283 97 286 103 q 206 26 249 53 q 114 0 163 0 q 63 22 83 0 q 42 82 42 43 q 62 180 42 131 q 114 268 82 229 q 183 331 146 307 q 257 356 221 356 q 307 338 289 356 q 325 297 325 319 q 320 279 325 289 q 308 260 315 269 q 291 242 300 250 q 275 231 282 233 z "},"ˇ":{"ha":272,"x_min":25,"x_max":244,"o":"m 140 456 q 124 457 132 447 q 83 499 107 481 q 32 529 58 517 q 40 546 25 536 q 72 553 54 556 q 116 533 96 543 q 156 511 136 524 q 235 558 189 535 q 242 554 240 558 q 242 544 244 550 q 190 507 218 531 q 140 456 163 483 z "},"ç":{"ha":318,"x_min":42,"x_max":325,"o":"m 274 231 q 268 231 271 229 q 265 236 265 233 q 263 289 276 267 q 214 311 249 311 q 142 256 169 311 q 115 110 115 200 q 167 46 115 46 q 219 63 192 46 q 271 107 247 79 q 281 106 276 110 q 282 96 285 103 q 234 48 261 69 q 185 15 207 26 q 151 -12 158 4 q 151 -47 144 -29 q 138 -122 164 -82 q 58 -185 113 -162 q 54 -178 54 -183 q 57 -169 54 -172 q 108 -128 96 -150 q 110 -75 119 -106 q 112 -32 103 -56 q 143 3 121 -8 q 128 0 136 0 q 113 0 119 0 q 62 22 82 0 q 42 82 42 43 q 62 180 42 131 q 113 268 82 229 q 182 331 144 307 q 256 356 219 356 q 306 338 288 356 q 325 297 325 319 q 319 279 325 289 q 306 260 314 269 q 290 242 299 250 q 274 231 281 233 z "},"ˆ":{"ha":272,"x_min":29,"x_max":249,"o":"m 133 549 q 150 547 140 556 q 191 506 167 524 q 242 475 215 488 q 234 458 249 468 q 201 451 219 449 q 158 471 178 461 q 118 493 138 481 q 39 446 85 469 q 31 450 33 446 q 32 460 29 454 q 83 497 56 474 q 133 549 111 521 z "},":":{"ha":222,"x_min":28,"x_max":199,"o":"m 56 0 q 35 7 43 0 q 28 33 28 14 q 33 53 28 42 q 49 74 39 64 q 71 92 58 85 q 96 99 83 99 q 111 92 104 99 q 118 76 118 86 q 113 51 118 65 q 97 26 107 38 q 76 8 88 15 q 56 0 65 0 m 136 257 q 117 264 124 257 q 110 290 110 271 q 115 310 110 299 q 130 331 121 321 q 151 349 139 342 q 176 356 164 356 q 192 349 185 356 q 199 333 199 343 q 193 308 199 322 q 178 283 188 294 q 157 265 168 272 q 136 257 146 257 z "},",":{"ha":169,"x_min":1,"x_max":135,"o":"m 117 97 q 129 80 124 94 q 135 49 135 65 q 100 -44 135 3 q 10 -122 65 -90 q 3 -118 4 -122 q 7 -107 1 -114 q 55 -61 36 -89 q 74 -1 74 -33 q 58 36 74 29 q 59 51 54 40 q 74 72 64 61 q 95 90 83 82 q 117 97 107 97 z "},"d":{"ha":440,"x_min":42,"x_max":917,"o":"m 858 1050 q 892 1039 879 1050 q 911 1010 906 1028 q 914 969 917 992 q 900 924 911 946 q 893 922 897 921 q 888 928 889 922 q 876 959 890 949 q 838 969 863 969 q 693 919 763 969 q 562 766 624 869 q 448 503 500 663 q 354 125 396 344 q 353 73 347 94 q 374 51 358 51 q 403 64 389 51 q 428 96 417 76 q 435 96 431 99 q 439 88 440 93 q 419 58 432 74 q 390 30 406 43 q 356 8 374 17 q 325 0 339 0 q 282 22 294 0 q 272 72 269 44 q 279 117 275 96 q 289 161 283 138 q 211 58 261 101 q 113 0 161 14 q 61 24 81 0 q 42 85 42 47 q 61 188 42 139 q 114 275 81 238 q 193 335 147 313 q 292 357 239 357 q 343 347 321 357 q 403 503 368 422 q 479 663 438 585 q 567 811 521 740 q 663 935 614 882 q 761 1019 711 988 q 858 1050 811 1050 m 157 54 q 193 70 172 54 q 236 113 214 86 q 278 176 258 140 q 311 251 297 211 q 321 277 317 264 q 328 303 325 290 q 306 327 322 319 q 271 335 290 335 q 214 317 242 335 q 165 269 186 300 q 131 197 144 239 q 118 106 118 156 q 128 69 118 83 q 157 54 139 54 z "},"†":{"ha":257,"x_min":22,"x_max":343,"o":"m 328 460 q 338 451 343 458 q 318 442 333 443 q 256 441 286 442 q 197 439 226 440 q 115 172 153 304 q 50 -87 76 39 q 38 -106 47 -103 q 31 -94 29 -110 q 56 35 42 -32 q 84 171 69 103 q 115 306 99 239 q 147 435 131 374 q 90 429 118 432 q 35 419 63 426 q 37 437 22 422 q 85 456 51 451 q 117 458 100 457 q 153 460 133 458 q 183 565 168 517 q 213 653 197 614 q 230 681 217 665 q 256 706 243 696 q 281 719 269 717 q 292 708 292 722 q 247 585 268 647 q 204 461 225 524 q 266 462 235 463 q 328 460 297 461 z "},"‡":{"ha":257,"x_min":-50,"x_max":344,"o":"m 329 460 q 340 451 344 458 q 318 442 335 443 q 256 441 286 442 q 197 439 226 440 q 151 294 174 365 q 108 151 128 222 q 180 150 143 151 q 253 146 217 149 q 260 138 264 143 q 244 132 256 133 q 174 133 208 133 q 103 131 139 133 q 75 20 88 75 q 51 -87 63 -35 q 38 -106 47 -103 q 31 -94 29 -110 q 52 15 42 -42 q 75 129 63 71 q 17 123 46 126 q -39 114 -11 119 q -37 129 -50 115 q 10 147 -24 143 q 43 149 25 149 q 81 150 61 150 q 113 297 96 225 q 147 435 129 368 q 90 429 118 432 q 35 419 63 426 q 37 437 22 422 q 85 456 51 451 q 117 458 100 457 q 153 460 133 458 q 183 565 168 517 q 213 653 197 614 q 230 681 217 665 q 257 706 243 696 q 281 719 271 717 q 292 708 292 722 q 247 585 269 647 q 204 461 225 524 q 267 462 236 463 q 329 460 299 461 z "},"¨":{"ha":242,"x_min":19,"x_max":225,"o":"m 43 439 q 26 448 33 439 q 19 469 19 457 q 24 488 19 478 q 37 508 29 499 q 55 525 44 518 q 78 532 65 532 q 91 524 85 532 q 97 507 97 515 q 92 484 97 496 q 80 463 88 472 q 63 446 72 453 q 43 439 53 439 m 169 439 q 153 448 160 439 q 146 469 146 457 q 151 488 146 478 q 164 508 156 499 q 183 525 172 518 q 206 532 193 532 q 219 524 213 532 q 225 507 225 515 q 220 484 225 496 q 207 463 215 472 q 189 446 199 453 q 169 439 179 439 z "},"e":{"ha":329,"x_min":42,"x_max":329,"o":"m 329 286 q 119 178 329 207 q 117 150 118 164 q 117 121 117 136 q 133 65 117 85 q 186 46 150 46 q 240 61 213 46 q 285 100 268 76 q 293 98 290 103 q 294 88 296 93 q 224 26 267 51 q 133 0 182 0 q 63 24 85 0 q 42 93 42 49 q 60 183 42 136 q 106 268 78 229 q 172 331 135 307 q 246 356 208 356 q 306 334 283 356 q 329 286 329 313 m 208 319 q 153 290 176 319 q 122 197 131 260 q 221 223 189 204 q 253 269 253 242 q 240 305 253 290 q 208 319 228 319 z "},"é":{"ha":329,"x_min":42,"x_max":350,"o":"m 329 286 q 119 178 329 207 q 117 150 118 164 q 117 121 117 136 q 133 65 117 85 q 186 46 150 46 q 240 61 213 46 q 285 100 268 76 q 293 98 290 103 q 294 88 296 93 q 224 26 267 51 q 133 0 182 0 q 63 24 85 0 q 42 93 42 49 q 60 183 42 136 q 106 268 78 229 q 172 331 135 307 q 246 356 208 356 q 306 334 283 356 q 329 286 329 313 m 208 319 q 153 290 176 319 q 122 197 131 260 q 221 223 189 204 q 253 269 253 242 q 240 305 253 290 q 208 319 228 319 m 275 532 q 305 530 285 538 q 344 514 325 522 q 349 508 349 513 q 347 501 350 504 q 313 483 333 492 q 271 465 293 474 q 226 449 249 457 q 186 436 204 442 q 181 442 181 436 q 185 451 181 447 q 230 486 204 464 q 275 532 256 508 z "},"ê":{"ha":329,"x_min":42,"x_max":335,"o":"m 329 286 q 119 178 329 207 q 117 150 118 164 q 117 121 117 136 q 133 65 117 85 q 186 46 150 46 q 240 61 213 46 q 285 100 268 76 q 293 98 290 103 q 294 88 296 93 q 224 26 267 51 q 133 0 182 0 q 63 24 85 0 q 42 93 42 49 q 60 183 42 136 q 106 268 78 229 q 172 331 135 307 q 246 356 208 356 q 306 334 283 356 q 329 286 329 313 m 208 319 q 153 290 176 319 q 122 197 131 260 q 221 223 189 204 q 253 269 253 242 q 240 305 253 290 q 208 319 228 319 m 219 549 q 236 547 226 556 q 277 506 253 524 q 328 475 301 488 q 320 458 335 468 q 288 451 306 449 q 244 471 264 461 q 204 493 224 481 q 125 446 171 469 q 117 450 119 446 q 118 460 115 454 q 169 497 142 474 q 219 549 197 521 z "},"ë":{"ha":329,"x_min":42,"x_max":349,"o":"m 329 286 q 119 178 329 207 q 117 150 118 164 q 117 121 117 136 q 133 65 117 85 q 186 46 150 46 q 240 61 213 46 q 285 100 268 76 q 293 98 290 103 q 294 88 296 93 q 224 26 267 51 q 133 0 182 0 q 63 24 85 0 q 42 93 42 49 q 60 183 42 136 q 106 268 78 229 q 172 331 135 307 q 246 356 208 356 q 306 334 283 356 q 329 286 329 313 m 208 319 q 153 290 176 319 q 122 197 131 260 q 221 223 189 204 q 253 269 253 242 q 240 305 253 290 q 208 319 228 319 m 167 439 q 150 448 157 439 q 143 469 143 457 q 148 488 143 478 q 160 508 153 499 q 178 525 168 518 q 201 532 189 532 q 215 524 208 532 q 221 507 221 515 q 216 484 221 496 q 203 463 211 472 q 186 446 196 453 q 167 439 176 439 m 293 439 q 276 448 283 439 q 269 469 269 457 q 274 488 269 478 q 288 508 279 499 q 306 525 296 518 q 329 532 317 532 q 342 524 336 532 q 349 507 349 515 q 344 484 349 496 q 331 463 339 472 q 313 446 322 453 q 293 439 303 439 z "},"è":{"ha":329,"x_min":42,"x_max":329,"o":"m 329 286 q 119 178 329 207 q 117 150 118 164 q 117 121 117 136 q 133 65 117 85 q 186 46 150 46 q 240 61 213 46 q 285 100 268 76 q 293 98 290 103 q 294 88 296 93 q 224 26 267 51 q 133 0 182 0 q 63 24 85 0 q 42 93 42 49 q 60 183 42 136 q 106 268 78 229 q 172 331 135 307 q 246 356 208 356 q 306 334 283 356 q 329 286 329 313 m 208 319 q 153 290 176 319 q 122 197 131 260 q 221 223 189 204 q 253 269 253 242 q 240 305 253 290 q 208 319 228 319 m 317 451 q 317 444 319 449 q 307 439 314 439 q 229 465 271 449 q 160 500 188 482 q 157 505 157 501 q 160 511 157 508 q 199 533 178 526 q 225 536 221 540 q 267 493 242 517 q 317 451 292 469 z "},"—":{"ha":1389,"x_min":26,"x_max":1363,"o":"m 49 226 q 127 229 65 228 q 278 231 189 231 q 478 232 368 232 q 703 232 589 232 q 926 232 817 232 q 1126 232 1036 232 q 1278 232 1217 232 q 1358 232 1340 232 q 1360 224 1363 229 q 1351 213 1358 218 q 1336 202 1344 207 q 1319 197 1328 197 q 1228 199 1293 199 q 1073 201 1163 200 q 877 203 983 203 q 662 203 771 203 q 448 203 553 203 q 257 202 343 203 q 110 201 171 201 q 31 199 50 200 q 30 213 26 201 q 49 226 33 225 z "},"–":{"ha":694,"x_min":26,"x_max":668,"o":"m 49 226 q 119 229 71 228 q 228 231 168 231 q 356 232 289 232 q 483 232 422 232 q 592 232 543 232 q 664 232 640 232 q 666 224 668 229 q 657 213 664 218 q 642 202 650 207 q 625 197 633 197 q 539 200 589 199 q 431 202 489 201 q 314 203 374 203 q 200 203 254 203 q 101 201 146 203 q 31 199 57 200 q 30 213 26 201 q 49 226 33 225 z "},"ð":{"ha":367,"x_min":46,"x_max":351,"o":"m 244 665 q 351 311 351 488 q 330 193 351 249 q 276 95 308 138 q 204 27 243 53 q 131 0 165 1 q 69 25 93 0 q 46 93 46 50 q 69 203 46 150 q 128 295 92 257 q 209 349 165 333 q 294 346 253 364 q 262 492 286 425 q 192 628 238 558 q 137 585 164 607 q 86 543 110 564 q 82 553 79 542 q 96 579 85 565 q 133 609 111 593 q 182 643 156 625 q 153 683 168 663 q 119 725 138 704 q 92 778 99 750 q 93 835 86 807 q 117 890 100 864 q 163 936 135 917 q 171 933 168 938 q 171 922 174 928 q 144 846 140 886 q 181 761 147 806 q 210 721 196 742 q 236 679 224 700 q 272 701 254 690 q 307 721 290 711 q 312 717 310 721 q 307 706 314 713 q 276 686 292 696 q 244 665 261 676 m 172 47 q 215 65 193 47 q 256 112 238 82 q 285 180 274 142 q 297 260 297 218 q 284 317 297 300 q 247 333 271 333 q 154 277 190 333 q 118 129 118 221 q 131 72 118 97 q 172 47 144 47 z "},"!":{"ha":278,"x_min":76,"x_max":467,"o":"m 103 0 q 83 7 90 0 q 76 33 76 14 q 82 53 76 42 q 97 74 88 64 q 119 92 107 85 q 144 99 132 99 q 160 92 153 99 q 167 76 167 86 q 161 51 167 65 q 146 26 156 38 q 125 8 136 15 q 103 0 114 0 m 457 728 q 392 594 429 671 q 316 441 354 518 q 244 294 278 364 q 190 182 211 225 q 171 173 179 169 q 167 192 163 176 q 207 292 183 229 q 256 424 231 354 q 303 564 281 494 q 339 686 325 633 q 372 717 349 701 q 418 743 396 733 q 453 751 440 753 q 457 728 467 749 z "},"¡":{"ha":272,"x_min":-126,"x_max":265,"o":"m 239 354 q 258 347 251 354 q 265 321 265 340 q 260 301 265 313 q 244 280 254 290 q 222 263 235 269 q 197 256 210 256 q 182 262 189 256 q 175 278 175 268 q 181 302 175 289 q 196 327 186 315 q 217 347 206 339 q 239 354 228 354 m -115 -374 q -50 -240 -87 -317 q 26 -87 -12 -164 q 97 59 64 -10 q 151 172 131 128 q 171 181 163 185 q 175 163 179 178 q 135 63 158 125 q 86 -70 111 0 q 39 -210 61 -140 q 3 -332 17 -281 q -31 -363 -7 -347 q -76 -389 -54 -379 q -112 -397 -99 -399 q -115 -374 -126 -394 z "},"f":{"ha":240,"x_min":-411,"x_max":751,"o":"m 668 1010 q 713 997 694 1010 q 742 963 732 983 q 751 917 751 942 q 739 867 750 892 q 725 871 728 858 q 694 919 722 899 q 606 940 667 940 q 536 933 568 940 q 476 906 504 926 q 419 845 447 885 q 361 740 392 806 q 296 579 331 675 q 219 350 261 483 q 290 351 254 351 q 361 351 326 351 q 367 343 368 349 q 354 336 365 338 q 286 334 322 335 q 214 331 250 333 q 209 316 211 324 q 204 301 207 308 q 88 6 150 128 q -42 -192 25 -115 q -179 -303 -110 -268 q -317 -337 -249 -337 q -387 -315 -362 -337 q -411 -258 -411 -293 q -385 -190 -411 -221 q -377 -189 -381 -186 q -374 -196 -374 -192 q -379 -226 -381 -210 q -367 -256 -378 -242 q -336 -278 -357 -269 q -282 -287 -315 -287 q -168 -269 -218 -287 q -72 -188 -118 -250 q 23 -11 -25 -126 q 131 299 71 104 l 139 324 q 89 317 113 321 q 43 310 65 314 q 40 317 36 311 q 53 328 44 322 q 75 338 63 333 q 99 344 88 343 q 122 347 110 346 q 146 349 133 347 q 266 646 203 521 q 396 852 329 771 q 531 972 463 933 q 668 1010 600 1010 z "},"ﬁ":{"ha":438,"x_min":-410,"x_max":751,"o":"m 668 1008 q 713 995 694 1008 q 742 961 732 982 q 751 915 751 940 q 739 865 750 890 q 725 869 731 857 q 695 918 722 897 q 607 939 668 939 q 506 922 550 939 q 420 844 463 904 q 331 666 378 783 q 221 349 283 549 q 270 349 244 349 q 321 350 296 349 q 378 351 353 350 q 426 356 403 353 q 433 343 435 351 q 394 278 414 315 q 363 206 375 242 q 338 131 347 167 q 329 72 329 96 q 349 43 329 43 q 378 56 364 43 q 413 92 393 69 q 419 90 415 94 q 421 81 424 86 q 361 22 392 44 q 303 0 331 0 q 254 46 254 0 q 264 110 254 72 q 289 190 274 149 q 324 269 304 231 q 363 333 343 307 q 304 332 346 333 q 214 328 263 331 l 206 299 q 89 3 151 125 q -41 -194 26 -118 q -178 -304 -108 -269 q -317 -339 -249 -339 q -386 -317 -362 -339 q -410 -260 -410 -294 q -385 -192 -410 -224 q -377 -191 -381 -189 q -374 -197 -374 -193 q -379 -227 -381 -211 q -367 -257 -378 -243 q -335 -280 -357 -271 q -281 -289 -314 -289 q -203 -281 -239 -289 q -134 -251 -167 -274 q -71 -190 -101 -229 q -9 -85 -40 -150 q 56 74 22 -19 q 131 297 90 168 q 135 309 133 304 q 139 321 136 314 q 88 315 111 318 q 44 308 64 313 q 41 315 38 310 q 53 326 44 321 q 75 337 63 332 q 99 343 88 342 q 122 345 110 344 q 147 346 135 346 q 266 644 203 518 q 396 850 329 769 q 531 969 463 931 q 668 1008 600 1008 m 519 560 q 528 558 524 561 q 529 551 532 554 q 474 488 500 525 q 428 415 447 451 q 419 415 424 411 q 411 426 414 419 q 408 442 408 433 q 413 458 408 451 q 458 509 428 479 q 519 560 488 539 z "},"g":{"ha":331,"x_min":-157,"x_max":347,"o":"m 335 376 q 343 376 339 379 q 346 368 347 372 q 321 340 335 353 q 286 325 307 328 q 306 271 306 303 q 295 210 306 236 q 271 163 285 185 q 243 122 257 140 q 222 83 229 103 q 216 41 214 64 q 238 -11 218 18 q 283 -94 268 -58 q 297 -172 297 -131 q 281 -237 297 -207 q 236 -290 265 -267 q 165 -326 207 -312 q 71 -339 122 -339 q -96 -300 -35 -339 q -157 -197 -157 -261 q -123 -110 -157 -149 q -22 -54 -89 -72 q -13 -59 -15 -54 q -14 -68 -11 -64 q -62 -101 -44 -79 q -81 -160 -81 -124 q -32 -274 -81 -231 q 96 -318 17 -318 q 194 -283 163 -318 q 226 -196 226 -249 q 217 -139 226 -164 q 189 -82 207 -114 q 165 4 163 -37 q 193 89 168 46 q 195 92 194 92 q 197 96 196 93 q 165 71 182 81 q 131 61 147 61 q 69 85 90 61 q 47 154 47 108 q 63 225 47 189 q 102 290 78 261 q 157 338 126 319 q 219 356 188 356 q 293 359 267 356 q 335 376 319 363 m 224 144 q 238 185 232 164 q 243 228 243 206 q 230 290 243 267 q 188 314 217 314 q 130 283 151 314 q 108 185 108 251 q 161 104 108 104 q 194 116 176 104 q 224 144 213 128 z "},"ß":{"ha":469,"x_min":-433,"x_max":789,"o":"m 708 851 q 683 922 708 896 q 610 949 657 949 q 483 915 542 949 q 372 806 424 882 q 272 606 319 731 q 181 300 225 482 q 79 -12 135 111 q -40 -208 24 -135 q -174 -310 -104 -281 q -319 -339 -244 -339 q -406 -310 -379 -339 q -432 -237 -433 -282 q -428 -230 -432 -232 q -422 -232 -425 -228 q -369 -282 -406 -261 q -282 -303 -333 -303 q -201 -295 -237 -303 q -133 -265 -164 -287 q -74 -201 -101 -242 q -18 -93 -46 -160 q 40 69 10 -26 q 104 297 69 165 q 213 604 150 474 q 349 822 276 735 q 501 951 422 908 q 656 994 579 994 q 714 983 689 994 q 756 956 739 972 q 781 917 772 939 q 789 875 789 896 q 756 761 789 811 q 672 669 722 711 q 563 590 621 628 q 453 513 504 553 q 369 426 403 472 q 336 319 336 379 q 350 259 336 285 q 381 210 364 233 q 411 163 397 188 q 425 106 425 139 q 389 31 425 61 q 275 0 353 0 q 205 15 232 0 q 178 49 178 31 q 182 64 178 54 q 193 85 186 74 q 209 107 200 96 q 228 125 218 118 q 235 124 231 128 q 236 115 239 119 q 219 75 219 99 q 235 33 219 50 q 279 17 251 17 q 335 37 315 17 q 354 86 354 57 q 340 138 354 113 q 310 189 326 163 q 279 244 293 215 q 265 307 265 272 q 298 404 265 361 q 380 485 331 447 q 487 561 429 524 q 594 641 544 599 q 676 735 643 683 q 708 851 708 786 z "},"`":{"ha":215,"x_min":25,"x_max":188,"o":"m 185 451 q 185 444 188 449 q 175 439 182 439 q 97 465 139 449 q 28 500 56 482 q 25 505 25 501 q 28 511 25 508 q 67 533 46 526 q 93 536 89 540 q 135 493 110 517 q 185 451 160 469 z "},"«":{"ha":424,"x_min":25,"x_max":431,"o":"m 264 349 q 277 342 274 351 q 268 324 281 332 q 223 292 249 311 q 172 252 197 272 q 122 212 146 232 q 83 178 97 192 q 144 121 113 154 q 196 60 176 88 q 196 42 199 53 q 188 22 193 32 q 174 7 182 13 q 158 4 167 1 q 96 83 132 44 q 31 144 60 121 q 26 156 25 150 q 33 168 28 163 q 147 263 86 215 q 264 349 208 310 m 414 349 q 427 342 424 351 q 418 324 431 332 q 373 292 399 311 q 322 252 347 272 q 272 212 296 232 q 233 178 247 192 q 294 121 263 154 q 346 60 326 88 q 346 42 349 53 q 338 22 343 32 q 324 7 332 13 q 308 4 317 1 q 246 83 282 44 q 181 144 210 121 q 176 156 175 150 q 183 168 178 163 q 297 263 236 215 q 414 349 358 310 z "},"»":{"ha":406,"x_min":-19,"x_max":379,"o":"m -4 4 q -16 10 -12 1 q -8 29 -19 19 q 31 64 8 44 q 77 103 53 83 q 125 142 101 124 q 168 175 149 161 q 137 203 153 186 q 105 240 121 221 q 76 278 89 258 q 53 314 63 297 q 57 329 50 321 q 73 344 64 338 q 92 352 82 350 q 110 349 103 354 q 162 270 131 308 q 224 207 193 232 q 228 196 229 203 q 221 185 226 189 q 103 96 164 144 q -4 4 42 47 m 146 4 q 134 10 138 1 q 142 29 131 19 q 181 64 158 44 q 227 103 203 83 q 275 142 251 124 q 318 175 299 161 q 287 203 303 186 q 255 240 271 221 q 226 278 239 258 q 203 314 213 297 q 207 329 200 321 q 223 344 214 338 q 242 352 232 350 q 260 349 253 354 q 312 270 281 308 q 374 207 343 232 q 378 196 379 203 q 371 185 376 189 q 253 96 314 144 q 146 4 192 47 z "},"h":{"ha":450,"x_min":31,"x_max":797,"o":"m 33 13 q 177 443 96 251 q 349 769 258 635 q 531 977 439 904 q 707 1050 624 1050 q 762 1034 742 1050 q 790 995 782 1018 q 792 946 797 972 q 771 899 786 919 q 763 896 767 894 q 758 903 758 897 q 743 956 765 931 q 672 981 721 981 q 530 940 597 981 q 399 806 463 900 q 274 558 335 713 q 149 172 213 403 q 197 243 169 210 q 256 301 224 276 q 324 341 288 326 q 399 356 360 356 q 423 347 415 356 q 431 328 431 339 q 418 288 431 310 q 371 182 389 236 q 353 83 353 128 q 357 51 353 64 q 372 39 361 39 q 403 53 386 39 q 431 86 419 68 q 439 85 435 89 q 442 78 443 82 q 391 24 424 47 q 332 0 358 0 q 293 13 308 0 q 278 58 278 26 q 283 112 278 83 q 295 168 288 140 q 313 223 303 196 q 336 272 324 250 q 343 296 343 289 q 329 308 343 308 q 272 288 303 308 q 213 231 242 268 q 156 143 183 194 q 110 29 129 92 q 88 10 107 19 q 44 0 68 0 q 33 13 31 0 z "},"-":{"ha":340,"x_min":44,"x_max":311,"o":"m 81 231 q 128 235 99 232 q 189 240 157 238 q 251 243 221 242 q 306 244 282 244 q 311 234 311 242 q 306 217 311 226 q 291 200 300 208 q 272 189 282 192 q 217 188 247 189 q 158 187 188 188 q 100 185 128 186 q 54 185 72 185 q 53 206 44 188 q 81 231 63 225 z "},"i":{"ha":231,"x_min":47,"x_max":324,"o":"m 221 415 q 212 415 217 411 q 204 427 207 419 q 201 444 201 435 q 206 460 201 453 q 251 509 221 479 q 313 560 281 539 q 319 558 315 561 q 322 551 324 554 q 267 488 293 525 q 221 415 240 451 m 72 258 q 65 260 68 256 q 64 269 63 265 q 207 356 115 311 q 218 343 218 356 q 183 274 200 311 q 152 199 165 236 q 131 128 139 163 q 122 72 122 94 q 142 44 122 44 q 172 58 157 44 q 206 92 186 71 q 213 91 208 94 q 214 81 217 88 q 153 22 183 44 q 96 0 124 0 q 47 46 47 0 q 55 105 47 71 q 76 174 63 139 q 105 244 89 210 q 138 303 121 278 q 103 282 122 294 q 72 258 85 269 z "},"í":{"ha":207,"x_min":47,"x_max":317,"o":"m 242 532 q 272 530 251 538 q 311 514 292 522 q 316 508 315 513 q 314 501 317 504 q 280 483 300 492 q 238 465 260 474 q 193 449 215 457 q 153 436 171 442 q 147 442 147 436 q 151 451 147 447 q 197 486 171 464 q 242 532 222 508 m 72 258 q 65 260 68 256 q 64 269 63 265 q 207 356 115 311 q 218 343 218 356 q 183 274 200 311 q 152 199 165 236 q 131 128 139 163 q 122 72 122 94 q 142 44 122 44 q 172 58 157 44 q 206 92 186 71 q 213 91 208 94 q 214 81 217 88 q 153 22 183 44 q 96 0 124 0 q 47 46 47 0 q 55 105 47 71 q 76 174 63 139 q 105 244 89 210 q 138 303 121 278 q 103 282 122 294 q 72 258 85 269 z "},"î":{"ha":207,"x_min":47,"x_max":301,"o":"m 186 549 q 203 547 193 556 q 244 506 219 524 q 294 475 268 488 q 287 458 301 468 q 254 451 272 449 q 210 471 231 461 q 171 493 190 481 q 92 446 138 469 q 84 450 86 446 q 85 460 82 454 q 136 497 108 474 q 186 549 164 521 m 72 258 q 65 260 68 256 q 64 269 63 265 q 207 356 115 311 q 218 343 218 356 q 183 274 200 311 q 152 199 165 236 q 131 128 139 163 q 122 72 122 94 q 142 44 122 44 q 172 58 157 44 q 206 92 186 71 q 213 91 208 94 q 214 81 217 88 q 153 22 183 44 q 96 0 124 0 q 47 46 47 0 q 55 105 47 71 q 76 174 63 139 q 105 244 89 210 q 138 303 121 278 q 103 282 122 294 q 72 258 85 269 z "},"ï":{"ha":207,"x_min":47,"x_max":319,"o":"m 138 439 q 121 448 128 439 q 114 469 114 457 q 119 488 114 478 q 131 508 124 499 q 149 525 139 518 q 172 532 160 532 q 185 524 179 532 q 192 507 192 515 q 187 484 192 496 q 174 463 182 472 q 157 446 167 453 q 138 439 147 439 m 264 439 q 247 448 254 439 q 240 469 240 457 q 245 488 240 478 q 258 508 250 499 q 277 525 267 518 q 300 532 288 532 q 313 524 307 532 q 319 507 319 515 q 315 484 319 496 q 301 463 310 472 q 283 446 293 453 q 264 439 274 439 m 72 258 q 65 260 68 256 q 64 269 63 265 q 207 356 115 311 q 218 343 218 356 q 183 274 200 311 q 152 199 165 236 q 131 128 139 163 q 122 72 122 94 q 142 44 122 44 q 172 58 157 44 q 206 92 186 71 q 213 91 208 94 q 214 81 217 88 q 153 22 183 44 q 96 0 124 0 q 47 46 47 0 q 55 105 47 71 q 76 174 63 139 q 105 244 89 210 q 138 303 121 278 q 103 282 122 294 q 72 258 85 269 z "},"ì":{"ha":207,"x_min":47,"x_max":264,"o":"m 261 451 q 261 444 264 449 q 251 439 258 439 q 174 465 215 449 q 104 500 132 482 q 101 505 101 501 q 104 511 101 508 q 144 533 122 526 q 169 536 165 540 q 211 493 186 517 q 261 451 236 469 m 72 258 q 65 260 68 256 q 64 269 63 265 q 207 356 115 311 q 218 343 218 356 q 183 274 200 311 q 152 199 165 236 q 131 128 139 163 q 122 72 122 94 q 142 44 122 44 q 172 58 157 44 q 206 92 186 71 q 213 91 208 94 q 214 81 217 88 q 153 22 183 44 q 96 0 124 0 q 47 46 47 0 q 55 105 47 71 q 76 174 63 139 q 105 244 89 210 q 138 303 121 278 q 103 282 122 294 q 72 258 85 269 z "},"j":{"ha":213,"x_min":-425,"x_max":311,"o":"m 207 415 q 198 415 203 411 q 190 427 193 419 q 188 444 188 435 q 192 460 188 453 q 237 509 207 479 q 299 560 267 539 q 307 558 303 561 q 308 551 311 554 q 253 488 279 525 q 207 415 226 451 m 114 299 q 60 263 85 283 q 53 264 56 260 q 51 272 50 268 q 76 292 60 281 q 112 315 92 303 q 153 337 132 326 q 192 356 174 347 q 203 343 206 356 q 92 19 154 150 q -42 -191 29 -111 q -187 -305 -112 -271 q -337 -339 -262 -339 q -406 -301 -386 -339 q -410 -203 -425 -262 q -403 -199 -407 -199 q -397 -204 -399 -199 q -372 -270 -404 -244 q -272 -296 -339 -296 q -167 -272 -217 -296 q -69 -183 -117 -249 q 23 -2 -22 -118 q 114 299 68 114 z "},"k":{"ha":404,"x_min":32,"x_max":788,"o":"m 244 183 q 284 70 260 110 q 343 31 308 31 q 371 38 358 31 q 399 64 383 44 q 406 62 403 65 q 408 54 410 58 q 300 0 365 0 q 220 47 247 0 q 176 186 193 93 q 182 200 172 197 q 232 199 207 194 q 277 214 257 203 q 309 243 297 225 q 321 283 321 261 q 286 318 321 318 q 196 272 238 318 q 135 135 154 225 q 122 85 128 111 q 113 40 117 60 q 107 24 110 29 q 94 14 104 19 q 67 4 83 8 q 42 0 50 0 q 33 14 32 0 q 108 305 63 168 q 208 557 153 442 q 327 764 264 672 q 454 919 390 856 q 581 1016 518 982 q 699 1050 643 1050 q 753 1036 733 1050 q 781 1001 774 1022 q 783 954 788 979 q 763 908 778 929 q 750 913 753 899 q 736 967 757 940 q 667 993 715 993 q 522 949 592 993 q 386 813 451 906 q 262 577 321 721 q 151 233 203 433 q 222 320 178 285 q 325 356 265 356 q 378 335 365 356 q 392 296 392 315 q 350 220 392 251 q 244 183 308 189 z "},"l":{"ha":208,"x_min":42,"x_max":693,"o":"m 636 1032 q 670 1022 657 1032 q 688 994 683 1011 q 690 954 693 976 q 674 910 686 932 q 667 910 671 907 q 661 917 663 913 q 649 944 664 933 q 604 956 635 956 q 490 913 547 956 q 378 801 432 871 q 276 642 324 732 q 194 456 229 551 q 140 265 160 360 q 119 93 119 171 q 143 51 119 51 q 176 65 160 51 q 213 107 192 79 q 220 106 217 110 q 222 97 224 103 q 157 28 194 56 q 89 0 119 0 q 52 15 63 0 q 42 54 42 31 q 69 217 42 119 q 144 424 97 315 q 251 642 190 533 q 378 837 313 750 q 511 978 444 924 q 636 1032 578 1032 z "},"m":{"ha":642,"x_min":31,"x_max":639,"o":"m 539 292 q 518 321 539 321 q 419 244 476 321 q 314 24 363 167 q 291 8 311 15 q 253 0 271 0 q 240 13 236 0 q 263 75 249 38 q 291 152 278 113 q 314 227 304 192 q 324 282 324 263 q 300 319 324 319 q 209 245 264 319 q 103 24 154 171 q 81 8 100 15 q 46 0 61 0 q 35 3 39 0 q 33 13 31 6 q 57 80 44 43 q 82 154 69 117 q 105 228 94 192 q 124 296 115 264 q 115 321 128 321 q 89 306 104 321 q 58 269 74 290 q 50 270 54 267 q 49 278 46 274 q 99 333 69 310 q 161 356 128 356 q 191 342 183 356 q 194 308 199 328 q 183 257 189 278 q 168 210 178 236 q 248 315 204 274 q 342 356 292 356 q 380 342 367 356 q 393 308 393 328 q 374 199 393 254 q 460 315 418 275 q 563 356 503 356 q 602 341 590 356 q 614 311 614 326 q 603 259 614 288 q 580 199 593 231 q 556 137 567 168 q 546 76 546 106 q 568 42 546 42 q 628 88 590 42 q 635 86 632 90 q 636 76 639 82 q 579 21 608 42 q 522 0 550 0 q 476 53 476 0 q 486 120 476 86 q 508 185 496 154 q 529 244 519 217 q 539 292 539 272 z "},"n":{"ha":447,"x_min":25,"x_max":447,"o":"m 436 97 q 443 97 439 100 q 446 88 447 93 q 388 26 421 53 q 324 0 356 0 q 287 15 300 0 q 274 56 274 31 q 291 161 274 104 q 338 276 308 218 q 342 297 342 286 q 329 311 342 311 q 215 241 278 311 q 100 18 153 171 q 91 10 99 14 q 74 5 83 7 q 54 1 64 3 q 39 0 44 0 q 28 3 32 0 q 28 13 25 6 q 76 144 51 72 q 118 288 100 215 q 119 308 122 301 q 110 314 117 314 q 81 301 94 314 q 56 272 67 288 q 48 274 51 269 q 46 282 44 278 q 65 304 53 292 q 92 328 76 317 q 124 348 107 340 q 157 356 140 356 q 188 341 181 356 q 192 306 196 326 q 177 248 185 275 q 158 188 169 221 q 199 248 175 218 q 253 302 224 278 q 318 341 283 326 q 392 356 353 356 q 417 347 408 356 q 426 328 426 339 q 417 293 426 308 q 367 184 388 240 q 347 83 347 128 q 371 47 347 47 q 401 60 386 47 q 436 97 417 72 z "},"ñ":{"ha":447,"x_min":25,"x_max":447,"o":"m 436 97 q 443 97 439 100 q 446 88 447 93 q 388 26 421 53 q 324 0 356 0 q 287 15 300 0 q 274 56 274 31 q 291 161 274 104 q 338 276 308 218 q 342 297 342 286 q 329 311 342 311 q 215 241 278 311 q 100 18 153 171 q 91 10 99 14 q 74 5 83 7 q 54 1 64 3 q 39 0 44 0 q 28 3 32 0 q 28 13 25 6 q 76 144 51 72 q 118 288 100 215 q 119 308 122 301 q 110 314 117 314 q 81 301 94 314 q 56 272 67 288 q 48 274 51 269 q 46 282 44 278 q 65 304 53 292 q 92 328 76 317 q 124 348 107 340 q 157 356 140 356 q 188 341 181 356 q 192 306 196 326 q 177 248 185 275 q 158 188 169 221 q 199 248 175 218 q 253 302 224 278 q 318 341 283 326 q 392 356 353 356 q 417 347 408 356 q 426 328 426 339 q 417 293 426 308 q 367 184 388 240 q 347 83 347 128 q 371 47 347 47 q 401 60 386 47 q 436 97 417 72 m 172 461 q 211 498 189 481 q 249 519 233 515 q 267 517 258 522 q 288 506 276 513 q 313 494 299 500 q 347 488 326 488 q 383 497 368 488 q 408 524 397 506 q 418 524 413 526 q 422 518 424 522 q 385 473 407 493 q 325 453 364 453 q 293 458 307 453 q 269 470 279 464 q 249 481 258 476 q 232 486 240 486 q 210 476 221 485 q 183 453 199 468 q 172 461 169 450 z "},"o":{"ha":358,"x_min":42,"x_max":344,"o":"m 249 356 q 321 326 297 356 q 344 258 344 297 q 323 158 344 204 q 270 76 301 111 q 203 20 239 40 q 138 0 167 0 q 66 28 90 0 q 42 101 42 57 q 59 186 42 142 q 105 268 76 231 q 171 331 133 306 q 249 356 208 356 m 172 43 q 245 88 215 43 q 275 213 275 133 q 258 282 275 254 q 210 310 242 310 q 138 267 165 310 q 110 140 110 224 q 127 67 110 92 q 172 43 144 43 z "},"ó":{"ha":358,"x_min":42,"x_max":389,"o":"m 249 356 q 321 326 297 356 q 344 258 344 297 q 323 158 344 204 q 270 76 301 111 q 203 20 239 40 q 138 0 167 0 q 66 28 90 0 q 42 101 42 57 q 59 186 42 142 q 105 268 76 231 q 171 331 133 306 q 249 356 208 356 m 172 43 q 245 88 215 43 q 275 213 275 133 q 258 282 275 254 q 210 310 242 310 q 138 267 165 310 q 110 140 110 224 q 127 67 110 92 q 172 43 144 43 m 314 532 q 344 530 324 538 q 383 514 364 522 q 388 508 388 513 q 386 501 389 504 q 352 483 372 492 q 310 465 332 474 q 265 449 288 457 q 225 436 243 442 q 219 442 219 436 q 224 451 219 447 q 269 486 243 464 q 314 532 294 508 z "},"ô":{"ha":358,"x_min":42,"x_max":383,"o":"m 249 356 q 321 326 297 356 q 344 258 344 297 q 323 158 344 204 q 270 76 301 111 q 203 20 239 40 q 138 0 167 0 q 66 28 90 0 q 42 101 42 57 q 59 186 42 142 q 105 268 76 231 q 171 331 133 306 q 249 356 208 356 m 172 43 q 245 88 215 43 q 275 213 275 133 q 258 282 275 254 q 210 310 242 310 q 138 267 165 310 q 110 140 110 224 q 127 67 110 92 q 172 43 144 43 m 268 549 q 285 547 275 556 q 326 506 301 524 q 376 475 350 488 q 369 458 383 468 q 336 451 354 449 q 292 471 313 461 q 253 493 272 481 q 174 446 219 469 q 166 450 168 446 q 167 460 164 454 q 218 497 190 474 q 268 549 246 521 z "},"ö":{"ha":358,"x_min":42,"x_max":357,"o":"m 249 356 q 321 326 297 356 q 344 258 344 297 q 323 158 344 204 q 270 76 301 111 q 203 20 239 40 q 138 0 167 0 q 66 28 90 0 q 42 101 42 57 q 59 186 42 142 q 105 268 76 231 q 171 331 133 306 q 249 356 208 356 m 172 43 q 245 88 215 43 q 275 213 275 133 q 258 282 275 254 q 210 310 242 310 q 138 267 165 310 q 110 140 110 224 q 127 67 110 92 q 172 43 144 43 m 175 439 q 158 448 165 439 q 151 469 151 457 q 156 488 151 478 q 169 508 161 499 q 187 525 176 518 q 210 532 197 532 q 223 524 217 532 q 229 507 229 515 q 224 484 229 496 q 212 463 219 472 q 194 446 204 453 q 175 439 185 439 m 301 439 q 285 448 292 439 q 278 469 278 457 q 283 488 278 478 q 296 508 288 499 q 315 525 304 518 q 338 532 325 532 q 351 524 344 532 q 357 507 357 515 q 352 484 357 496 q 339 463 347 472 q 321 446 331 453 q 301 439 311 439 z "},"œ":{"ha":551,"x_min":42,"x_max":551,"o":"m 551 286 q 342 176 551 207 q 340 149 340 164 q 339 119 339 135 q 356 65 339 85 q 407 46 372 46 q 462 61 435 46 q 507 100 489 76 q 515 98 513 103 q 517 88 518 93 q 447 26 489 51 q 356 0 404 0 q 290 20 311 0 q 264 76 268 40 q 208 20 240 40 q 138 0 175 0 q 65 28 89 0 q 42 101 42 57 q 59 186 42 142 q 105 268 76 231 q 171 331 133 306 q 249 356 208 356 q 307 334 285 356 q 335 276 329 313 q 397 334 363 313 q 468 356 432 356 q 528 333 504 356 q 551 286 551 311 m 431 319 q 376 290 399 319 q 344 197 353 260 q 443 223 411 204 q 475 269 475 242 q 463 305 475 290 q 431 319 450 319 m 172 42 q 244 88 215 42 q 274 213 274 133 q 257 282 274 254 q 208 310 240 310 q 137 267 164 310 q 110 140 110 224 q 127 66 110 90 q 172 42 144 42 z "},"ò":{"ha":358,"x_min":42,"x_max":349,"o":"m 249 356 q 321 326 297 356 q 344 258 344 297 q 323 158 344 204 q 270 76 301 111 q 203 20 239 40 q 138 0 167 0 q 66 28 90 0 q 42 101 42 57 q 59 186 42 142 q 105 268 76 231 q 171 331 133 306 q 249 356 208 356 m 172 43 q 245 88 215 43 q 275 213 275 133 q 258 282 275 254 q 210 310 242 310 q 138 267 165 310 q 110 140 110 224 q 127 67 110 92 q 172 43 144 43 m 346 451 q 346 444 349 449 q 336 439 343 439 q 258 465 300 449 q 189 500 217 482 q 186 505 186 501 q 189 511 186 508 q 228 533 207 526 q 254 536 250 540 q 296 493 271 517 q 346 451 321 469 z "},"ø":{"ha":358,"x_min":35,"x_max":363,"o":"m 336 396 q 354 401 346 403 q 358 389 363 399 q 336 359 347 374 q 315 331 325 344 q 338 299 331 318 q 344 258 344 279 q 323 157 344 204 q 270 75 301 110 q 203 20 239 40 q 136 0 167 0 q 85 13 106 0 q 72 -5 78 4 q 60 -24 67 -14 q 43 -31 51 -33 q 38 -19 35 -28 q 53 3 46 -8 q 68 25 61 14 q 42 101 42 51 q 58 186 42 142 q 103 268 75 231 q 169 330 132 306 q 249 354 207 354 q 297 343 278 354 q 316 368 307 356 q 336 396 325 381 m 110 140 q 115 92 110 110 q 150 141 135 119 q 181 184 165 163 q 213 229 196 206 q 254 285 231 253 q 208 310 238 310 q 137 267 164 310 q 110 140 110 224 m 274 213 q 265 265 274 242 q 194 169 225 213 q 124 71 163 126 q 171 42 140 42 q 244 88 215 42 q 274 213 274 133 z "},"õ":{"ha":358,"x_min":42,"x_max":388,"o":"m 249 356 q 321 326 297 356 q 344 258 344 297 q 323 158 344 204 q 270 76 301 111 q 203 20 239 40 q 138 0 167 0 q 66 28 90 0 q 42 101 42 57 q 59 186 42 142 q 105 268 76 231 q 171 331 133 306 q 249 356 208 356 m 172 43 q 245 88 215 43 q 275 213 275 133 q 258 282 275 254 q 210 310 242 310 q 138 267 165 310 q 110 140 110 224 q 127 67 110 92 q 172 43 144 43 m 136 461 q 175 498 153 481 q 213 519 197 515 q 231 517 222 522 q 251 506 240 513 q 276 494 263 500 q 311 488 290 488 q 347 497 332 488 q 372 524 361 506 q 382 524 376 526 q 386 518 388 522 q 349 473 371 493 q 289 453 328 453 q 257 458 271 453 q 233 470 243 464 q 213 481 222 476 q 196 486 204 486 q 174 476 185 485 q 147 453 163 468 q 136 461 133 450 z "},"p":{"ha":410,"x_min":-47,"x_max":396,"o":"m 328 356 q 377 326 358 356 q 396 256 396 296 q 373 152 396 199 q 313 72 350 106 q 226 19 275 38 q 128 0 178 0 q 88 6 104 0 q 45 -140 64 -62 q 26 -285 26 -218 q 57 -310 26 -317 q 78 -304 68 -308 q 99 -293 89 -300 q 105 -299 104 -293 q 103 -310 106 -304 q 78 -319 94 -314 q 44 -328 63 -324 q 8 -336 26 -333 q -22 -339 -10 -339 q -40 -333 -33 -339 q -47 -317 -47 -328 q -24 -152 -47 -246 q 35 42 -1 -58 q 25 60 26 53 q 46 72 24 65 q 85 172 64 122 q 126 271 106 222 q 151 342 153 328 q 133 347 149 356 q 88 308 113 336 q 81 310 85 306 q 79 318 78 315 q 104 342 89 329 q 137 367 119 356 q 171 385 154 378 q 200 393 188 393 q 220 380 215 393 q 218 351 225 367 q 171 242 200 303 q 203 281 185 261 q 241 318 221 301 q 283 345 261 335 q 328 356 306 356 m 163 28 q 225 41 196 28 q 276 80 254 54 q 310 144 297 106 q 324 232 324 182 q 311 286 324 265 q 275 307 299 307 q 199 250 243 307 q 117 90 154 193 q 108 67 113 79 q 100 43 104 56 q 163 28 122 28 z "},"¶":{"ha":590,"x_min":-129,"x_max":642,"o":"m 635 443 q 639 430 642 440 q 625 417 636 419 q 600 416 613 417 q 576 415 588 415 q 541 285 560 353 q 502 152 522 218 q 461 26 482 86 q 419 -81 440 -33 q 260 -276 361 -214 q 19 -337 158 -337 q -91 -310 -53 -337 q -129 -233 -129 -282 q -103 -162 -129 -189 q -40 -125 -76 -136 q -31 -132 -33 -125 q -33 -143 -29 -139 q -50 -165 -44 -151 q -56 -200 -56 -178 q -30 -279 -56 -249 q 54 -310 -4 -310 q 131 -267 96 -310 q 207 -118 167 -224 q 228 -56 218 -87 q 250 7 239 -25 q 163 59 197 21 q 129 153 129 97 q 166 270 129 217 q 269 362 203 324 q 429 422 336 400 q 635 443 522 443 m 343 -94 q 383 9 363 -50 q 424 135 404 68 q 465 272 444 201 q 501 408 485 342 q 458 401 478 406 q 421 393 439 397 q 385 260 404 331 q 347 120 367 189 q 307 -11 328 51 q 267 -121 286 -74 q 206 -235 238 -192 q 131 -301 175 -278 q 249 -238 197 -286 q 343 -94 301 -190 z "},"(":{"ha":361,"x_min":128,"x_max":478,"o":"m 456 885 q 471 888 464 890 q 471 872 478 885 q 411 803 443 846 q 353 718 379 761 q 287 578 317 657 q 236 413 257 499 q 203 239 215 326 q 192 72 192 151 q 193 23 192 50 q 198 -31 194 -4 q 207 -84 201 -58 q 219 -129 213 -110 q 213 -144 221 -140 q 199 -139 204 -147 q 160 -31 178 -92 q 135 101 143 31 q 131 247 128 171 q 153 401 133 324 q 267 674 189 554 q 456 885 346 794 z "},")":{"ha":396,"x_min":33,"x_max":383,"o":"m 57 -142 q 40 -144 47 -147 q 40 -129 33 -142 q 101 -60 68 -101 q 158 26 133 -18 q 224 166 194 88 q 275 331 254 244 q 308 504 296 417 q 319 671 319 592 q 318 720 319 693 q 313 774 317 747 q 304 827 310 801 q 292 872 299 853 q 299 888 290 885 q 314 882 307 890 q 353 767 336 831 q 376 634 369 704 q 380 489 383 564 q 358 342 376 414 q 244 72 324 194 q 57 -142 165 -51 z "},".":{"ha":167,"x_min":42,"x_max":132,"o":"m 69 0 q 49 7 57 0 q 42 33 42 14 q 47 53 42 42 q 63 74 53 64 q 85 92 72 85 q 110 99 97 99 q 125 92 118 99 q 132 76 132 86 q 126 51 132 65 q 111 26 121 38 q 90 8 101 15 q 69 0 79 0 z "},"q":{"ha":419,"x_min":35,"x_max":446,"o":"m 289 -300 q 293 -307 294 -300 q 289 -317 292 -314 q 234 -331 268 -324 q 171 -339 200 -339 q 140 -286 132 -339 q 158 -196 146 -249 q 188 -85 171 -143 q 226 30 206 -26 q 268 129 247 86 q 228 83 250 106 q 185 43 207 61 q 141 14 163 25 q 101 0 119 3 q 53 22 71 0 q 35 86 35 43 q 57 181 35 133 q 117 268 79 229 q 208 331 156 307 q 319 356 260 356 q 357 350 339 356 q 388 333 375 344 q 404 342 394 339 q 424 344 414 344 q 440 343 433 344 q 446 339 446 342 q 363 196 400 274 q 296 38 325 118 q 248 -120 267 -43 q 224 -261 229 -197 q 226 -297 221 -285 q 247 -308 231 -308 q 289 -300 265 -308 m 142 49 q 178 65 156 49 q 224 106 200 82 q 267 154 247 129 q 297 197 288 179 q 327 250 317 231 q 350 293 338 269 q 334 320 349 307 q 292 333 319 333 q 218 315 251 333 q 161 263 185 296 q 124 188 138 231 q 110 96 110 144 q 142 49 110 49 z "},"?":{"ha":411,"x_min":76,"x_max":554,"o":"m 103 0 q 83 7 90 0 q 76 33 76 14 q 82 53 76 42 q 97 74 88 64 q 118 92 106 85 q 143 99 131 99 q 158 92 151 99 q 165 76 165 86 q 160 51 165 65 q 144 26 154 38 q 124 8 135 15 q 103 0 113 0 m 411 721 q 469 710 443 721 q 515 683 496 700 q 544 642 533 665 q 554 596 554 619 q 534 503 554 540 q 483 440 514 467 q 413 393 451 413 q 339 356 375 374 q 273 316 303 338 q 228 264 243 294 q 225 223 217 240 q 257 203 233 206 q 260 194 267 201 q 241 179 254 188 q 213 165 228 171 q 188 161 197 158 q 167 175 175 164 q 157 202 158 186 q 163 237 156 218 q 188 274 169 256 q 275 342 225 314 q 369 399 325 369 q 445 465 414 428 q 476 561 476 503 q 449 641 476 610 q 372 672 422 672 q 289 644 321 672 q 247 575 257 615 q 232 575 240 568 q 225 589 224 582 q 253 639 235 615 q 297 681 272 663 q 350 710 321 699 q 411 721 379 721 z "},"¿":{"ha":404,"x_min":-81,"x_max":397,"o":"m 371 354 q 390 347 383 354 q 397 321 397 340 q 392 301 397 313 q 377 280 386 290 q 356 263 368 269 q 331 256 343 256 q 315 262 322 256 q 308 278 308 268 q 314 302 308 289 q 329 327 319 315 q 349 347 339 339 q 371 354 360 354 m 63 -367 q 4 -356 31 -367 q -41 -328 -22 -346 q -70 -288 -60 -311 q -81 -242 -81 -265 q -60 -150 -81 -187 q -9 -85 -40 -112 q 60 -39 22 -58 q 135 -1 99 -19 q 201 38 171 17 q 246 90 231 60 q 249 131 257 114 q 217 151 240 149 q 213 160 207 153 q 233 175 219 167 q 261 189 246 183 q 286 193 276 194 q 307 179 299 190 q 317 152 315 168 q 311 117 318 136 q 286 81 304 99 q 199 13 249 40 q 104 -44 149 -15 q 28 -111 60 -74 q -3 -207 -3 -149 q 24 -287 -3 -256 q 101 -318 51 -318 q 185 -290 153 -318 q 226 -221 217 -261 q 242 -221 233 -214 q 249 -235 250 -228 q 220 -285 239 -261 q 177 -326 201 -308 q 123 -356 153 -344 q 63 -367 93 -367 z "},"“":{"ha":256,"x_min":76,"x_max":335,"o":"m 94 356 q 82 373 88 358 q 76 404 76 388 q 111 497 76 450 q 201 575 146 543 q 208 571 207 575 q 204 560 210 567 q 156 514 175 542 q 138 454 138 486 q 153 417 138 424 q 152 402 157 413 q 138 381 147 392 q 116 363 128 371 q 94 356 104 356 m 219 356 q 207 373 213 358 q 201 404 201 388 q 236 497 201 450 q 326 575 271 543 q 333 571 332 575 q 329 560 335 567 q 281 514 300 542 q 263 454 263 486 q 278 417 263 424 q 277 402 282 413 q 263 381 272 392 q 241 363 253 371 q 219 356 229 356 z "},"”":{"ha":256,"x_min":67,"x_max":325,"o":"m 182 575 q 194 558 189 572 q 200 526 200 543 q 165 434 200 481 q 75 356 131 388 q 68 360 69 356 q 72 371 67 364 q 120 417 101 389 q 139 476 139 444 q 124 514 139 507 q 124 528 119 518 q 139 549 129 539 q 160 567 149 560 q 182 575 172 575 m 307 575 q 319 558 314 572 q 325 526 325 543 q 290 434 325 481 q 200 356 256 388 q 193 360 194 356 q 197 371 192 364 q 245 417 226 389 q 264 476 264 444 q 249 514 264 507 q 249 528 244 518 q 264 549 254 539 q 285 567 274 560 q 307 575 297 575 z "},"‘":{"ha":131,"x_min":76,"x_max":210,"o":"m 94 356 q 82 373 88 358 q 76 404 76 388 q 111 497 76 450 q 201 575 146 543 q 208 571 207 575 q 204 560 210 567 q 156 514 175 542 q 138 454 138 486 q 153 417 138 424 q 152 402 157 413 q 138 381 147 392 q 116 363 128 371 q 94 356 104 356 z "},"’":{"ha":131,"x_min":67,"x_max":200,"o":"m 182 575 q 194 558 189 572 q 200 526 200 543 q 165 434 200 481 q 75 356 131 388 q 68 360 69 356 q 72 371 67 364 q 120 417 101 389 q 139 476 139 444 q 124 514 139 507 q 124 528 119 518 q 139 549 129 539 q 160 567 149 560 q 182 575 172 575 z "},"r":{"ha":294,"x_min":38,"x_max":350,"o":"m 189 315 q 185 268 189 294 q 174 214 181 242 q 235 318 201 281 q 307 356 268 356 q 339 346 328 356 q 350 321 350 336 q 340 285 350 307 q 322 254 329 263 q 317 255 319 253 q 314 260 314 257 q 306 276 314 269 q 283 283 299 283 q 195 217 235 283 q 122 28 156 151 q 113 16 121 21 q 94 8 104 11 q 72 2 83 4 q 53 0 61 0 q 44 17 38 0 q 69 80 57 46 q 90 149 81 114 q 107 216 100 183 q 118 276 114 249 q 120 308 121 297 q 108 319 119 319 q 80 308 94 319 q 53 278 65 296 q 42 277 47 274 q 40 286 38 281 q 60 309 49 297 q 87 331 72 321 q 117 349 101 342 q 150 356 133 356 q 181 345 172 356 q 189 315 189 335 z "},"˚":{"ha":163,"x_min":24,"x_max":138,"o":"m 83 521 q 57 510 67 521 q 47 479 47 499 q 56 456 47 465 q 79 446 65 446 q 104 457 94 446 q 114 488 114 468 q 106 510 114 500 q 83 521 99 521 m 63 426 q 33 438 43 426 q 24 467 24 450 q 47 517 24 494 q 100 540 69 540 q 128 528 118 540 q 138 500 138 517 q 115 449 138 472 q 63 426 93 426 z "},"s":{"ha":286,"x_min":-7,"x_max":283,"o":"m 215 356 q 265 347 246 356 q 283 326 283 339 q 276 292 283 311 q 261 260 268 272 q 254 259 258 257 q 250 267 250 261 q 254 294 254 276 q 244 326 254 314 q 215 339 233 339 q 177 324 192 339 q 163 283 163 310 q 174 241 163 261 q 201 201 186 221 q 228 158 215 181 q 240 106 240 135 q 200 28 240 56 q 94 0 160 0 q 20 15 47 0 q -7 49 -7 31 q -3 64 -7 54 q 8 85 1 74 q 24 107 15 96 q 42 125 32 118 q 49 124 46 128 q 50 115 53 119 q 38 98 42 107 q 33 74 33 89 q 50 33 33 49 q 93 17 67 17 q 149 37 129 17 q 169 86 169 57 q 158 135 169 113 q 132 180 146 158 q 106 224 118 201 q 94 271 94 246 q 125 331 94 307 q 215 356 156 356 z "},"š":{"ha":286,"x_min":-7,"x_max":332,"o":"m 215 356 q 265 347 246 356 q 283 326 283 339 q 276 292 283 311 q 261 260 268 272 q 254 259 258 257 q 250 267 250 261 q 254 294 254 276 q 244 326 254 314 q 215 339 233 339 q 177 324 192 339 q 163 283 163 310 q 174 241 163 261 q 201 201 186 221 q 228 158 215 181 q 240 106 240 135 q 200 28 240 56 q 94 0 160 0 q 20 15 47 0 q -7 49 -7 31 q -3 64 -7 54 q 8 85 1 74 q 24 107 15 96 q 42 125 32 118 q 49 124 46 128 q 50 115 53 119 q 38 98 42 107 q 33 74 33 89 q 50 33 33 49 q 93 17 67 17 q 149 37 129 17 q 169 86 169 57 q 158 135 169 113 q 132 180 146 158 q 106 224 118 201 q 94 271 94 246 q 125 331 94 307 q 215 356 156 356 m 228 456 q 211 457 219 447 q 170 499 194 481 q 119 529 146 517 q 127 546 113 536 q 160 553 142 556 q 203 533 183 543 q 243 511 224 524 q 322 558 276 535 q 330 554 328 558 q 329 544 332 550 q 278 507 306 531 q 228 456 250 483 z "},"§":{"ha":624,"x_min":-69,"x_max":735,"o":"m 574 718 q 696 686 657 718 q 735 606 735 654 q 715 547 735 575 q 667 500 696 519 q 658 501 663 497 q 656 511 654 504 q 667 535 663 522 q 671 569 671 549 q 643 645 671 613 q 557 678 615 678 q 447 640 486 678 q 408 531 408 603 q 422 393 408 457 q 453 266 436 329 q 485 135 471 203 q 499 -12 499 67 q 472 -152 499 -92 q 397 -253 446 -212 q 280 -316 349 -294 q 126 -337 211 -337 q -14 -299 42 -337 q -69 -192 -69 -260 q -49 -120 -69 -156 q 19 -57 -28 -85 q 28 -59 25 -54 q 29 -71 32 -64 q 1 -153 1 -100 q 42 -257 1 -217 q 153 -297 82 -297 q 265 -256 228 -297 q 301 -143 301 -215 q 287 -3 301 -68 q 256 124 272 61 q 224 251 239 186 q 210 393 210 315 q 232 522 210 463 q 299 626 254 582 q 412 694 343 669 q 574 718 481 718 m 343 486 q 372 594 343 544 q 449 675 400 643 q 385 652 415 671 q 333 603 356 633 q 297 533 310 574 q 283 443 283 493 q 297 293 283 361 q 326 161 310 225 q 355 35 342 97 q 368 -96 368 -26 q 337 -216 368 -167 q 261 -293 306 -265 q 324 -267 294 -287 q 376 -216 353 -247 q 412 -142 399 -185 q 425 -51 425 -100 q 413 97 425 28 q 384 231 400 167 q 356 358 368 296 q 343 486 343 421 z "},";":{"ha":226,"x_min":-7,"x_max":203,"o":"m 139 257 q 119 264 126 257 q 113 290 113 271 q 118 310 113 299 q 133 331 124 321 q 154 349 142 342 q 181 356 167 356 q 195 349 188 356 q 203 333 203 343 q 197 308 203 322 q 181 283 190 294 q 160 265 172 272 q 139 257 149 257 m 108 101 q 121 84 115 99 q 126 53 126 69 q 92 -40 126 7 q 1 -118 57 -86 q -6 -114 -4 -118 q -1 -103 -7 -110 q 47 -57 28 -85 q 65 3 65 -29 q 50 40 65 33 q 51 55 46 44 q 65 76 56 65 q 87 94 75 86 q 108 101 99 101 z "},"/":{"ha":297,"x_min":-35,"x_max":535,"o":"m 532 868 q 456 742 500 817 q 363 583 413 668 q 260 406 313 497 q 160 231 208 315 q 72 72 113 146 q 4 -51 31 -1 q -7 -59 0 -57 q -20 -60 -14 -61 q -31 -56 -26 -60 q -33 -46 -35 -53 q 39 81 -3 8 q 127 235 81 153 q 224 404 174 317 q 324 576 275 492 q 417 738 372 661 q 499 875 463 814 q 521 881 507 882 q 532 868 535 879 z "},"Ä":{"ha":1410,"x_min":56,"x_max":1453,"o":"m 1301 926 q 1286 950 1286 926 q 1300 983 1286 964 q 1336 1001 1314 1001 q 1349 983 1349 1001 q 1335 945 1349 964 q 1301 926 1321 926 m 1408 926 q 1392 950 1392 926 q 1406 983 1392 964 q 1440 1001 1419 1001 q 1453 983 1453 1001 q 1439 945 1453 964 q 1408 926 1425 926 m 1418 813 q 1422 805 1422 810 q 1414 792 1422 800 q 1332 677 1368 742 q 1271 536 1296 613 q 1232 375 1246 460 q 1218 201 1218 290 q 1234 98 1218 135 q 1290 61 1250 61 q 1396 139 1346 61 q 1404 139 1400 142 q 1407 131 1408 136 q 1327 36 1371 72 q 1246 0 1283 0 q 1162 43 1190 0 q 1133 165 1133 86 q 1158 392 1133 276 q 1030 390 1093 392 q 907 386 967 389 q 819 294 861 338 q 736 215 776 251 q 508 57 625 114 q 250 0 390 0 q 130 33 175 0 q 70 118 85 67 q 71 231 56 169 q 132 349 86 292 q 142 348 136 351 q 146 335 147 344 q 110 255 114 300 q 130 170 107 210 q 201 103 153 131 q 324 76 250 76 q 545 125 442 76 q 740 257 649 174 q 804 317 772 285 q 871 383 836 349 q 779 377 822 381 q 699 368 736 374 q 696 375 692 369 q 708 387 700 381 q 728 398 717 393 q 751 404 740 403 q 808 406 769 406 q 894 408 846 407 q 1067 583 972 489 q 1293 779 1163 676 q 1101 830 1200 810 q 910 850 1001 850 q 739 792 806 850 q 657 611 672 735 q 649 606 654 604 q 643 614 644 607 q 744 822 660 750 q 964 894 829 894 q 1083 887 1021 894 q 1206 867 1146 879 q 1322 841 1267 856 q 1418 813 1376 826 m 1163 410 q 1225 604 1185 510 q 1324 778 1265 699 q 1106 586 1201 679 q 929 408 1010 493 q 1060 410 996 410 q 1163 410 1125 410 z "},"t":{"ha":260,"x_min":53,"x_max":315,"o":"m 308 349 q 314 341 315 346 q 301 333 313 336 q 253 332 281 333 q 196 328 226 331 q 150 195 168 260 q 132 90 132 131 q 168 43 132 43 q 249 106 204 43 q 256 106 253 108 q 258 96 260 103 q 199 28 235 57 q 128 0 163 0 q 74 17 92 0 q 57 65 57 35 q 76 176 57 106 q 126 321 96 247 q 60 310 90 317 q 56 317 53 311 q 69 328 60 322 q 90 340 78 335 q 114 344 103 344 q 125 344 119 344 q 136 346 131 344 q 174 424 154 386 q 213 492 193 461 q 235 509 221 501 q 264 521 250 517 q 287 526 278 525 q 294 521 296 526 q 248 440 271 485 q 204 347 225 396 q 258 349 231 349 q 308 349 285 349 z "},"˜":{"ha":308,"x_min":26,"x_max":281,"o":"m 29 461 q 68 498 46 481 q 106 519 90 515 q 124 517 115 522 q 144 506 133 513 q 169 494 156 500 q 204 488 183 488 q 240 497 225 488 q 265 524 254 506 q 275 524 269 526 q 279 518 281 522 q 242 473 264 493 q 182 453 221 453 q 150 458 164 453 q 126 470 136 464 q 106 481 115 476 q 89 486 97 486 q 67 476 78 485 q 40 453 56 468 q 29 461 26 450 z "},"u":{"ha":461,"x_min":44,"x_max":451,"o":"m 103 0 q 44 64 44 0 q 49 115 44 86 q 65 176 54 144 q 89 239 75 207 q 122 300 103 271 q 93 280 107 290 q 68 258 79 269 q 60 260 64 256 q 60 269 57 265 q 127 321 83 294 q 211 363 171 347 q 222 359 218 363 q 222 350 225 356 q 151 224 178 292 q 124 92 124 156 q 149 51 124 51 q 193 76 167 51 q 249 140 219 100 q 308 229 278 179 q 363 331 338 279 q 387 347 367 339 q 428 356 407 356 q 440 344 449 356 q 406 277 421 308 q 382 215 392 246 q 367 153 372 185 q 363 85 363 122 q 386 40 363 40 q 439 82 410 40 q 447 82 443 85 q 450 74 451 79 q 398 19 426 38 q 346 0 369 0 q 288 68 288 0 q 313 208 288 139 q 201 56 260 113 q 103 0 143 0 z "},"ú":{"ha":461,"x_min":44,"x_max":451,"o":"m 103 0 q 44 64 44 0 q 49 115 44 86 q 65 176 54 144 q 89 239 75 207 q 122 300 103 271 q 93 280 107 290 q 68 258 79 269 q 60 260 64 256 q 60 269 57 265 q 127 321 83 294 q 211 363 171 347 q 222 359 218 363 q 222 350 225 356 q 151 224 178 292 q 124 92 124 156 q 149 51 124 51 q 193 76 167 51 q 249 140 219 100 q 308 229 278 179 q 363 331 338 279 q 387 347 367 339 q 428 356 407 356 q 440 344 449 356 q 406 277 421 308 q 382 215 392 246 q 367 153 372 185 q 363 85 363 122 q 386 40 363 40 q 439 82 410 40 q 447 82 443 85 q 450 74 451 79 q 398 19 426 38 q 346 0 369 0 q 288 68 288 0 q 313 208 288 139 q 201 56 260 113 q 103 0 143 0 m 322 532 q 352 530 332 538 q 392 514 372 522 q 397 508 396 513 q 394 501 397 504 q 360 483 381 492 q 318 465 340 474 q 274 449 296 457 q 233 436 251 442 q 228 442 228 436 q 232 451 228 447 q 277 486 251 464 q 322 532 303 508 z "},"û":{"ha":461,"x_min":44,"x_max":451,"o":"m 103 0 q 44 64 44 0 q 49 115 44 86 q 65 176 54 144 q 89 239 75 207 q 122 300 103 271 q 93 280 107 290 q 68 258 79 269 q 60 260 64 256 q 60 269 57 265 q 127 321 83 294 q 211 363 171 347 q 222 359 218 363 q 222 350 225 356 q 151 224 178 292 q 124 92 124 156 q 149 51 124 51 q 193 76 167 51 q 249 140 219 100 q 308 229 278 179 q 363 331 338 279 q 387 347 367 339 q 428 356 407 356 q 440 344 449 356 q 406 277 421 308 q 382 215 392 246 q 367 153 372 185 q 363 85 363 122 q 386 40 363 40 q 439 82 410 40 q 447 82 443 85 q 450 74 451 79 q 398 19 426 38 q 346 0 369 0 q 288 68 288 0 q 313 208 288 139 q 201 56 260 113 q 103 0 143 0 m 278 549 q 294 547 285 556 q 335 506 311 524 q 386 475 360 488 q 378 458 393 468 q 346 451 364 449 q 302 471 322 461 q 263 493 282 481 q 183 446 229 469 q 176 450 178 446 q 176 460 174 454 q 228 497 200 474 q 278 549 256 521 z "},"ü":{"ha":461,"x_min":44,"x_max":451,"o":"m 103 0 q 44 64 44 0 q 49 115 44 86 q 65 176 54 144 q 89 239 75 207 q 122 300 103 271 q 93 280 107 290 q 68 258 79 269 q 60 260 64 256 q 60 269 57 265 q 127 321 83 294 q 211 363 171 347 q 222 359 218 363 q 222 350 225 356 q 151 224 178 292 q 124 92 124 156 q 149 51 124 51 q 193 76 167 51 q 249 140 219 100 q 308 229 278 179 q 363 331 338 279 q 387 347 367 339 q 428 356 407 356 q 440 344 449 356 q 406 277 421 308 q 382 215 392 246 q 367 153 372 185 q 363 85 363 122 q 386 40 363 40 q 439 82 410 40 q 447 82 443 85 q 450 74 451 79 q 398 19 426 38 q 346 0 369 0 q 288 68 288 0 q 313 208 288 139 q 201 56 260 113 q 103 0 143 0 m 200 439 q 183 448 190 439 q 176 469 176 457 q 181 488 176 478 q 194 508 186 499 q 212 525 201 518 q 235 532 222 532 q 248 524 242 532 q 254 507 254 515 q 249 484 254 496 q 237 463 244 472 q 219 446 229 453 q 200 439 210 439 m 326 439 q 310 448 317 439 q 303 469 303 457 q 308 488 303 478 q 321 508 313 499 q 340 525 329 518 q 363 532 350 532 q 376 524 369 532 q 382 507 382 515 q 377 484 382 496 q 364 463 372 472 q 346 446 356 453 q 326 439 336 439 z "},"ù":{"ha":461,"x_min":44,"x_max":451,"o":"m 103 0 q 44 64 44 0 q 49 115 44 86 q 65 176 54 144 q 89 239 75 207 q 122 300 103 271 q 93 280 107 290 q 68 258 79 269 q 60 260 64 256 q 60 269 57 265 q 127 321 83 294 q 211 363 171 347 q 222 359 218 363 q 222 350 225 356 q 151 224 178 292 q 124 92 124 156 q 149 51 124 51 q 193 76 167 51 q 249 140 219 100 q 308 229 278 179 q 363 331 338 279 q 387 347 367 339 q 428 356 407 356 q 440 344 449 356 q 406 277 421 308 q 382 215 392 246 q 367 153 372 185 q 363 85 363 122 q 386 40 363 40 q 439 82 410 40 q 447 82 443 85 q 450 74 451 79 q 398 19 426 38 q 346 0 369 0 q 288 68 288 0 q 313 208 288 139 q 201 56 260 113 q 103 0 143 0 m 363 451 q 363 444 365 449 q 353 439 360 439 q 275 465 317 449 q 206 500 233 482 q 203 505 203 501 q 206 511 203 508 q 245 533 224 526 q 271 536 267 540 q 313 493 288 517 q 363 451 338 469 z "},"_":{"ha":494,"x_min":-22,"x_max":440,"o":"m 46 -40 q 119 -37 69 -39 q 228 -35 169 -36 q 342 -35 286 -35 q 433 -35 397 -35 q 437 -49 440 -37 q 421 -62 433 -60 q 332 -63 385 -62 q 219 -65 279 -64 q 99 -71 160 -67 q -15 -81 38 -75 q -17 -73 -22 -79 q -2 -60 -12 -67 q 22 -47 8 -53 q 46 -40 35 -42 z "},"v":{"ha":424,"x_min":42,"x_max":417,"o":"m 165 19 q 120 6 146 13 q 69 0 94 0 q 60 18 53 0 q 100 145 83 76 q 124 268 117 214 q 108 317 128 317 q 57 285 88 317 q 46 286 50 282 q 44 296 42 290 q 101 338 69 321 q 164 356 132 356 q 192 343 185 356 q 199 311 199 331 q 193 249 199 285 q 178 173 188 213 q 159 95 169 133 q 139 26 149 57 q 216 63 178 36 q 285 124 254 89 q 334 199 315 158 q 353 282 353 240 q 331 318 353 318 q 310 313 318 318 q 294 296 303 308 q 288 297 290 293 q 286 306 285 301 q 320 338 296 321 q 371 356 344 356 q 405 340 393 356 q 417 300 417 324 q 396 219 417 260 q 340 140 375 178 q 260 72 306 103 q 165 19 214 40 z "},"w":{"ha":582,"x_min":29,"x_max":564,"o":"m 507 356 q 547 330 531 356 q 564 264 564 304 q 540 162 564 210 q 479 78 515 114 q 401 21 443 42 q 325 0 360 0 q 276 21 292 0 q 260 78 260 42 q 265 154 260 111 q 278 225 271 197 q 219 139 250 189 q 158 36 189 89 q 132 10 150 21 q 97 0 114 0 q 89 15 86 0 q 105 98 99 49 q 111 194 111 147 q 105 276 111 242 q 82 318 99 311 q 60 313 72 321 q 40 289 47 304 q 33 290 38 286 q 31 299 29 293 q 63 335 38 315 q 118 356 89 356 q 166 321 151 356 q 181 207 181 286 q 178 141 181 171 q 171 89 175 111 q 224 172 199 138 q 271 236 249 207 q 285 262 279 247 q 299 303 292 276 q 312 319 300 311 q 337 331 324 326 q 360 335 350 335 q 369 329 369 336 q 336 223 347 283 q 325 111 325 163 q 342 60 325 76 q 382 44 358 44 q 430 60 407 44 q 471 100 453 75 q 500 159 489 125 q 511 231 511 193 q 490 300 511 285 q 446 296 469 315 q 438 298 440 294 q 436 306 435 301 q 450 322 440 313 q 470 338 460 331 q 491 351 481 346 q 507 356 501 356 z "},"x":{"ha":393,"x_min":-10,"x_max":408,"o":"m 371 90 q 379 90 375 93 q 382 82 383 88 q 331 26 363 51 q 264 0 299 0 q 204 31 229 0 q 158 131 179 63 q 85 33 122 67 q 13 0 49 0 q -10 29 -10 0 q 14 111 -10 68 q 21 111 17 114 q 24 104 25 108 q 22 69 15 83 q 44 56 28 56 q 151 153 94 56 q 139 217 142 188 q 135 269 136 247 q 131 303 133 292 q 122 315 129 315 q 100 299 111 315 q 82 267 89 283 q 74 264 79 263 q 71 269 69 265 q 82 297 74 282 q 102 324 90 311 q 128 347 114 338 q 160 356 143 356 q 183 343 175 356 q 194 311 190 331 q 201 265 199 292 q 207 213 203 239 q 283 315 240 274 q 364 356 325 356 q 396 344 383 356 q 408 313 408 332 q 399 279 408 300 q 381 243 390 258 q 373 243 376 240 q 369 250 369 246 q 377 289 383 272 q 350 306 371 306 q 281 279 314 306 q 213 186 249 253 q 255 79 229 119 q 307 39 281 39 q 341 54 325 39 q 371 90 357 69 z "},"ý":{"ha":435,"x_min":-246,"x_max":444,"o":"m 356 532 q 385 530 365 538 q 425 514 406 522 q 430 508 429 513 q 428 501 431 504 q 394 483 414 492 q 351 465 374 474 q 307 449 329 457 q 267 436 285 442 q 261 442 261 436 q 265 451 261 447 q 310 486 285 464 q 356 532 336 508 m 357 315 q 388 342 363 329 q 432 356 413 356 q 442 346 444 356 q 381 178 411 260 q 319 11 351 97 q 147 -253 250 -168 q -74 -337 43 -337 q -200 -300 -154 -337 q -246 -210 -246 -262 q -225 -150 -246 -179 q -168 -108 -204 -121 q -160 -111 -162 -107 q -160 -119 -157 -115 q -182 -179 -182 -143 q -146 -274 -182 -237 q -42 -310 -110 -310 q 47 -294 7 -310 q 123 -240 88 -279 q 192 -136 158 -201 q 260 28 225 -71 q 290 110 276 74 q 317 189 303 146 q 263 113 290 147 q 206 53 235 78 q 151 14 178 28 q 103 0 125 0 q 63 17 75 0 q 50 63 50 33 q 70 174 50 111 q 125 296 90 238 q 97 278 110 286 q 74 258 85 269 q 66 260 69 256 q 65 269 63 265 q 92 291 75 279 q 128 314 108 303 q 167 336 147 325 q 207 356 188 347 q 218 343 221 356 q 178 281 196 315 q 149 213 161 247 q 130 146 136 179 q 124 86 124 113 q 149 47 124 47 q 201 75 171 47 q 262 144 232 103 q 317 231 292 185 q 357 315 343 278 z "},"ÿ":{"ha":435,"x_min":-246,"x_max":444,"o":"m 222 439 q 206 448 213 439 q 199 469 199 457 q 203 488 199 478 q 216 508 208 499 q 234 525 224 518 q 257 532 244 532 q 270 524 264 532 q 276 507 276 515 q 272 484 276 496 q 259 463 267 472 q 242 446 251 453 q 222 439 232 439 m 349 439 q 332 448 339 439 q 325 469 325 457 q 330 488 325 478 q 343 508 335 499 q 362 525 351 518 q 385 532 372 532 q 398 524 392 532 q 404 507 404 515 q 399 484 404 496 q 386 463 394 472 q 368 446 378 453 q 349 439 358 439 m 357 315 q 388 342 363 329 q 432 356 413 356 q 442 346 444 356 q 381 178 411 260 q 319 11 351 97 q 147 -253 250 -168 q -74 -337 43 -337 q -200 -300 -154 -337 q -246 -210 -246 -262 q -225 -150 -246 -179 q -168 -108 -204 -121 q -160 -111 -162 -107 q -160 -119 -157 -115 q -182 -179 -182 -143 q -146 -274 -182 -237 q -42 -310 -110 -310 q 47 -294 7 -310 q 123 -240 88 -279 q 192 -136 158 -201 q 260 28 225 -71 q 290 110 276 74 q 317 189 303 146 q 263 113 290 147 q 206 53 235 78 q 151 14 178 28 q 103 0 125 0 q 63 17 75 0 q 50 63 50 33 q 70 174 50 111 q 125 296 90 238 q 97 278 110 286 q 74 258 85 269 q 66 260 69 256 q 65 269 63 265 q 92 291 75 279 q 128 314 108 303 q 167 336 147 325 q 207 356 188 347 q 218 343 221 356 q 178 281 196 315 q 149 213 161 247 q 130 146 136 179 q 124 86 124 113 q 149 47 124 47 q 201 75 171 47 q 262 144 232 103 q 317 231 292 185 q 357 315 343 278 z "},"z":{"ha":335,"x_min":-17,"x_max":354,"o":"m 88 93 q 153 74 119 82 q 221 67 188 67 q 276 83 256 67 q 307 129 296 100 q 316 131 311 133 q 319 122 321 128 q 185 0 274 0 q 126 7 156 0 q 65 25 96 14 q 33 26 47 31 q -3 0 19 21 q -13 7 -10 0 q -14 21 -17 14 q 51 85 17 51 q 121 153 86 119 q 189 218 156 186 q 250 276 222 250 q 178 288 218 283 q 113 293 139 293 q 57 249 72 293 q 49 247 54 244 q 43 254 43 250 q 85 330 61 304 q 150 356 108 356 q 219 349 182 356 q 275 338 256 342 q 302 338 290 333 q 325 351 314 342 q 338 356 329 356 q 351 343 354 356 q 210 212 275 272 q 88 93 146 151 z "},"ž":{"ha":335,"x_min":-17,"x_max":361,"o":"m 88 93 q 153 74 119 82 q 221 67 188 67 q 276 83 256 67 q 307 129 296 100 q 316 131 311 133 q 319 122 321 128 q 185 0 274 0 q 126 7 156 0 q 65 25 96 14 q 33 26 47 31 q -3 0 19 21 q -13 7 -10 0 q -14 21 -17 14 q 51 85 17 51 q 121 153 86 119 q 189 218 156 186 q 250 276 222 250 q 178 288 218 283 q 113 293 139 293 q 57 249 72 293 q 49 247 54 244 q 43 254 43 250 q 85 330 61 304 q 150 356 108 356 q 219 349 182 356 q 275 338 256 342 q 302 338 290 333 q 325 351 314 342 q 338 356 329 356 q 351 343 354 356 q 210 212 275 272 q 88 93 146 151 m 257 456 q 240 457 249 447 q 199 499 224 481 q 149 529 175 517 q 156 546 142 536 q 189 553 171 556 q 233 533 213 543 q 272 511 253 524 q 351 558 306 535 q 359 554 357 558 q 358 544 361 550 q 307 507 335 531 q 257 456 279 483 z "},"A":{"ha":1410,"x_min":56,"x_max":1422,"o":"m 1418 813 q 1422 805 1422 810 q 1414 792 1422 800 q 1332 677 1368 742 q 1271 536 1296 613 q 1232 375 1246 460 q 1218 201 1218 290 q 1234 98 1218 135 q 1290 61 1250 61 q 1396 139 1346 61 q 1404 139 1400 142 q 1407 131 1408 136 q 1327 36 1371 72 q 1246 0 1283 0 q 1162 43 1190 0 q 1133 165 1133 86 q 1158 392 1133 276 q 1030 390 1093 392 q 907 386 967 389 q 819 294 861 338 q 736 215 776 251 q 508 57 625 114 q 250 0 390 0 q 130 33 175 0 q 70 118 85 67 q 71 231 56 169 q 132 349 86 292 q 142 348 136 351 q 146 335 147 344 q 110 255 114 300 q 130 170 107 210 q 201 103 153 131 q 324 76 250 76 q 545 125 442 76 q 740 257 649 174 q 804 317 772 285 q 871 383 836 349 q 779 377 822 381 q 699 368 736 374 q 696 375 692 369 q 708 387 700 381 q 728 398 717 393 q 751 404 740 403 q 808 406 769 406 q 894 408 846 407 q 1067 583 972 489 q 1293 779 1163 676 q 1101 830 1200 810 q 910 850 1001 850 q 739 792 806 850 q 657 611 672 735 q 649 606 654 604 q 643 614 644 607 q 744 822 660 750 q 964 894 829 894 q 1083 887 1021 894 q 1206 867 1146 879 q 1322 841 1267 856 q 1418 813 1376 826 m 1163 410 q 1225 604 1185 510 q 1324 778 1265 699 q 1106 586 1201 679 q 929 408 1010 493 q 1060 410 996 410 q 1163 410 1125 410 z "},"B":{"ha":924,"x_min":38,"x_max":946,"o":"m 731 506 q 805 468 772 493 q 860 410 838 443 q 896 342 883 378 q 908 274 908 307 q 885 164 908 214 q 816 77 863 114 q 697 20 769 40 q 526 0 625 0 q 253 42 369 0 q 42 164 138 85 q 44 180 38 171 q 63 196 50 189 q 90 206 75 203 q 117 203 104 208 q 169 169 143 176 q 235 168 196 161 q 295 195 271 175 q 340 258 319 215 q 381 371 360 301 q 432 546 403 440 q 505 726 461 650 q 611 856 549 803 q 594 856 603 856 q 574 857 585 857 q 483 844 528 857 q 399 807 439 832 q 328 747 360 782 q 276 665 296 711 q 269 665 272 663 q 267 674 265 667 q 317 757 283 717 q 397 828 350 797 q 504 876 444 858 q 631 894 564 894 q 649 894 640 894 q 665 893 657 894 q 726 923 694 910 q 794 944 758 936 q 801 940 801 944 q 794 932 801 935 q 703 890 744 919 q 885 821 825 875 q 946 694 946 767 q 929 618 946 653 q 884 558 913 583 q 816 519 856 533 q 731 506 776 506 m 557 21 q 669 38 619 21 q 751 85 718 56 q 802 156 785 115 q 819 243 819 196 q 597 483 819 424 q 601 497 593 488 q 621 515 608 506 q 647 529 633 524 q 669 533 661 535 q 694 525 683 528 q 721 522 704 522 q 770 533 746 522 q 813 563 794 544 q 844 608 832 582 q 856 665 856 635 q 806 783 856 732 q 656 850 756 835 q 517 571 567 758 q 445 353 481 436 q 372 224 410 271 q 290 161 333 178 q 193 142 247 144 q 358 55 264 89 q 557 21 453 21 z "},"D":{"ha":1135,"x_min":42,"x_max":1128,"o":"m 815 825 q 941 735 883 788 q 1040 621 999 683 q 1105 490 1082 558 q 1128 354 1128 422 q 1099 213 1128 278 q 1017 100 1069 147 q 890 26 964 53 q 725 0 815 0 q 626 6 672 0 q 540 23 581 13 q 460 47 499 33 q 385 72 422 60 q 267 17 332 35 q 124 0 203 0 q 60 10 79 0 q 42 39 42 21 q 55 78 42 57 q 92 118 68 100 q 149 148 117 136 q 222 160 182 160 q 322 150 276 160 q 411 125 367 140 q 503 275 460 181 q 593 517 546 369 q 653 669 621 603 q 729 785 686 736 q 612 827 674 813 q 483 842 550 842 q 377 824 422 842 q 301 775 332 806 q 253 704 271 744 q 228 619 235 664 q 221 618 225 617 q 217 625 217 619 q 247 731 222 682 q 315 817 272 781 q 415 874 357 853 q 547 894 474 894 q 671 880 611 894 q 786 839 731 865 q 865 888 822 868 q 960 918 907 907 q 964 913 964 918 q 960 906 964 908 q 815 825 878 883 m 171 25 q 276 37 229 25 q 363 79 322 49 q 268 103 317 93 q 161 113 219 113 q 115 101 129 113 q 100 71 100 90 q 117 38 100 50 q 171 25 135 25 m 793 46 q 989 116 926 46 q 1051 311 1051 186 q 1031 442 1051 376 q 972 567 1010 507 q 882 678 935 626 q 764 767 829 729 q 657 546 701 682 q 556 287 608 392 q 438 115 504 182 q 509 91 472 103 q 589 69 546 79 q 682 52 632 58 q 793 46 732 46 z "},"y":{"ha":435,"x_min":-246,"x_max":444,"o":"m 357 315 q 388 342 363 329 q 432 356 413 356 q 442 346 444 356 q 381 178 411 260 q 319 11 351 97 q 147 -253 250 -168 q -74 -337 43 -337 q -200 -300 -154 -337 q -246 -210 -246 -262 q -225 -150 -246 -179 q -168 -108 -204 -121 q -160 -111 -162 -107 q -160 -119 -157 -115 q -182 -179 -182 -143 q -146 -274 -182 -237 q -42 -310 -110 -310 q 47 -294 7 -310 q 123 -240 88 -279 q 192 -136 158 -201 q 260 28 225 -71 q 290 110 276 74 q 317 189 303 146 q 263 113 290 147 q 206 53 235 78 q 151 14 178 28 q 103 0 125 0 q 63 17 75 0 q 50 63 50 33 q 70 174 50 111 q 125 296 90 238 q 97 278 110 286 q 74 258 85 269 q 66 260 69 256 q 65 269 63 265 q 92 291 75 279 q 128 314 108 303 q 167 336 147 325 q 207 356 188 347 q 218 343 221 356 q 178 281 196 315 q 149 213 161 247 q 130 146 136 179 q 124 86 124 113 q 149 47 124 47 q 201 75 171 47 q 262 144 232 103 q 317 231 292 185 q 357 315 343 278 z "},"%":{"ha":599,"x_min":28,"x_max":571,"o":"m 161 394 q 104 365 124 394 q 85 293 85 336 q 101 236 85 258 q 146 214 118 214 q 202 243 182 214 q 222 317 222 272 q 205 372 222 349 q 161 394 188 394 m 108 171 q 51 194 75 171 q 28 256 28 217 q 42 319 28 288 q 80 377 56 351 q 135 419 104 403 q 200 435 167 435 q 258 411 236 435 q 281 351 281 388 q 265 289 281 321 q 226 231 250 257 q 171 188 201 204 q 108 171 140 171 m 450 222 q 393 194 413 222 q 374 122 374 165 q 391 65 374 86 q 436 43 408 43 q 492 72 472 43 q 513 146 513 100 q 495 200 513 178 q 450 222 478 222 m 399 0 q 341 23 364 0 q 318 85 318 46 q 332 149 318 117 q 369 206 346 181 q 424 248 393 232 q 490 264 456 264 q 549 240 526 264 q 571 181 571 217 q 556 118 571 150 q 516 60 540 86 q 461 17 492 33 q 399 0 431 0 m 536 510 q 311 209 424 364 q 103 -89 199 54 q 79 -97 92 -100 q 71 -82 67 -93 q 176 67 125 -6 q 278 211 226 139 q 385 359 329 283 q 504 519 440 435 q 526 524 513 526 q 536 510 540 521 z "},"‰":{"ha":883,"x_min":28,"x_max":856,"o":"m 160 393 q 103 364 122 393 q 83 293 83 335 q 100 235 83 257 q 146 213 117 213 q 202 242 182 213 q 222 315 222 271 q 205 370 222 347 q 160 393 188 393 m 108 171 q 51 194 74 171 q 28 254 28 217 q 42 319 28 286 q 79 377 56 351 q 134 419 103 403 q 200 435 165 435 q 258 411 236 435 q 281 351 281 388 q 265 289 281 321 q 226 231 250 257 q 170 188 201 204 q 108 171 139 171 m 450 222 q 392 193 413 222 q 372 122 372 164 q 390 64 372 86 q 435 42 407 42 q 491 71 471 42 q 511 144 511 100 q 494 199 511 176 q 450 222 476 222 m 397 0 q 340 23 364 0 q 317 83 317 46 q 331 148 317 115 q 369 206 344 181 q 424 248 393 232 q 489 264 456 264 q 547 240 525 264 q 569 181 569 217 q 554 117 569 149 q 515 59 539 85 q 460 17 490 33 q 397 0 429 0 m 735 222 q 678 193 697 222 q 658 122 658 164 q 675 64 658 86 q 721 42 692 42 q 777 71 757 42 q 797 144 797 100 q 780 199 797 176 q 735 222 763 222 m 683 0 q 626 23 649 0 q 603 83 603 46 q 617 148 603 115 q 654 206 631 181 q 709 248 678 232 q 775 264 740 264 q 833 240 811 264 q 856 181 856 217 q 840 117 856 149 q 801 59 825 85 q 745 17 776 33 q 683 0 714 0 m 535 508 q 310 208 424 364 q 101 -90 197 53 q 78 -98 90 -101 q 69 -82 65 -94 q 174 66 124 -6 q 277 210 225 138 q 384 358 329 282 q 503 519 439 433 q 526 523 513 526 q 535 508 539 519 z "},"#":{"ha":413,"x_min":18,"x_max":433,"o":"m 429 338 q 432 331 433 336 q 426 319 431 325 q 414 306 421 313 q 401 297 407 300 q 367 299 385 299 q 329 300 349 300 q 300 247 314 274 q 274 194 286 221 q 316 194 296 194 q 356 193 336 194 q 358 186 360 192 q 352 173 357 181 q 340 159 347 165 q 326 150 332 153 q 292 152 310 151 q 254 153 274 153 q 225 83 239 117 q 199 15 211 49 q 185 0 193 0 q 179 10 176 0 q 200 75 188 38 q 228 153 213 113 q 176 152 201 153 q 126 150 151 151 q 81 15 99 79 q 67 0 75 0 q 61 10 58 0 q 78 72 68 38 q 101 147 89 107 q 61 144 81 146 q 25 138 42 142 q 19 146 18 139 q 27 161 21 153 q 43 177 33 169 q 61 186 53 185 l 115 190 q 135 243 125 217 q 156 296 144 269 q 117 291 135 293 q 83 286 99 289 q 78 294 76 288 q 87 309 81 301 q 102 324 93 317 q 119 332 111 331 q 174 336 144 336 q 207 400 189 368 q 224 421 213 410 q 246 439 235 432 q 265 447 257 446 q 271 435 272 447 q 242 387 256 411 q 215 339 228 363 q 263 340 239 340 q 310 340 286 340 q 343 397 328 375 q 361 419 349 407 q 386 440 374 432 q 406 450 399 449 q 413 439 414 451 q 382 390 397 414 q 351 340 367 365 q 392 340 372 340 q 429 338 411 339 m 144 192 q 194 194 169 193 q 244 194 219 194 q 289 300 265 247 q 241 299 265 300 q 193 297 217 299 q 167 244 179 271 q 144 192 156 218 z "},"€":{"ha":522,"x_min":-1,"x_max":454,"o":"m 356 435 q 427 418 400 435 q 454 382 454 401 q 447 345 454 369 q 433 301 440 321 q 424 302 431 299 q 419 311 418 306 q 417 369 433 343 q 383 397 406 386 q 331 408 360 408 q 222 373 267 408 q 157 271 176 338 q 235 272 193 272 q 322 271 276 271 q 328 263 329 268 q 315 256 326 257 q 233 253 275 254 q 151 249 192 251 q 148 229 149 239 q 146 208 147 219 q 218 208 181 208 q 297 207 256 207 q 303 199 304 204 q 290 192 301 194 q 146 188 217 192 l 146 181 q 174 60 146 101 q 250 19 203 19 q 312 40 286 19 q 354 106 338 60 q 363 109 358 110 q 368 103 368 108 q 347 42 358 69 q 322 11 335 15 q 285 3 308 7 q 238 0 261 0 q 113 40 156 0 q 71 160 71 81 l 71 179 q 38 175 54 178 q 6 169 22 172 q 2 176 -1 171 q 15 188 6 182 q 38 198 25 193 q 61 204 50 203 q 67 205 64 204 q 75 206 71 206 q 78 224 76 215 q 83 242 81 232 q 56 238 69 239 q 31 233 43 236 q 27 240 24 235 q 40 251 31 246 q 61 262 49 257 q 85 268 74 267 l 94 268 q 194 387 126 339 q 356 435 263 435 z "},"¥":{"ha":451,"x_min":32,"x_max":481,"o":"m 435 435 q 467 417 457 435 q 481 375 478 399 q 468 368 476 363 q 408 396 453 396 q 363 383 385 396 q 319 347 340 369 q 278 296 297 325 q 242 235 258 267 q 285 234 263 235 q 335 233 308 233 q 340 226 342 231 q 328 218 339 221 q 279 218 303 218 q 232 215 256 218 q 214 172 224 197 l 311 172 q 317 164 318 169 q 303 156 315 158 q 254 156 278 156 q 207 154 231 156 q 186 51 186 96 q 190 28 186 35 q 207 21 194 21 q 239 26 228 21 q 244 22 243 26 q 243 14 246 17 q 227 9 239 11 q 201 5 215 7 q 172 1 186 3 q 147 0 157 0 q 125 8 132 0 q 118 38 118 15 q 126 97 118 68 q 142 149 133 125 q 91 142 117 146 q 39 135 65 139 q 35 142 32 136 q 48 153 39 147 q 69 163 57 158 q 93 168 82 168 q 122 171 108 171 q 150 172 135 171 q 161 210 160 196 q 113 204 138 207 q 63 196 89 201 q 60 204 56 199 q 73 215 64 210 q 94 225 82 221 q 118 231 107 229 q 141 233 129 232 q 164 233 153 233 q 152 347 169 304 q 99 389 135 389 q 68 376 81 389 q 59 376 63 374 q 58 385 56 379 q 101 419 74 403 q 147 435 129 435 q 178 423 163 435 q 206 387 194 411 q 222 324 217 363 q 222 235 228 286 q 333 389 281 343 q 435 435 385 435 z "},"$":{"ha":399,"x_min":14,"x_max":385,"o":"m 311 433 q 363 417 342 429 q 385 393 385 404 q 377 350 385 374 q 360 311 369 326 q 351 310 357 308 q 346 319 346 313 q 346 371 354 346 q 300 408 335 399 q 268 338 283 372 q 238 269 253 304 q 265 240 250 254 q 291 210 279 226 q 311 175 303 194 q 319 131 319 156 q 308 83 319 106 q 272 41 296 60 q 214 11 249 22 q 133 0 179 0 l 125 0 q 108 -42 117 -21 q 92 -86 100 -62 q 74 -99 83 -99 q 67 -87 65 -100 q 85 -42 76 -64 q 104 1 94 -19 q 39 24 64 7 q 14 58 14 40 q 19 79 14 67 q 33 105 25 92 q 52 131 42 118 q 74 154 63 144 q 83 151 79 156 q 85 140 88 147 q 69 111 72 129 q 68 78 65 93 q 115 29 75 43 q 156 126 136 81 q 194 219 175 172 q 157 267 174 243 q 140 324 140 290 q 178 401 140 368 q 288 435 217 433 q 329 526 306 478 q 344 534 336 536 q 350 521 353 532 q 331 476 340 499 q 311 433 321 454 m 253 107 q 240 162 253 139 q 210 204 226 185 q 172 115 190 160 q 135 25 154 71 q 149 24 139 24 q 225 46 197 24 q 253 107 253 68 m 207 344 q 212 314 207 328 q 224 289 217 300 q 249 347 236 317 q 278 410 263 376 q 225 391 243 408 q 207 344 207 374 z "},"¢":{"ha":283,"x_min":15,"x_max":311,"o":"m 263 432 q 297 410 283 425 q 311 381 311 396 q 307 364 311 374 q 297 344 303 354 q 283 327 290 335 q 269 317 275 319 q 264 317 267 315 q 261 322 261 319 q 263 354 268 338 q 239 381 258 371 q 182 250 210 314 q 126 121 154 186 l 136 121 q 185 132 164 121 q 226 168 206 143 q 235 167 231 171 q 236 157 239 163 q 178 104 213 126 q 110 79 144 82 q 76 -2 93 39 q 44 -87 60 -43 q 27 -101 36 -100 q 19 -89 18 -101 q 56 -1 39 -43 q 89 79 72 40 q 35 102 54 82 q 15 161 15 122 q 36 261 15 213 q 90 348 57 310 q 163 410 124 386 q 240 435 203 433 q 260 480 250 457 q 281 526 269 503 q 297 534 288 536 q 303 521 306 532 q 282 476 292 497 q 263 432 272 454 m 110 129 q 162 253 136 192 q 219 386 188 314 q 204 388 215 388 q 119 337 150 388 q 89 194 89 286 q 110 129 89 147 z "},"£":{"ha":490,"x_min":8,"x_max":478,"o":"m 421 435 q 454 424 442 435 q 472 398 467 414 q 476 362 478 382 q 467 321 475 342 q 458 317 463 315 q 451 324 453 319 q 431 365 449 349 q 375 382 413 382 q 333 376 350 382 q 305 355 317 371 q 284 309 293 339 q 265 229 275 279 q 325 229 293 229 q 394 228 357 229 q 400 220 401 225 q 388 213 399 215 q 261 208 321 213 q 239 135 253 167 q 207 81 225 104 q 281 53 242 67 q 372 39 319 39 q 412 45 399 39 q 440 65 425 51 q 449 65 446 68 q 450 56 453 63 q 392 8 419 25 q 324 -8 364 -8 q 236 6 274 -8 q 165 36 199 21 q 107 8 138 17 q 49 -1 76 -1 q 8 21 8 -1 q 17 47 8 33 q 42 71 26 60 q 81 89 58 82 q 129 96 103 96 q 168 92 149 96 q 185 139 176 111 q 200 203 193 167 q 161 198 181 200 q 121 192 142 196 q 118 199 114 193 q 131 210 122 204 q 153 220 140 215 q 176 226 165 225 q 191 227 183 226 q 206 228 199 228 q 238 312 217 274 q 288 377 260 350 q 351 419 317 404 q 421 435 385 435 m 83 25 q 139 47 117 25 q 72 61 104 61 q 50 44 50 61 q 59 30 50 35 q 83 25 68 25 z "},"*":{"ha":267,"x_min":57,"x_max":294,"o":"m 278 453 q 244 451 263 451 q 211 449 226 450 q 174 446 193 447 l 201 418 q 225 394 213 407 q 247 374 238 382 q 247 361 253 368 q 232 349 242 354 q 213 341 222 343 q 201 346 204 339 q 190 373 196 357 q 176 403 183 389 q 161 436 169 418 q 140 401 150 418 q 124 372 132 386 q 108 346 115 357 q 95 340 104 339 q 77 345 86 340 q 63 356 68 350 q 63 367 58 363 q 89 392 74 378 q 118 418 104 406 q 150 447 133 433 q 118 450 133 449 q 90 451 104 451 q 64 453 75 451 q 59 461 57 453 q 67 479 61 469 q 82 495 74 489 q 96 499 90 501 q 115 487 104 493 q 135 475 125 481 q 157 461 146 468 q 161 494 158 478 q 165 524 164 508 q 168 553 165 540 q 180 567 169 561 q 203 575 190 572 q 224 576 215 578 q 229 568 232 574 q 213 535 222 553 q 194 501 203 518 l 175 463 q 215 479 196 471 q 250 493 232 486 q 283 507 268 500 q 292 501 290 510 q 293 483 294 493 q 288 463 292 472 q 278 453 283 453 z "},"ƒ":{"ha":315,"x_min":-108,"x_max":382,"o":"m 332 435 q 374 404 365 435 q 364 339 382 374 q 351 342 357 332 q 340 373 353 357 q 296 389 328 389 q 258 383 274 389 q 231 358 243 378 q 206 301 218 338 q 182 201 194 264 q 247 203 214 203 q 313 203 281 203 q 317 194 319 200 q 304 186 315 189 q 244 183 278 185 q 176 178 211 181 q 76 -57 138 11 q -67 -125 14 -125 q -99 -104 -90 -125 q -101 -57 -108 -83 q -92 -54 -97 -51 q -26 -87 -78 -87 q 15 -78 -3 -87 q 47 -42 32 -69 q 75 37 61 -14 q 107 172 89 88 q 40 164 67 168 q 38 171 33 165 q 51 182 42 176 q 72 192 60 188 q 96 199 85 197 q 113 200 107 199 q 147 291 125 249 q 198 365 169 333 q 260 416 226 397 q 332 435 294 435 z "},"ª":{"ha":342,"x_min":76,"x_max":307,"o":"m 279 289 q 285 289 282 292 q 286 282 288 286 q 253 248 269 258 q 226 238 238 238 q 206 260 210 238 q 213 322 201 282 q 166 263 188 283 q 119 238 144 243 q 88 253 100 238 q 76 293 76 268 q 88 345 76 319 q 119 390 100 371 q 165 422 139 410 q 218 435 190 435 q 261 422 244 435 q 279 430 265 426 q 300 433 293 433 q 307 429 307 433 q 276 383 289 408 q 255 337 263 358 q 246 298 247 315 q 249 274 244 281 q 279 289 258 261 m 140 271 q 161 281 149 271 q 187 308 174 292 q 213 347 200 325 q 236 394 226 369 q 201 414 229 414 q 143 387 165 414 q 121 304 121 360 q 127 279 121 288 q 140 271 133 271 z "},"º":{"ha":271,"x_min":69,"x_max":238,"o":"m 185 435 q 223 415 208 435 q 238 372 238 396 q 227 323 238 347 q 200 280 217 299 q 163 249 183 261 q 122 238 143 238 q 84 253 99 238 q 69 299 69 269 q 78 349 69 324 q 103 392 88 374 q 140 423 119 411 q 185 435 161 435 m 149 268 q 182 288 168 268 q 196 344 196 308 q 185 388 196 372 q 158 404 175 404 q 113 325 113 404 q 123 283 113 297 q 149 268 133 268 z "},"™":{"ha":549,"x_min":67,"x_max":514,"o":"m 506 268 q 511 267 508 271 q 513 261 514 264 q 490 245 506 254 q 464 236 475 236 q 447 243 453 236 q 442 269 442 250 q 444 324 442 296 q 451 376 447 351 q 403 318 424 344 q 358 254 383 292 q 349 242 354 247 q 338 236 343 236 q 332 242 332 236 q 350 381 340 324 q 291 308 317 346 q 235 217 265 271 q 221 228 225 214 q 222 250 217 243 q 299 344 254 294 q 385 432 343 394 q 391 432 388 435 q 394 426 394 429 q 382 360 386 390 q 374 299 378 331 q 427 367 397 332 q 493 433 457 401 q 500 428 500 438 q 483 360 488 396 q 478 288 478 324 q 481 267 478 272 q 492 263 483 263 q 506 268 501 263 m 263 413 q 231 413 247 413 q 196 414 214 414 q 174 365 183 390 q 153 307 164 340 q 143 254 143 279 q 128 242 142 249 q 100 236 115 236 q 93 244 93 236 q 121 328 104 288 q 157 403 138 369 q 174 414 161 408 q 123 413 147 414 q 75 411 99 413 q 70 417 67 413 q 85 424 74 422 q 126 428 101 426 q 176 432 150 431 q 229 434 203 433 q 276 435 256 435 q 276 424 282 433 q 263 413 269 415 z "},"©":{"ha":474,"x_min":83,"x_max":439,"o":"m 292 435 q 334 427 319 435 q 349 411 349 419 q 342 381 349 400 q 329 354 336 363 q 319 361 319 351 q 321 386 326 374 q 303 403 317 396 q 269 411 289 411 q 215 388 232 411 q 197 329 197 365 q 258 257 197 257 q 295 265 282 257 q 315 286 308 274 q 322 286 318 289 q 325 279 325 283 q 296 249 317 263 q 244 236 275 236 q 184 257 206 236 q 163 314 163 278 q 172 358 163 336 q 198 397 181 379 q 239 424 215 414 q 292 435 263 435 m 276 485 q 208 471 239 485 q 157 434 178 457 q 125 381 136 411 q 114 317 114 350 q 146 226 114 260 q 249 192 178 192 q 309 205 281 192 q 359 240 338 218 q 393 293 381 263 q 406 358 406 324 q 370 451 406 418 q 276 485 335 485 m 222 168 q 119 206 156 168 q 83 307 83 244 q 100 381 83 344 q 145 445 117 417 q 213 490 174 474 q 297 507 251 507 q 352 497 326 507 q 397 470 378 488 q 428 428 417 453 q 439 375 439 404 q 422 294 439 332 q 376 228 406 257 q 308 184 347 200 q 222 168 268 168 z "},"®":{"ha":474,"x_min":83,"x_max":439,"o":"m 297 507 q 352 497 326 507 q 397 470 378 488 q 428 428 417 453 q 439 375 439 404 q 422 294 439 332 q 376 228 406 257 q 308 184 347 200 q 222 168 268 168 q 119 206 154 168 q 83 307 83 244 q 99 381 83 344 q 144 445 115 417 q 213 490 174 474 q 297 507 251 507 m 247 192 q 308 205 279 192 q 358 240 336 218 q 392 293 379 263 q 404 358 404 324 q 369 451 404 418 q 276 485 335 485 q 208 471 239 485 q 157 434 178 457 q 125 381 136 411 q 114 317 114 350 q 145 226 114 260 q 247 192 176 192 m 342 386 q 271 325 342 338 q 288 274 279 289 q 311 258 296 258 q 329 265 322 258 q 334 264 332 267 q 335 256 336 261 q 316 242 328 249 q 292 236 304 236 q 257 258 268 236 q 239 324 246 279 q 240 332 239 331 q 251 338 244 335 q 263 342 258 340 q 268 343 265 344 q 275 342 271 342 q 297 347 288 339 q 308 372 308 354 q 256 414 308 414 q 240 381 249 401 q 224 339 232 361 q 208 293 215 317 q 197 249 201 269 q 183 240 193 243 q 163 236 174 236 q 158 240 158 236 q 185 326 169 283 q 221 403 201 369 q 236 414 225 410 q 209 408 222 411 q 183 399 196 406 q 182 406 178 399 q 193 417 186 413 q 279 435 232 435 q 326 421 310 435 q 342 386 342 407 z "},"−":{"ha":418,"x_min":67,"x_max":379,"o":"m 117 218 q 168 219 138 218 q 233 219 199 219 q 303 219 267 219 q 374 217 340 218 q 378 212 379 217 q 374 201 378 207 q 363 191 369 196 q 347 185 356 186 q 213 185 285 186 q 75 182 142 185 q 74 199 67 185 q 117 218 82 214 z "},"+":{"ha":418,"x_min":67,"x_max":379,"o":"m 374 217 q 378 212 379 217 q 374 201 378 207 q 363 191 369 196 q 347 185 356 186 l 235 185 q 214 126 224 154 q 194 69 204 97 q 185 55 192 61 q 170 47 178 49 q 157 47 163 44 q 151 54 151 49 q 171 120 161 88 q 192 185 181 153 q 133 184 163 185 q 76 182 104 183 q 75 199 67 185 q 117 218 83 214 q 156 219 133 219 q 204 219 178 219 q 226 279 215 250 q 247 338 236 308 q 256 348 249 343 q 272 355 264 353 q 287 356 281 357 q 293 349 293 354 q 269 282 281 314 q 246 219 257 250 q 310 218 278 218 q 374 217 343 218 z "},"±":{"ha":418,"x_min":7,"x_max":382,"o":"m 376 217 q 381 212 382 217 q 376 201 381 207 q 365 191 372 196 q 350 185 358 186 l 236 185 q 201 85 218 135 q 191 71 199 76 q 176 63 183 65 q 163 63 168 61 q 157 69 157 64 q 175 129 167 101 q 193 185 183 157 q 135 183 164 183 q 78 182 106 183 q 77 199 69 185 q 119 218 85 214 q 158 219 136 219 q 206 219 181 219 q 227 278 217 249 q 249 338 238 307 q 258 348 250 343 q 274 355 265 353 q 289 356 282 357 q 296 349 296 354 q 271 281 282 313 q 249 219 260 249 q 313 218 281 218 q 376 217 346 218 m 313 35 q 318 30 318 35 q 314 19 318 25 q 303 8 310 13 q 288 3 296 3 q 153 2 224 3 q 15 0 82 1 q 15 17 7 3 q 57 36 22 32 q 108 37 78 36 q 173 38 139 38 q 243 37 207 38 q 313 35 279 36 z "},"÷":{"ha":418,"x_min":68,"x_max":381,"o":"m 118 217 q 169 217 139 217 q 234 218 200 218 q 305 217 268 218 q 375 215 342 217 q 380 210 381 215 q 375 200 379 206 q 364 190 371 194 q 349 183 357 185 q 215 184 286 185 q 76 181 143 183 q 76 198 68 183 q 118 217 83 213 m 285 286 q 274 263 285 275 q 256 251 264 251 q 239 262 247 251 q 231 281 231 272 q 240 302 231 290 q 260 314 249 314 q 277 304 269 314 q 285 286 285 294 m 228 118 q 217 96 228 107 q 197 85 207 85 q 181 94 189 85 q 172 113 172 104 q 182 134 172 122 q 203 146 192 146 q 219 136 211 146 q 228 118 228 126 z "},"×":{"ha":418,"x_min":69,"x_max":386,"o":"m 342 326 q 356 330 347 329 q 371 329 364 331 q 382 325 378 328 q 383 317 386 322 q 314 258 349 288 q 247 197 279 228 q 278 139 263 168 q 307 85 294 110 q 305 78 308 82 q 297 71 301 74 q 286 67 292 68 q 279 69 281 67 q 251 121 265 94 q 222 175 238 147 q 167 124 194 149 q 115 75 140 99 q 100 69 108 71 q 85 69 92 68 q 74 72 78 69 q 72 81 69 75 q 140 140 106 110 q 208 201 174 169 q 178 256 193 229 q 149 310 164 283 q 159 326 147 318 q 176 326 171 335 q 201 283 186 310 q 233 224 215 256 q 288 274 261 249 q 342 326 314 300 z "},"=":{"ha":418,"x_min":51,"x_max":397,"o":"m 135 269 q 186 270 156 269 q 251 271 217 271 q 322 270 286 271 q 392 268 358 269 q 397 263 397 268 q 392 252 396 258 q 381 241 388 246 q 367 236 375 236 q 232 237 303 238 q 94 233 161 236 q 94 251 86 236 q 135 269 101 265 m 101 168 q 153 168 122 168 q 217 168 183 168 q 288 167 251 168 q 357 167 324 167 q 358 150 368 164 q 332 135 349 136 q 197 134 268 135 q 60 132 126 133 q 59 149 51 135 q 101 168 67 163 z "},"þ":{"ha":410,"x_min":-47,"x_max":396,"o":"m 328 356 q 378 326 360 356 q 396 256 396 296 q 373 152 396 199 q 313 72 350 106 q 226 19 275 38 q 128 0 178 0 q 88 6 104 0 q 46 -141 65 -64 q 26 -285 26 -218 q 58 -310 26 -317 q 79 -304 69 -308 q 100 -294 89 -300 q 106 -299 104 -293 q 104 -310 107 -306 q 80 -319 96 -314 q 46 -329 64 -325 q 10 -336 28 -333 q -21 -339 -8 -339 q -47 -317 -47 -339 q -24 -158 -47 -250 q 36 39 0 -65 q 31 49 33 44 q 25 60 28 54 q 47 72 25 67 q 98 206 71 139 q 151 335 125 272 q 203 455 178 399 q 249 557 228 511 q 272 628 275 615 q 254 633 269 642 q 233 618 244 628 q 210 594 221 608 q 203 597 207 593 q 201 606 199 601 q 226 628 211 615 q 258 653 242 642 q 292 672 275 664 q 321 679 308 679 q 342 667 338 679 q 340 638 347 654 q 325 600 338 629 q 295 531 313 571 q 258 444 278 490 q 222 356 239 397 q 190 283 204 314 q 172 242 176 251 q 203 281 186 261 q 241 318 221 301 q 283 345 261 335 q 328 356 306 356 m 163 28 q 277 79 229 28 q 325 231 325 131 q 313 286 325 265 q 275 307 300 307 q 199 250 243 307 q 118 90 154 193 q 110 67 114 79 q 101 43 106 56 q 163 28 124 28 z "},"µ":{"ha":494,"x_min":-28,"x_max":483,"o":"m 469 69 q 478 69 474 72 q 479 61 482 67 q 431 17 460 33 q 379 0 403 0 q 324 67 324 0 q 351 215 324 136 q 296 124 325 164 q 240 57 267 85 q 189 15 213 29 q 150 0 165 0 q 124 27 131 0 q 132 113 117 54 q 85 -29 106 49 q 61 -174 64 -107 q 53 -185 61 -179 q 33 -197 44 -192 q 8 -207 21 -203 q -14 -211 -4 -211 q -26 -197 -28 -211 q 6 -67 -14 -135 q 52 67 26 0 q 108 199 78 135 q 169 317 138 263 q 185 329 175 322 q 206 342 194 336 q 227 351 217 347 q 244 356 238 354 q 255 351 251 356 q 256 343 258 347 q 189 227 215 285 q 163 107 163 169 q 188 65 163 65 q 232 88 206 65 q 288 147 258 110 q 346 231 317 183 q 400 331 375 279 q 410 340 401 335 q 428 348 418 344 q 447 353 438 351 q 464 356 457 356 q 478 344 483 356 q 442 276 457 308 q 418 214 428 244 q 403 152 408 183 q 399 83 399 121 q 422 39 399 39 q 469 69 443 39 z "},"Þ":{"ha":1089,"x_min":69,"x_max":1144,"o":"m 883 736 q 993 714 944 733 q 1075 663 1042 694 q 1126 591 1108 632 q 1144 504 1144 550 q 1116 383 1144 435 q 1039 296 1088 331 q 926 243 990 261 q 788 225 861 225 q 694 242 733 225 q 513 57 614 114 q 294 0 413 0 q 203 14 244 0 q 132 53 161 28 q 86 113 103 78 q 69 190 69 149 q 107 312 69 258 q 200 383 144 365 q 208 374 213 386 q 148 314 168 351 q 128 233 128 276 q 140 162 128 196 q 180 103 153 128 q 249 63 207 78 q 350 49 292 49 q 445 58 403 49 q 523 92 488 68 q 589 160 558 117 q 647 269 619 203 q 618 297 632 281 q 620 306 617 303 q 628 308 624 310 q 654 288 642 294 q 692 389 674 332 q 729 517 710 446 q 760 614 744 569 q 794 697 775 658 q 644 644 699 690 q 567 524 589 599 q 558 523 563 519 q 553 536 553 526 q 586 604 565 571 q 638 665 607 638 q 713 710 669 692 q 813 733 756 728 q 924 876 861 825 q 1065 946 986 926 q 1073 940 1072 946 q 1067 931 1074 933 q 963 869 1006 914 q 883 736 919 824 m 793 253 q 906 272 857 253 q 989 322 956 290 q 1039 395 1022 353 q 1056 486 1056 438 q 1008 629 1056 574 q 868 696 960 685 q 850 643 858 671 q 833 583 842 615 q 707 264 782 388 q 793 253 749 253 z "},"Œ":{"ha":1224,"x_min":97,"x_max":1296,"o":"m 1111 894 q 1183 888 1149 894 q 1242 869 1217 881 q 1281 844 1267 858 q 1296 815 1296 829 q 1291 788 1296 804 q 1278 754 1286 771 q 1263 723 1271 738 q 1251 703 1256 708 q 1244 703 1249 700 q 1240 711 1239 706 q 1252 744 1249 726 q 1246 782 1256 763 q 1185 841 1229 817 q 1079 865 1140 865 q 954 827 996 865 q 913 726 913 789 q 945 644 913 678 q 1057 586 978 610 q 1056 576 1061 583 q 1044 559 1051 568 q 1026 543 1036 550 q 1011 535 1017 536 q 773 469 857 542 q 689 253 689 396 q 703 163 689 204 q 744 90 717 121 q 810 42 771 60 q 897 25 849 25 q 1083 78 1011 25 q 1188 249 1156 131 q 1197 253 1192 256 q 1203 242 1201 250 q 1163 113 1185 164 q 1121 53 1140 61 q 1003 13 1063 26 q 861 0 943 0 q 657 64 725 0 q 544 17 603 33 q 422 0 485 0 q 284 24 344 0 q 182 92 224 49 q 119 194 140 136 q 97 322 97 253 q 117 463 97 393 q 174 597 138 533 q 262 715 211 660 q 374 809 313 769 q 503 872 435 849 q 646 894 572 894 q 774 872 718 894 q 869 810 829 850 q 965 871 904 847 q 1111 894 1025 894 m 944 563 q 861 622 893 585 q 829 708 829 660 l 829 713 q 735 806 794 771 q 586 842 675 842 q 418 805 493 842 q 291 704 343 768 q 210 553 239 640 q 182 368 182 467 q 203 237 182 296 q 265 136 224 178 q 365 72 306 94 q 500 49 424 49 q 639 83 569 49 q 596 219 596 135 q 622 342 596 286 q 695 443 649 399 q 806 518 742 488 q 944 563 869 549 z "},"ﬂ":{"ha":447,"x_min":-411,"x_max":935,"o":"m 879 1032 q 913 1022 900 1032 q 931 994 926 1011 q 931 954 935 976 q 915 910 928 932 q 908 909 913 907 q 904 917 904 911 q 892 944 907 933 q 846 956 878 956 q 731 913 789 956 q 620 801 674 871 q 519 642 567 732 q 438 456 472 551 q 383 265 403 360 q 363 92 363 169 q 386 51 363 51 q 419 65 403 51 q 454 107 435 79 q 463 106 460 110 q 465 96 467 103 q 400 27 438 54 q 332 0 363 0 q 294 15 304 0 q 283 53 283 29 q 301 178 283 106 q 350 333 319 250 q 284 332 318 333 q 214 328 250 331 q 209 313 211 321 q 204 299 207 306 q 88 3 150 125 q -42 -194 25 -118 q -179 -304 -110 -269 q -317 -339 -249 -339 q -387 -317 -364 -339 q -411 -260 -411 -294 q -385 -192 -411 -222 q -377 -191 -381 -189 q -375 -197 -374 -193 q -380 -227 -382 -211 q -367 -257 -378 -243 q -336 -280 -357 -271 q -282 -289 -315 -289 q -204 -281 -240 -289 q -135 -251 -168 -274 q -72 -190 -103 -229 q -10 -85 -42 -150 q 56 74 22 -19 q 131 297 90 168 q 134 310 133 304 q 138 322 135 315 q 89 316 113 319 q 43 308 65 313 q 40 315 36 310 q 53 326 44 321 q 75 337 63 332 q 99 343 88 342 q 121 345 110 344 q 146 346 132 346 q 258 626 197 504 q 385 831 319 749 q 521 955 451 913 q 658 997 590 997 q 703 988 682 997 q 736 963 724 978 q 810 1013 774 994 q 879 1032 846 1032 m 356 350 q 423 506 385 426 q 505 660 461 585 q 596 802 549 735 q 692 919 643 869 q 660 933 676 928 q 619 938 643 938 q 549 931 582 938 q 486 903 517 925 q 426 843 456 882 q 365 738 397 804 q 297 577 333 672 q 219 349 261 482 q 288 349 253 349 q 356 350 322 350 z "},"Ł":{"ha":938,"x_min":42,"x_max":1035,"o":"m 939 894 q 1008 865 982 894 q 1035 793 1035 836 q 1022 728 1035 765 q 996 668 1010 690 q 984 667 990 664 q 979 676 978 669 q 988 726 989 701 q 973 772 986 751 q 934 805 960 792 q 869 818 908 818 q 786 803 822 818 q 720 750 750 788 q 665 651 690 713 q 613 496 639 589 q 699 513 656 506 q 788 528 743 521 q 800 522 803 531 q 782 510 797 514 q 696 494 740 503 q 607 474 651 485 q 599 445 603 460 q 592 415 594 431 q 457 129 544 231 q 588 86 519 106 q 740 67 657 67 q 847 92 811 67 q 906 165 882 117 q 916 165 911 168 q 919 153 921 161 q 831 39 886 78 q 682 0 775 0 q 533 24 600 0 q 401 76 465 49 q 153 0 300 0 q 69 19 97 0 q 42 68 42 39 q 55 107 42 86 q 92 146 68 128 q 148 176 115 164 q 221 189 181 189 q 322 175 272 189 q 422 142 371 161 q 468 240 446 182 q 513 382 490 299 q 523 419 518 401 q 533 454 528 436 q 460 431 496 443 q 390 404 424 419 q 390 419 379 404 q 428 446 400 435 q 482 463 454 454 q 542 479 510 471 q 711 786 608 678 q 939 894 814 894 m 215 36 q 305 46 265 36 q 378 86 344 56 q 272 126 325 110 q 160 142 219 142 q 96 100 96 142 q 128 53 96 71 q 215 36 160 36 z "},"ł":{"ha":208,"x_min":40,"x_max":692,"o":"m 635 1032 q 669 1022 656 1032 q 687 994 682 1011 q 688 954 692 976 q 672 910 685 932 q 665 910 669 907 q 661 917 661 913 q 649 944 663 933 q 603 956 635 956 q 511 928 557 956 q 421 854 465 901 q 335 744 376 807 q 258 608 293 681 q 310 624 282 617 q 372 642 338 632 q 382 638 383 644 q 369 626 381 632 q 305 607 333 615 q 249 588 276 599 q 196 460 219 525 q 155 331 172 394 q 128 206 138 267 q 119 93 119 146 q 142 51 119 51 q 176 65 160 51 q 211 107 192 79 q 219 106 215 110 q 222 97 224 103 q 157 28 194 56 q 89 0 119 0 q 51 15 61 0 q 40 54 40 31 q 53 157 40 97 q 88 284 65 217 q 143 425 111 351 q 213 572 175 499 q 167 550 190 561 q 118 524 144 539 q 116 536 108 522 q 146 561 124 550 q 225 596 190 582 q 324 761 271 682 q 430 901 376 840 q 536 997 483 961 q 635 1032 589 1032 z "},"|":{"ha":236,"x_min":111,"x_max":153,"o":"m 153 -337 l 111 -337 l 111 896 l 153 896 l 153 -337 z "},"¦":{"ha":238,"x_min":113,"x_max":154,"o":"m 113 435 l 113 896 l 154 896 l 154 435 l 113 435 m 154 122 l 154 -337 l 113 -337 l 113 122 l 154 122 z "},"˙":{"ha":146,"x_min":28,"x_max":118,"o":"m 56 443 q 35 450 43 443 q 28 476 28 457 q 33 496 28 485 q 49 517 39 507 q 71 535 58 528 q 96 542 83 542 q 111 535 104 542 q 118 519 118 529 q 113 494 118 508 q 97 469 107 481 q 76 451 88 458 q 56 443 65 443 z "},"‚":{"ha":169,"x_min":1,"x_max":135,"o":"m 117 97 q 129 80 124 94 q 135 49 135 65 q 100 -44 135 3 q 10 -122 65 -90 q 3 -118 4 -122 q 7 -107 1 -114 q 55 -61 36 -89 q 74 -1 74 -33 q 58 36 74 29 q 59 51 54 40 q 74 72 64 61 q 95 90 83 82 q 117 97 107 97 z "},"„":{"ha":294,"x_min":1,"x_max":260,"o":"m 117 97 q 129 80 124 94 q 135 49 135 65 q 100 -44 135 3 q 10 -122 65 -90 q 3 -118 4 -122 q 7 -107 1 -114 q 55 -61 36 -89 q 74 -1 74 -33 q 58 36 74 29 q 59 51 54 40 q 74 72 64 61 q 95 90 83 82 q 117 97 107 97 m 242 97 q 254 80 249 94 q 260 49 260 65 q 225 -44 260 3 q 135 -122 190 -90 q 128 -118 129 -122 q 132 -107 126 -114 q 180 -61 161 -89 q 199 -1 199 -33 q 183 36 199 29 q 184 51 179 40 q 199 72 189 61 q 220 90 208 82 q 242 97 232 97 z "},"…":{"ha":556,"x_min":42,"x_max":521,"o":"m 69 0 q 49 7 57 0 q 42 33 42 14 q 47 53 42 42 q 63 74 53 64 q 85 92 72 85 q 110 99 97 99 q 125 92 118 99 q 132 76 132 86 q 126 51 132 65 q 111 26 121 38 q 90 8 101 15 q 69 0 79 0 m 264 0 q 244 7 251 0 q 236 33 236 14 q 242 53 236 42 q 257 74 247 64 q 279 92 267 85 q 304 99 292 99 q 319 92 313 99 q 326 76 326 86 q 321 51 326 65 q 306 26 315 38 q 285 8 296 15 q 264 0 274 0 m 458 0 q 438 7 446 0 q 431 33 431 14 q 436 53 431 42 q 451 74 442 64 q 474 92 461 85 q 499 99 486 99 q 514 92 507 99 q 521 76 521 86 q 515 51 521 65 q 500 26 510 38 q 479 8 490 15 q 458 0 468 0 z "},"¹":{"ha":253,"x_min":69,"x_max":218,"o":"m 82 203 q 69 213 69 203 q 110 310 88 261 q 153 401 133 360 q 120 394 135 396 q 92 389 106 392 q 89 395 89 390 q 93 401 89 400 q 149 417 118 406 q 207 443 179 428 q 215 442 211 444 q 217 436 218 440 q 159 326 185 388 q 118 217 133 265 q 103 207 114 211 q 82 203 93 203 z "},"²":{"ha":310,"x_min":61,"x_max":275,"o":"m 213 435 q 258 422 242 435 q 275 385 275 408 q 266 347 275 364 q 240 315 257 331 q 197 284 222 300 q 139 249 172 268 q 214 238 172 238 q 251 253 242 238 q 258 253 254 256 q 258 246 261 251 q 232 215 247 226 q 193 204 217 204 q 157 208 172 204 q 129 216 142 213 q 107 220 117 219 q 88 215 97 221 l 71 204 q 64 208 67 203 q 67 219 61 214 q 131 260 101 242 q 182 296 160 278 q 217 332 204 314 q 229 372 229 350 q 221 399 229 389 q 189 410 213 410 q 152 393 167 410 q 133 357 138 376 q 126 355 131 353 q 122 363 122 357 q 152 412 128 389 q 213 435 176 435 z "},"³":{"ha":278,"x_min":60,"x_max":242,"o":"m 185 435 q 226 424 213 435 q 240 399 240 414 q 221 364 240 379 q 174 338 201 349 q 221 333 200 344 q 242 297 242 322 q 231 261 242 278 q 201 232 219 244 q 160 213 183 219 q 113 206 138 206 q 72 219 85 206 q 65 256 60 232 q 74 257 68 263 q 94 233 78 244 q 140 222 111 222 q 181 238 167 222 q 194 279 194 253 q 184 310 194 299 q 156 321 174 321 q 125 313 138 321 q 119 317 121 311 q 121 325 118 322 q 181 356 165 340 q 196 389 196 372 q 188 410 196 401 q 169 418 181 418 q 140 408 153 418 q 122 386 128 399 q 115 386 119 383 q 113 393 111 389 q 139 422 121 408 q 185 435 157 435 z "},"¸":{"ha":160,"x_min":28,"x_max":132,"o":"m 131 6 q 109 -22 115 -6 q 108 -51 103 -37 q 101 -117 121 -82 q 33 -171 82 -151 q 28 -166 29 -171 q 31 -157 28 -161 q 74 -121 67 -140 q 72 -74 82 -101 q 74 -29 65 -50 q 119 14 83 -8 q 129 12 126 15 q 131 6 132 8 z "},"˝":{"ha":351,"x_min":28,"x_max":329,"o":"m 129 529 q 155 528 136 533 q 186 517 174 522 q 188 503 196 511 q 156 485 175 494 q 115 466 136 475 q 73 449 94 457 q 33 436 51 442 q 28 441 28 436 q 33 451 28 446 q 81 484 51 463 q 129 529 110 506 m 263 529 q 288 528 269 533 q 319 517 307 522 q 321 503 329 511 q 289 485 308 494 q 249 466 269 475 q 206 449 228 457 q 167 436 185 442 q 161 441 161 436 q 167 451 161 446 q 214 484 185 463 q 263 529 243 506 z "},"˘":{"ha":275,"x_min":29,"x_max":251,"o":"m 119 456 q 58 473 83 456 q 29 517 33 490 q 35 529 29 522 q 47 541 40 536 q 60 548 54 546 q 69 546 67 550 q 97 499 76 514 q 144 483 117 483 q 202 499 181 483 q 238 546 224 515 q 247 549 242 551 q 250 539 251 546 q 202 479 235 503 q 119 456 169 456 z "},"˛":{"ha":185,"x_min":28,"x_max":157,"o":"m 140 7 q 92 -32 113 -8 q 72 -86 72 -56 q 108 -125 72 -125 q 147 -112 131 -125 q 154 -115 151 -111 q 154 -124 157 -119 q 126 -140 146 -132 q 86 -149 106 -149 q 28 -104 28 -149 q 50 -42 28 -72 q 131 15 72 -11 q 140 13 138 17 q 140 7 143 10 z "},"Æ":{"ha":1839,"x_min":56,"x_max":1913,"o":"m 1728 894 q 1799 888 1765 894 q 1858 869 1832 881 q 1898 844 1883 858 q 1913 815 1913 829 q 1907 788 1913 804 q 1894 754 1901 771 q 1879 723 1888 738 q 1867 703 1871 708 q 1859 703 1864 700 q 1857 711 1854 706 q 1867 744 1864 726 q 1861 782 1871 763 q 1801 841 1846 817 q 1694 865 1756 865 q 1569 827 1611 865 q 1528 726 1528 789 q 1560 644 1528 678 q 1672 586 1593 610 q 1672 576 1676 583 q 1660 559 1668 568 q 1642 543 1651 550 q 1626 535 1632 536 q 1388 469 1472 542 q 1304 253 1304 396 q 1319 163 1304 204 q 1360 90 1333 121 q 1426 42 1388 60 q 1513 25 1464 25 q 1699 78 1626 25 q 1803 249 1771 131 q 1812 253 1807 256 q 1818 242 1817 250 q 1778 113 1800 164 q 1736 53 1756 61 q 1618 13 1678 26 q 1476 0 1558 0 q 1279 58 1347 0 q 1211 219 1211 115 q 1213 303 1211 260 q 1222 392 1215 347 q 1067 390 1149 392 q 907 385 986 388 q 819 294 861 336 q 738 215 778 251 q 509 57 626 114 q 251 0 392 0 q 131 33 176 0 q 71 118 86 67 q 71 231 56 169 q 132 349 86 292 q 143 348 138 351 q 147 335 149 344 q 112 255 115 300 q 131 170 108 210 q 203 103 154 131 q 325 76 251 76 q 547 125 443 76 q 742 257 650 174 q 805 316 774 285 q 871 383 836 347 q 777 377 821 381 q 700 368 733 374 q 697 375 693 369 q 710 387 701 381 q 730 398 718 393 q 753 404 742 403 q 807 406 768 406 q 894 408 846 407 q 1069 583 974 489 q 1294 779 1164 676 q 1102 830 1201 810 q 911 850 1003 850 q 740 792 807 850 q 658 611 674 735 q 651 606 656 604 q 644 614 646 607 q 745 822 660 750 q 965 894 831 894 q 1083 887 1022 894 q 1203 867 1144 879 q 1316 841 1263 856 q 1411 813 1369 826 q 1418 806 1415 810 q 1415 792 1421 803 q 1344 622 1368 704 q 1308 442 1319 540 q 1419 517 1356 486 q 1561 563 1483 549 q 1476 622 1508 585 q 1444 708 1444 660 q 1463 780 1444 746 q 1518 839 1482 814 q 1607 879 1554 864 q 1728 894 1660 894 m 931 408 q 1014 409 971 408 q 1096 410 1057 410 q 1168 410 1135 410 q 1224 410 1201 410 q 1263 606 1238 510 q 1325 778 1289 703 q 1107 585 1203 679 q 931 408 1011 492 z "},"Á":{"ha":1410,"x_min":56,"x_max":1435,"o":"m 1372 1019 q 1398 1017 1379 1024 q 1429 1006 1417 1011 q 1433 999 1432 1003 q 1431 993 1435 996 q 1395 972 1417 983 q 1349 951 1374 961 q 1299 931 1325 940 q 1253 914 1274 921 q 1247 919 1247 914 q 1251 929 1247 925 q 1313 969 1279 946 q 1372 1019 1346 992 m 1418 813 q 1422 805 1422 810 q 1414 792 1422 800 q 1332 677 1368 742 q 1271 536 1296 613 q 1232 375 1246 460 q 1218 201 1218 290 q 1234 98 1218 135 q 1290 61 1250 61 q 1396 139 1346 61 q 1404 139 1400 142 q 1407 131 1408 136 q 1327 36 1371 72 q 1246 0 1283 0 q 1162 43 1190 0 q 1133 165 1133 86 q 1158 392 1133 276 q 1030 390 1093 392 q 907 386 967 389 q 819 294 861 338 q 736 215 776 251 q 508 57 625 114 q 250 0 390 0 q 130 33 175 0 q 70 118 85 67 q 71 231 56 169 q 132 349 86 292 q 142 348 136 351 q 146 335 147 344 q 110 255 114 300 q 130 170 107 210 q 201 103 153 131 q 324 76 250 76 q 545 125 442 76 q 740 257 649 174 q 804 317 772 285 q 871 383 836 349 q 779 377 822 381 q 699 368 736 374 q 696 375 692 369 q 708 387 700 381 q 728 398 717 393 q 751 404 740 403 q 808 406 769 406 q 894 408 846 407 q 1067 583 972 489 q 1293 779 1163 676 q 1101 830 1200 810 q 910 850 1001 850 q 739 792 806 850 q 657 611 672 735 q 649 606 654 604 q 643 614 644 607 q 744 822 660 750 q 964 894 829 894 q 1083 887 1021 894 q 1206 867 1146 879 q 1322 841 1267 856 q 1418 813 1376 826 m 1163 410 q 1225 604 1185 510 q 1324 778 1265 699 q 1106 586 1201 679 q 929 408 1010 493 q 1060 410 996 410 q 1163 410 1125 410 z "},"Â":{"ha":1410,"x_min":56,"x_max":1478,"o":"m 1351 1036 q 1368 1035 1358 1043 q 1415 987 1386 1011 q 1471 950 1443 963 q 1465 936 1478 943 q 1435 932 1451 929 q 1387 959 1408 943 q 1343 993 1365 975 q 1321 978 1335 986 q 1292 960 1307 969 q 1263 943 1278 951 q 1239 931 1249 935 q 1232 943 1225 931 q 1292 983 1256 957 q 1351 1036 1329 1010 m 1418 813 q 1422 805 1422 810 q 1414 792 1422 800 q 1332 677 1368 742 q 1271 536 1296 613 q 1232 375 1246 460 q 1218 201 1218 290 q 1234 98 1218 135 q 1290 61 1250 61 q 1396 139 1346 61 q 1404 139 1400 142 q 1407 131 1408 136 q 1327 36 1371 72 q 1246 0 1283 0 q 1162 43 1190 0 q 1133 165 1133 86 q 1158 392 1133 276 q 1030 390 1093 392 q 907 386 967 389 q 819 294 861 338 q 736 215 776 251 q 508 57 625 114 q 250 0 390 0 q 130 33 175 0 q 70 118 85 67 q 71 231 56 169 q 132 349 86 292 q 142 348 136 351 q 146 335 147 344 q 110 255 114 300 q 130 170 107 210 q 201 103 153 131 q 324 76 250 76 q 545 125 442 76 q 740 257 649 174 q 804 317 772 285 q 871 383 836 349 q 779 377 822 381 q 699 368 736 374 q 696 375 692 369 q 708 387 700 381 q 728 398 717 393 q 751 404 740 403 q 808 406 769 406 q 894 408 846 407 q 1067 583 972 489 q 1293 779 1163 676 q 1101 830 1200 810 q 910 850 1001 850 q 739 792 806 850 q 657 611 672 735 q 649 606 654 604 q 643 614 644 607 q 744 822 660 750 q 964 894 829 894 q 1083 887 1021 894 q 1206 867 1146 879 q 1322 841 1267 856 q 1418 813 1376 826 m 1163 410 q 1225 604 1185 510 q 1324 778 1265 699 q 1106 586 1201 679 q 929 408 1010 493 q 1060 410 996 410 q 1163 410 1125 410 z "},"Ð":{"ha":1135,"x_min":42,"x_max":1128,"o":"m 815 825 q 941 735 883 788 q 1040 621 999 683 q 1105 490 1082 558 q 1128 354 1128 422 q 1099 213 1128 278 q 1017 100 1069 147 q 890 26 964 53 q 725 0 815 0 q 626 7 672 0 q 540 24 581 14 q 461 47 499 35 q 386 72 424 60 q 267 17 332 35 q 124 0 203 0 q 60 10 79 0 q 42 39 42 21 q 56 78 42 57 q 93 118 69 100 q 150 148 117 136 q 224 160 183 160 q 322 150 276 160 q 411 125 367 140 q 483 234 449 168 q 553 396 517 300 q 457 388 503 393 q 376 376 411 383 q 378 388 371 379 q 401 401 386 396 q 465 408 422 404 q 558 414 508 411 q 576 464 568 438 q 594 518 585 490 q 655 669 622 603 q 729 785 688 736 q 612 827 674 813 q 483 842 550 842 q 378 824 422 842 q 302 776 333 806 q 253 706 271 746 q 228 621 235 665 q 222 619 225 617 q 217 625 218 621 q 247 733 222 683 q 315 818 272 782 q 415 874 357 854 q 547 894 474 894 q 671 881 611 894 q 786 840 731 867 q 960 919 857 897 q 965 915 964 919 q 960 907 965 910 q 815 825 879 885 m 171 25 q 276 37 229 25 q 364 79 324 49 q 269 103 318 94 q 163 113 221 113 q 115 101 131 113 q 100 71 100 90 q 117 38 100 50 q 171 25 135 25 m 794 46 q 989 117 926 46 q 1051 311 1051 188 q 1031 442 1051 376 q 972 567 1010 507 q 882 678 935 626 q 764 767 829 729 q 706 669 732 724 q 657 546 679 614 q 634 478 646 510 q 611 415 622 446 q 703 418 660 418 q 778 417 747 418 q 780 410 781 414 q 771 404 779 407 q 692 403 735 404 q 606 399 650 401 q 527 234 568 303 q 438 117 486 165 q 510 92 472 104 q 590 69 547 79 q 683 52 632 58 q 794 46 733 46 z "},"'":{"ha":164,"x_min":68,"x_max":240,"o":"m 153 547 q 219 563 165 563 q 235 558 231 563 q 238 550 240 554 q 205 513 225 536 q 163 465 185 490 q 119 415 140 439 q 83 375 97 392 q 72 376 76 372 q 71 386 68 379 q 88 420 76 399 q 110 465 99 442 q 134 510 122 488 q 153 547 146 532 z "},"\"":{"ha":294,"x_min":68,"x_max":371,"o":"m 153 547 q 219 563 165 563 q 235 558 231 563 q 238 550 240 554 q 205 513 225 536 q 163 465 185 490 q 119 415 140 439 q 83 375 97 392 q 72 376 76 372 q 71 386 68 379 q 88 420 76 399 q 110 465 99 442 q 134 510 122 488 q 153 547 146 532 m 283 547 q 350 563 296 563 q 366 558 361 563 q 368 550 371 554 q 335 513 356 536 q 293 465 315 490 q 249 415 271 439 q 214 375 228 392 q 203 376 207 372 q 201 386 199 379 q 218 420 207 399 q 241 465 229 442 q 265 510 253 488 q 283 547 276 532 z "},"›":{"ha":256,"x_min":-19,"x_max":229,"o":"m -4 4 q -16 10 -12 1 q -8 29 -19 19 q 31 64 8 44 q 77 103 53 83 q 125 142 101 124 q 168 175 149 161 q 137 203 153 186 q 105 240 121 221 q 76 278 89 258 q 53 314 63 297 q 57 329 50 321 q 73 344 64 338 q 92 352 82 350 q 110 349 103 354 q 162 270 131 308 q 224 207 193 232 q 228 196 229 203 q 221 185 226 189 q 103 96 164 144 q -4 4 42 47 z "},">":{"ha":418,"x_min":33,"x_max":383,"o":"m 376 217 q 376 201 383 213 q 347 183 368 190 q 287 164 325 176 q 205 138 249 151 q 117 110 161 124 q 42 86 74 96 q 41 101 33 88 q 68 122 49 115 q 111 136 82 126 q 176 157 140 146 q 248 181 211 168 q 313 203 285 193 q 215 246 271 221 q 111 293 160 271 q 117 310 104 300 q 149 318 131 321 q 198 297 168 310 q 260 269 228 283 q 323 240 292 254 q 376 217 354 226 z "},"<":{"ha":418,"x_min":35,"x_max":385,"o":"m 42 192 q 42 207 35 196 q 71 225 50 218 q 131 244 93 232 q 213 271 169 257 q 301 299 257 285 q 376 322 344 313 q 377 307 385 321 q 350 286 369 293 q 307 272 336 282 q 242 251 278 263 q 170 228 207 240 q 106 206 133 215 q 203 163 147 188 q 307 115 258 138 q 301 98 314 108 q 269 90 288 88 q 220 112 250 99 q 158 140 190 125 q 95 168 126 154 q 42 192 64 182 z "},"½":{"ha":624,"x_min":61,"x_max":596,"o":"m 539 465 q 422 333 478 397 q 311 206 365 269 q 204 78 257 142 q 99 -51 151 15 q 74 -58 86 -62 q 67 -42 61 -53 q 176 91 126 31 q 277 210 226 151 q 383 334 328 269 q 508 478 438 399 q 531 480 518 485 q 539 465 544 475 m 88 135 q 75 146 72 135 q 128 274 97 207 q 185 394 160 342 q 143 385 163 389 q 107 378 124 381 q 102 384 103 379 q 108 392 101 389 q 181 410 140 397 q 253 440 221 422 q 263 440 258 443 q 265 432 267 438 q 226 364 244 400 q 191 291 207 328 q 162 217 175 254 q 139 150 149 181 q 119 140 135 144 q 88 135 103 135 m 518 293 q 575 273 554 293 q 596 226 596 253 q 583 183 596 203 q 545 144 569 163 q 487 106 521 125 q 410 65 453 88 q 451 53 429 58 q 506 49 474 49 q 535 56 525 49 q 554 75 546 63 q 563 75 558 79 q 565 64 567 71 q 522 18 546 36 q 464 0 499 0 q 418 5 438 0 q 383 15 399 10 q 355 21 367 19 q 331 15 343 22 q 317 7 322 10 q 308 0 313 4 q 299 6 301 -1 q 303 19 297 14 q 389 69 347 46 q 463 116 431 93 q 515 163 496 139 q 535 214 535 186 q 523 249 535 236 q 483 263 511 263 q 435 244 453 263 q 411 193 418 225 q 401 192 408 189 q 394 201 394 194 q 433 265 401 236 q 518 293 465 293 z "},"¼":{"ha":610,"x_min":61,"x_max":594,"o":"m 508 478 q 531 480 518 485 q 539 465 544 475 q 422 333 478 397 q 311 206 365 269 q 204 78 257 142 q 99 -51 151 15 q 74 -58 86 -62 q 67 -42 61 -53 q 177 91 126 31 q 278 210 228 151 q 383 334 328 269 q 508 478 438 399 m 88 135 q 75 146 72 135 q 129 274 97 207 q 185 394 161 342 q 144 385 163 389 q 107 378 125 381 q 103 384 104 379 q 108 392 101 389 q 181 410 140 397 q 253 440 221 422 q 263 440 258 443 q 265 432 267 438 q 226 364 244 400 q 191 291 207 328 q 162 217 175 254 q 139 150 149 181 q 119 140 135 144 q 88 135 103 135 m 592 293 q 571 260 581 278 q 550 222 561 243 q 524 167 538 197 q 496 104 510 136 q 534 111 521 104 q 554 129 547 118 q 560 129 557 132 q 563 122 564 126 q 532 90 551 103 q 485 74 513 76 q 473 44 478 58 q 463 14 468 29 q 442 4 460 8 q 414 0 424 0 q 407 7 407 0 q 419 42 414 25 q 432 76 425 60 q 364 88 393 82 q 325 88 335 94 l 321 83 q 313 84 317 81 q 311 93 308 88 q 369 147 336 118 q 438 203 401 175 q 511 256 474 231 q 583 301 549 282 q 592 299 589 303 q 592 293 594 296 m 444 106 q 508 236 474 178 q 361 119 431 183 q 399 112 376 115 q 444 106 421 108 z "},"¾":{"ha":689,"x_min":68,"x_max":674,"o":"m 588 478 q 610 480 597 485 q 618 465 624 475 q 501 333 557 397 q 390 206 444 269 q 283 78 336 142 q 178 -51 231 15 q 153 -58 165 -62 q 146 -42 140 -53 q 256 91 206 31 q 357 210 307 151 q 462 334 407 269 q 588 478 517 399 m 671 293 q 650 260 660 278 q 629 222 640 243 q 603 167 617 197 q 575 104 589 136 q 613 111 600 104 q 633 129 626 118 q 640 129 636 132 q 642 122 643 126 q 611 90 631 103 q 564 74 592 76 q 552 44 557 58 q 542 14 547 29 q 521 4 539 8 q 493 0 503 0 q 486 7 486 0 q 499 42 493 25 q 511 76 504 60 q 443 88 472 82 q 404 88 414 94 l 400 83 q 392 84 396 81 q 390 93 388 88 q 448 147 415 118 q 517 203 481 175 q 590 256 553 231 q 663 301 628 282 q 671 299 668 303 q 671 293 674 296 m 524 106 q 588 236 553 178 q 440 119 510 183 q 478 112 456 115 q 524 106 500 108 m 292 251 q 278 207 292 228 q 243 170 265 186 q 192 144 221 154 q 131 135 163 135 q 85 151 101 135 q 71 199 68 167 q 75 203 72 201 q 81 201 78 204 q 108 169 88 183 q 161 156 128 156 q 217 178 197 156 q 236 232 236 200 q 225 270 236 256 q 189 285 214 285 q 165 281 175 285 q 147 272 156 278 q 140 278 142 271 q 142 288 139 285 q 218 326 194 307 q 242 371 242 344 q 206 406 242 406 q 167 394 182 406 q 142 364 153 383 q 133 364 138 360 q 131 375 128 368 q 165 411 142 394 q 224 428 189 428 q 276 414 260 428 q 293 381 293 400 q 268 338 293 357 q 208 303 243 318 q 269 297 247 313 q 292 251 292 281 z "},"·":{"ha":167,"x_min":42,"x_max":132,"o":"m 69 163 q 49 169 57 163 q 42 196 42 176 q 47 215 42 204 q 63 237 53 226 q 85 254 72 247 q 110 261 97 261 q 125 255 118 261 q 132 239 132 249 q 126 214 132 228 q 111 189 121 200 q 90 170 101 178 q 69 163 79 163 z "},"⁄":{"ha":310,"x_min":-31,"x_max":453,"o":"m 447 464 q 329 333 386 397 q 218 205 272 268 q 111 78 164 142 q 6 -53 58 14 q -18 -59 -6 -64 q -26 -43 -31 -54 q 84 90 33 29 q 185 209 135 150 q 290 333 235 268 q 417 476 346 397 q 440 479 426 483 q 447 464 453 475 z "},"~":{"ha":532,"x_min":68,"x_max":504,"o":"m 71 194 q 139 260 103 235 q 215 286 175 286 q 260 278 240 286 q 299 260 279 269 q 340 243 318 251 q 390 235 361 235 q 440 248 418 235 q 488 289 461 261 q 499 288 494 292 q 501 276 504 285 q 429 210 467 236 q 351 183 392 183 q 299 192 321 183 q 258 209 276 200 q 221 226 239 218 q 181 235 203 235 q 128 222 149 235 q 83 181 107 208 q 72 183 76 178 q 71 194 68 188 z "},"^":{"ha":386,"x_min":68,"x_max":358,"o":"m 251 501 q 275 499 265 518 q 316 392 294 446 q 357 290 338 339 q 354 274 358 283 q 343 258 350 265 q 328 247 336 251 q 315 247 319 243 q 276 344 296 294 q 238 436 256 394 q 158 336 200 388 q 83 247 117 285 q 73 248 78 243 q 72 261 68 253 q 151 367 104 306 q 251 501 199 428 z "},"¬":{"ha":368,"x_min":19,"x_max":335,"o":"m 324 326 q 331 307 335 324 q 320 283 326 299 q 307 250 314 268 q 292 212 300 232 q 279 175 285 192 q 265 165 275 168 q 244 161 254 161 q 225 165 233 161 q 217 175 217 168 q 228 206 221 188 q 242 244 235 225 q 255 281 249 264 q 264 306 261 297 q 206 306 239 306 q 140 305 174 306 q 76 303 107 304 q 28 301 46 303 q 22 311 19 304 q 39 321 25 318 q 100 323 61 322 q 181 324 139 324 q 261 326 222 325 q 324 326 300 326 z "},"\\":{"ha":299,"x_min":42,"x_max":250,"o":"m 74 875 q 110 663 88 785 q 157 415 132 542 q 206 169 182 288 q 250 -33 231 50 q 237 -56 250 -49 q 217 -51 224 -62 q 176 156 199 40 q 129 393 153 271 q 83 637 106 515 q 42 863 60 758 q 56 880 44 874 q 74 875 68 886 z "},"{":{"ha":425,"x_min":106,"x_max":558,"o":"m 288 689 q 367 822 307 781 q 547 864 428 864 q 557 853 558 861 q 542 844 556 846 q 422 812 463 844 q 365 703 382 779 q 356 651 358 674 q 351 606 353 628 q 346 560 349 583 q 336 508 343 538 q 297 432 325 467 q 225 378 268 397 q 274 338 260 369 q 279 267 288 306 q 260 202 271 231 q 238 146 249 174 q 216 90 226 118 q 199 29 206 63 q 210 -77 185 -42 q 307 -112 236 -112 q 312 -123 314 -115 q 297 -132 310 -131 q 147 -89 188 -132 q 119 22 106 -46 q 139 90 128 61 q 161 144 150 118 q 183 197 172 171 q 203 257 194 224 q 205 294 208 278 q 192 322 201 310 q 168 341 182 333 q 139 351 154 349 q 137 368 132 358 q 165 383 142 378 q 228 421 208 394 q 263 501 249 447 q 277 600 276 557 q 288 689 278 643 z "},"}":{"ha":415,"x_min":-3,"x_max":443,"o":"m 268 43 q 189 -91 249 -50 q 8 -132 129 -132 q -1 -122 -3 -131 q 14 -112 0 -114 q 133 -80 93 -112 q 190 29 174 -47 q 200 81 197 58 q 205 126 203 104 q 210 172 207 149 q 219 224 213 194 q 260 299 231 265 q 331 353 289 333 q 282 394 296 363 q 278 465 268 426 q 297 529 286 500 q 318 585 307 558 q 340 640 329 613 q 357 701 350 668 q 346 808 371 772 q 250 843 321 843 q 244 853 243 846 q 258 864 246 861 q 351 852 314 864 q 410 820 389 840 q 437 772 431 800 q 436 710 443 743 q 417 642 428 671 q 394 587 406 613 q 372 535 383 561 q 353 475 361 508 q 351 438 347 454 q 364 410 354 422 q 388 391 374 399 q 417 381 401 383 q 419 364 425 374 q 390 349 414 354 q 327 311 347 338 q 293 231 307 285 q 283 178 286 203 q 278 131 281 154 q 274 87 276 108 q 268 43 272 65 z "},"°":{"ha":156,"x_min":111,"x_max":253,"o":"m 189 518 q 151 502 165 518 q 136 465 136 486 q 145 436 136 447 q 176 425 154 425 q 211 441 196 425 q 226 478 226 457 q 189 518 226 518 m 167 401 q 125 417 139 401 q 111 460 111 433 q 135 517 111 492 q 197 543 160 543 q 237 528 221 543 q 253 488 253 513 q 228 426 253 451 q 167 401 204 401 z "},"¤":{"ha":486,"x_min":18,"x_max":489,"o":"m 465 432 q 480 428 471 435 q 483 414 489 421 q 438 372 463 394 q 383 322 413 349 q 404 251 404 293 q 385 169 404 207 q 335 107 367 132 q 356 69 346 88 q 375 35 365 51 q 370 8 379 21 q 350 1 361 -6 q 327 42 339 21 q 304 88 315 64 q 217 67 264 67 q 140 89 167 67 q 88 43 113 65 q 42 1 63 21 q 25 5 32 -3 q 24 19 18 13 q 67 60 43 39 q 119 108 92 82 q 97 192 97 140 q 114 266 97 231 q 161 328 131 301 q 142 365 151 347 q 121 400 132 382 q 126 426 117 413 q 146 433 136 439 q 169 392 157 414 q 192 347 181 371 q 234 365 211 358 q 283 372 257 372 q 364 343 331 372 q 417 390 392 367 q 465 432 443 413 m 236 97 q 286 108 263 97 q 328 138 310 119 q 357 182 346 157 q 368 235 368 207 q 342 312 368 283 q 268 340 315 340 q 213 328 238 340 q 169 298 188 317 q 142 253 151 279 q 132 201 132 228 q 156 127 132 157 q 236 97 179 97 z "},"•":{"ha":288,"x_min":76,"x_max":239,"o":"m 139 126 q 92 144 107 126 q 76 193 76 163 q 103 258 76 229 q 175 288 131 288 q 221 270 203 288 q 239 225 239 253 q 211 156 239 185 q 139 126 183 126 z "},"‹":{"ha":274,"x_min":25,"x_max":281,"o":"m 264 349 q 277 342 274 351 q 268 324 281 332 q 223 292 249 311 q 172 252 197 272 q 122 212 146 232 q 83 178 97 192 q 144 121 113 154 q 196 60 176 88 q 196 42 199 53 q 188 22 193 32 q 174 7 182 13 q 158 4 167 1 q 96 83 132 44 q 31 144 60 121 q 26 156 25 150 q 33 168 28 163 q 147 263 86 215 q 264 349 208 310 z "},"ı":{"ha":231,"x_min":47,"x_max":218,"o":"m 72 258 q 65 260 68 256 q 64 269 63 265 q 207 356 115 311 q 218 343 218 356 q 183 274 200 311 q 152 199 165 236 q 131 128 139 163 q 122 72 122 94 q 142 44 122 44 q 172 58 157 44 q 206 92 186 71 q 213 91 208 94 q 214 81 217 88 q 153 22 183 44 q 96 0 124 0 q 47 46 47 0 q 55 105 47 71 q 76 174 63 139 q 105 244 89 210 q 138 303 121 278 q 103 282 122 294 q 72 258 85 269 z "}}}
